<?xml version="1.0" encoding="UTF-8" standalone="no"?>
<svg width="120px" height="120px" viewBox="0 0 120 120" version="1.1" xmlns="http://www.w3.org/2000/svg" xmlns:xlink="http://www.w3.org/1999/xlink">
    <!-- Generator: Sketch 3.7 (28169) - http://www.bohemiancoding.com/sketch -->
    <title>Group</title>
    <desc>Created with Sketch.</desc>
    <defs>
        <path d="M50,100 C77.6142375,100 100,77.6142375 100,50 C100,22.3857625 77.6142375,0 50,0 C22.3857625,0 0,22.3857625 0,50 C0,77.6142375 22.3857625,100 50,100 Z" id="path-1"></path>
        <filter x="-50%" y="-50%" width="200%" height="200%" filterUnits="objectBoundingBox" id="filter-2">
            <feOffset dx="0" dy="2" in="SourceAlpha" result="shadowOffsetOuter1"></feOffset>
            <feGaussianBlur stdDeviation="5" in="shadowOffsetOuter1" result="shadowBlurOuter1"></feGaussianBlur>
            <feColorMatrix values="0 0 0 0 0   0 0 0 0 0   0 0 0 0 0  0 0 0 0.5 0" type="matrix" in="shadowBlurOuter1"></feColorMatrix>
        </filter>
    </defs>
    <g id="Page-1" stroke="none" stroke-width="1" fill="none" fill-rule="evenodd">
        <g id="Resources-v3-" transform="translate(-786.000000, -710.000000)">
            <g id="Group" transform="translate(796.000000, 718.000000)">
                <g id="Oval-170">
                    <use fill="black" fill-opacity="1" filter="url(#filter-2)" xlink:href="#path-1"></use>
                    <use fill="#FFFFFF" fill-rule="evenodd" xlink:href="#path-1"></use>
                </g>
                <path d="M65,66.632 C65,67.424 64.3541667,68 63.6365741,68 L35.3634259,68 C34.5740741,68 34,67.352 34,66.632 C34,65.84 34.6458333,65.264 35.3634259,65.264 L63.5648148,65.264 C64.3541667,65.264 65,65.84 65,66.632 L65,66.632 Z M49.5,32 C48.7106481,32 48.1365741,32.648 48.1365741,33.368 L48.1365741,55.832 L42.6828704,50.36 C42.1087963,49.784 41.2476852,49.784 40.7453704,50.36 C40.1712963,50.936 40.1712963,51.8 40.7453704,52.304 L48.4953704,60.08 C48.7824074,60.368 49.1412037,60.512 49.5,60.512 C49.8587963,60.512 50.2175926,60.368 50.5046296,60.08 L58.2546296,52.304 C58.8287037,51.728 58.8287037,50.864 58.2546296,50.36 C57.6805556,49.784 56.8194444,49.784 56.3171296,50.36 L50.8634259,55.832 L50.8634259,33.368 C50.8634259,32.576 50.2893519,32 49.5,32 L49.5,32 Z" id="Shape" fill="#42423F"></path>
            </g>
        </g>
    </g>
</svg>