<?xml version="1.0" encoding="UTF-8" standalone="no"?>
<svg width="767px" height="527px" viewBox="0 0 767 527" version="1.1" xmlns="http://www.w3.org/2000/svg" xmlns:xlink="http://www.w3.org/1999/xlink">
    <!-- Generator: Sketch 3.7 (28169) - http://www.bohemiancoding.com/sketch -->
    <title>Page 1</title>
    <desc>Created with Sketch.</desc>
    <defs></defs>
    <g id="Page-1" stroke="none" stroke-width="1" fill="none" fill-rule="evenodd" stroke-linecap="round" stroke-linejoin="round">
        <g id="Resources-v3-" transform="translate(-130.000000, -161.000000)" stroke-width="1.25" stroke="#A8E0D7">
            <g id="Page-1" transform="translate(131.000000, 162.000000)">
                <polygon id="Stroke-1" points="239.10828 143.225978 143.479398 0.0346673168 525.994926 143.225978"></polygon>
                <polyline id="Stroke-3" points="525.994926 143.225978 621.623808 0.0346673168 334.737162 0.0346673168 239.10828 143.225978"></polyline>
                <polygon id="Stroke-5" points="621.623808 0.0346673168 765.067131 143.225978 669.438249 143.225978"></polygon>
                <polygon id="Stroke-7" points="525.994926 143.225978 621.623808 0.0346673168 239.10828 143.225978"></polygon>
                <polyline id="Stroke-9" points="239.10828 143.225978 143.479398 0.0346673168 430.366044 0.0346673168 525.994926 143.225978"></polyline>
                <polygon id="Stroke-11" points="525.994926 143.225978 669.438249 143.225978 382.551603 525.069472"></polygon>
                <polygon id="Stroke-13" points="143.479398 0.0346673168 0.0360743641 143.225978 95.6649565 143.225978"></polygon>
                <polygon id="Stroke-15" points="382.551603 525.069472 239.10828 143.225978 95.6649565 143.225978"></polygon>
                <polygon id="Stroke-17" points="0.0360743641 143.225978 382.551603 525.069472 765.067131 143.225978"></polygon>
                <polygon id="Stroke-19" points="382.551603 525.069472 0.0360743641 143.225978 143.479398 0.0346673168 621.623808 0.0346673168 765.067131 143.225978"></polygon>
            </g>
        </g>
    </g>
</svg>