<svg xmlns="http://www.w3.org/2000/svg" viewBox="0 0 100 100" height="100" width="100"><g fill="#4A4A4A"><path d="M24.7 71.7c-9.9 0-16.7-3.1-17.1-3.3-.5-.2-.7-.8-.5-1.3.2-.5.8-.7 1.3-.5.2.1 16.1 7.2 34.2-.6 17.1-7.3 30.5-25.1 39.9-52.7.2-.5.7-.8 1.3-.6.5.2.8.7.6 1.3-9.6 28.2-23.4 46.3-41 53.9-6.8 2.8-13.2 3.8-18.7 3.8z"/><path d="M89.1 34.5c-.4 0-.9-.3-1-.8l-4.9-19.5-18.6 9.6c-.5.3-1.1.1-1.3-.4-.3-.5-.1-1.1.4-1.3l20.8-10.8 5.5 22c.1.5-.2 1.1-.7 1.2 0-.1-.1 0-.2 0zM91 89.6c-.3 0-.5-.1-.7-.3L68.1 67.2c-.4-.4-.4-1 0-1.4s1-.4 1.4 0l22.1 22.1c.4.4.4 1 0 1.4-.1.2-.4.3-.6.3z"/><path d="M68.9 89.6c-.3 0-.5-.1-.7-.3-.4-.4-.4-1 0-1.4l22.1-22.1c.4-.4 1-.4 1.4 0s.4 1 0 1.4L69.6 89.3c-.2.2-.5.3-.7.3zM32.6 47.4c-7.8 0-14.2-6.4-14.2-14.2S24.7 19 32.6 19s14.2 6.4 14.2 14.2-6.4 14.2-14.2 14.2zm0-26.4c-6.7 0-12.2 5.5-12.2 12.2s5.5 12.2 12.2 12.2 12.2-5.5 12.2-12.2S39.3 21 32.6 21z"/></g></svg>