<svg xmlns="http://www.w3.org/2000/svg" viewBox="0 0 100 100" height="100" width="100"><path fill="#4A4A4A" d="M93.2 91.8L67.7 66.3c13.1-14 12.9-36.1-.8-49.8C60.1 9.7 51.1 6 41.6 6S23 9.7 16.2 16.5c-14 14-14 36.7 0 50.7C23 73.9 32 77.6 41.6 77.6c9.2 0 17.8-3.5 24.5-9.7l25.5 25.5c.2.2.5.4.8.4.3 0 .6-.1.8-.4.5-.4.5-1.2 0-1.6zM17.9 18.2c6.3-6.3 14.7-9.8 23.6-9.8 8.9 0 17.3 3.5 23.6 9.8 11.1 11.1 12.7 28.1 4.9 41h-6.2V25.5c0-1.9-1.6-3.5-3.5-3.5h-6.2c-1.9 0-3.5 1.6-3.5 3.5v33.6H48V47.3c0-1.9-1.6-3.5-3.5-3.5h-6.2c-1.9 0-3.5 1.6-3.5 3.5v11.9h-2.6V35.6c0-1.9-1.6-3.5-3.5-3.5h-6.2c-1.9 0-3.5 1.6-3.5 3.5v23.5h-6c-7.8-12.8-6.2-29.8 4.9-40.9zm43.6 41h-8.4V25.5c0-.6.5-1.1 1.1-1.1h6.2c.6 0 1.1.5 1.1 1.1v33.7zm-15.8 0h-8.4V47.3c0-.6.5-1.1 1.1-1.1h6.2c.6 0 1.1.5 1.1 1.1v11.9zm-15.7 0h-8.4V35.6c0-.6.5-1.1 1.1-1.1h6.2c.6 0 1.1.5 1.1 1.1v23.6zm-12.1 6.2c-1.2-1.2-2.3-2.5-3.3-3.9h53.9c-1 1.4-2.1 2.7-3.3 3.9-6.3 6.3-14.7 9.8-23.6 9.8-9 0-17.4-3.4-23.7-9.8z"/></svg>