<svg xmlns="http://www.w3.org/2000/svg" viewBox="0 0 100 100" height="100" width="100"><path fill="#4A4A4A" d="M87.7 42.7L48.6 28.6c-.2-.1-.4-.1-.6 0L9.4 42.2c-.3.1-.6.4-.6.8s.2.7.6.8l20.6 8v10.9c0 .2 1.1 5.7 10.1 7.1 2.9.5 5.8.6 8.3.6 4.9 0 8.4-.6 8.7-.6.4-.1 9.3-2.2 9.9-8.2.4-4.3.2-8.2.1-9.7l3.5-1.3-.1 17.6c-1.2.4-2.7 1.7-2.8 4.7 0 .5.4.9.8.9.5 0 .9-.4.9-.8.1-3.1 1.7-3.2 1.9-3.2.8 0 1.5.2 1.9.7.8.9.6 2.4.6 2.4-.1.5.3.9.8 1h.1c.4 0 .8-.3.9-.8 0-.1.3-2.3-1-3.8-.6-.7-1.4-1.1-2.3-1.2l.1-18.1 15.4-5.7c.3-.1.6-.5.6-.8-.2-.3-.4-.7-.7-.8zM65.2 61.5c-.5 4.8-8.5 6.6-8.5 6.6-.1 0-8.1 1.4-16.3 0-7.7-1.3-8.6-5.5-8.6-5.6v-10l16.4 6.3c.1 0 .2.1.3.1.1 0 .2 0 .3-.1l16.6-6.1c0 1.6.2 5.1-.2 8.8zm6.2-13l-22.5-8.2c-.4-.2-1 .1-1.1.5-.2.5.1 1 .5 1.1l20.6 7.5L48.5 57 12.2 43.1l36.1-12.7 36.5 13.2-13.4 4.9z"/></svg>