<svg xmlns="http://www.w3.org/2000/svg" width="100" height="100" viewBox="0 0 100 100"><path fill="#4A4A4A" d="M86.012 34.917L67.847 15.65l-.008-.008-.277-.294h-.43l-.01-.002-.01.002H42.634c-2.575 0-4.793 1.453-5.95 3.566H18.41c-3.755 0-6.81 3.055-6.81 6.81 0 .036.016.068.02.104a6.784 6.784 0 0 0-2.024 4.835v52.282c0 3.754 3.056 6.81 6.81 6.81h36.866c3.756 0 6.81-3.057 6.81-6.81v-1.697H79.5c3.755 0 6.81-3.055 6.81-6.81V35.234l-.298-.316zM68.142 18.94l14.78 15.676h-10.01c-2.63 0-4.77-2.14-4.77-4.77V18.942zm-49.73 2.017h17.533c-.07.392-.122.79-.122 1.203v1.693H16.41c-.9 0-1.755.185-2.542.503.592-1.96 2.394-3.4 4.544-3.4zm39.63 61.988c0 2.63-2.14 4.767-4.768 4.767H16.41a4.774 4.774 0 0 1-4.77-4.767v-52.28c0-2.63 2.14-4.77 4.77-4.77h36.865c2.63 0 4.77 2.14 4.77 4.77v52.28zm-4.767-59.092h-15.41V22.16c0-2.63 2.14-4.77 4.77-4.77H66.1v9.31h-7.31c-1.237-1.717-3.24-2.847-5.515-2.847zm6.5 4.89h6.326v1.105c0 1.036.252 2.008.667 2.888h-6.68v-2.072c0-.672-.13-1.308-.31-1.92zM84.27 74.44c0 2.628-2.14 4.766-4.77 4.766H60.087v-8.22h16.12a1.02 1.02 0 0 0 0-2.04h-16.12V64.95h16.12a1.02 1.02 0 0 0 0-2.042h-16.12v-3.993h16.12a1.02 1.02 0 0 0 0-2.042h-16.12v-3.99h16.12a1.02 1.02 0 0 0 0-2.043h-16.12V46.85h16.12a1.02 1.02 0 0 0 0-2.043h-16.12v-3.993h16.12a1.02 1.02 0 0 0 0-2.042h-16.12V34.78h8.153a6.773 6.773 0 0 0 4.672 1.88h11.356v37.78zM45 37.61H24.685a2.7 2.7 0 0 0-2.696 2.694v11.04a2.7 2.7 0 0 0 2.695 2.696H45a2.7 2.7 0 0 0 2.694-2.697V40.307A2.697 2.697 0 0 0 45 37.612zm.652 13.734c0 .36-.293.654-.652.654H24.685a.654.654 0 0 1-.654-.654v-11.04c0-.358.294-.65.655-.65H45c.36 0 .652.292.652.65v11.04z"/></svg>