<svg xmlns="http://www.w3.org/2000/svg" viewBox="0 0 100 100" height="100" width="100"><g fill="#4A4A4A"><path d="M79.8 38.2L59.6 59.9c.6.4 1 .8 1.5 1.4l20.2-21.7c-.5-.4-1-.9-1.5-1.4zM41 49.5c-.4.5-.9 1-1.4 1.4l10.8 10.6c.4-.5.9-1 1.4-1.4L41 49.5zM30.2 49.6L19.5 60.5c.5.4 1 .9 1.4 1.4L31.7 51c-.6-.4-1.1-.8-1.5-1.4zM58.5 61.5c-.1-.1-.2-.1-.2-.1-.7-.4-1.5-.7-2.4-.7-.6 0-1.3.1-1.8.4-.3.1-.5.3-.7.4-.6.4-1 .9-1.4 1.4-.5.7-.7 1.6-.7 2.5 0 1.9 1.2 3.6 2.9 4.3.6.2 1.2.4 1.8.4 1 0 1.9-.3 2.6-.8 1.3-.8 2.1-2.3 2.1-3.9 0-1-.3-1.9-.8-2.7-.5-.5-.9-.9-1.4-1.2zM38.9 42.3c-.9-.9-2-1.4-3.3-1.4-.3 0-.6 0-.9.1-.6.1-1.2.4-1.7.7-.5.3-.9.8-1.3 1.3-.5.8-.8 1.7-.8 2.6 0 1 .3 1.9.8 2.6.3.5.8.9 1.3 1.3.1 0 .1.1.2.1.5.3 1 .5 1.5.6.3.1.6.1.9.1 1 0 1.9-.3 2.6-.8.3-.2.5-.4.7-.6.3-.3.5-.6.7-.9.4-.7.7-1.6.7-2.5 0-1.2-.6-2.4-1.4-3.2zM87.7 30.1c-.8-.5-1.7-.8-2.6-.8-.3 0-.6 0-.9.1-.6.1-1.2.4-1.7.7-1.3.8-2.1 2.3-2.1 3.9 0 1 .3 1.9.8 2.7.3.5.7.9 1.2 1.2.1.1.2.1.2.1.4.3.9.5 1.4.6.3.1.6.1.9.1 1 0 1.9-.3 2.6-.8 1.3-.8 2.1-2.3 2.1-3.9s-.6-3.1-1.9-3.9zM18.2 62.1c0-.1-.1-.1-.2-.1-.7-.4-1.5-.7-2.4-.7-.6 0-1.3.1-1.8.4-1.7.7-2.9 2.4-2.9 4.3s1.2 3.6 2.9 4.3c.6.2 1.2.4 1.8.4 1 0 1.9-.3 2.6-.8 1.3-.8 2.1-2.3 2.1-3.9 0-1-.3-1.9-.8-2.6-.3-.6-.8-1-1.3-1.3z"/></g></svg>