<svg xmlns="http://www.w3.org/2000/svg" width="100" height="100" viewBox="0 0 100 100"><path fill="#4A4A4A" d="M79.853 70.536h-56.94a4.03 4.03 0 0 0-4.025 4.025v1.795a4.03 4.03 0 0 0 4.026 4.025h56.94a4.03 4.03 0 0 0 4.023-4.025V74.56a4.028 4.028 0 0 0-4.024-4.024zm2.144 5.818a2.147 2.147 0 0 1-2.145 2.144H22.914a2.147 2.147 0 0 1-2.145-2.144V74.56c0-1.182.96-2.145 2.144-2.145h56.94c1.18 0 2.144.962 2.144 2.145v1.794zm-46.9-20.64c3.458 0 6.96-1.163 6.96-3.388 0-4.45-13.92-4.45-13.92 0 0 2.225 3.502 3.39 6.96 3.39zm0-4.897c3.333 0 5.08 1.122 5.08 1.51s-1.747 1.508-5.08 1.508-5.08-1.122-5.08-1.51 1.747-1.508 5.08-1.508zm31.487 4.898c3.458 0 6.96-1.164 6.96-3.39 0-4.45-13.92-4.448-13.92 0 0 2.226 3.5 3.39 6.96 3.39zm0-4.898c3.333 0 5.08 1.122 5.08 1.51s-1.747 1.508-5.08 1.508-5.08-1.122-5.08-1.51 1.747-1.508 5.08-1.508zm16.58 13.616c-.817-3.628-1.564-6.915-1.565-6.916-1.787-8.72-3.886-11.372-10.207-12.902l-14.96-.023v-4.89H73.23c1.964 0 3.56-1.45 3.56-3.235v-16.37c0-1.784-1.596-3.236-3.56-3.236H29.233c-1.964 0-3.562 1.453-3.562 3.238v16.368c0 1.785 1.6 3.235 3.563 3.235h16.92v4.89h-14.74l-.22.025c-6.094 1.474-9.107 2.662-10.998 13.438 0 0-.584 3.042-1.228 6.443-2.647.916-5.65 4.913-5.65 7.78v7.637c0 3.24 2.316 5.877 5.16 5.877h65.63c2.846 0 5.16-2.636 5.16-5.877v-7.636c0-2.925-3.334-7.057-6.103-7.844zM29.234 37.82c-.928 0-1.683-.607-1.683-1.354V20.098c0-.747.756-1.357 1.683-1.357h43.994c.927 0 1.68.61 1.68 1.358v16.368c0 .747-.753 1.355-1.68 1.355H29.233zm25.32 1.88v6.172H48.03v-6.17h6.52zm32.833 40.212c0 2.203-1.47 3.997-3.28 3.997h-65.63c-1.808 0-3.28-1.795-3.28-3.998v-7.636c0-2.14 2.86-5.84 4.708-6.086l.673-.09.126-.666c.686-3.626 1.338-7.025 1.342-7.04 1.75-9.99 4.183-10.643 9.48-11.924h14.627v1.283h10.28V46.47H71.06c5.1 1.252 6.978 3.03 8.703 11.446 0 0 .834 3.667 1.704 7.535l.155.693.708.04c1.742.1 5.06 3.76 5.06 6.094v7.635zM51.06 64.42c3.458 0 6.96-1.164 6.96-3.39 0-4.45-13.92-4.448-13.92 0 0 2.226 3.5 3.39 6.96 3.39zm0-4.9c3.333 0 5.08 1.123 5.08 1.51s-1.747 1.51-5.08 1.51-5.08-1.123-5.08-1.51 1.747-1.51 5.08-1.51zm15.524 4.9c3.458 0 6.96-1.164 6.96-3.39 0-4.45-13.92-4.448-13.92 0 0 2.226 3.5 3.39 6.96 3.39zm0-4.9c3.333 0 5.08 1.123 5.08 1.51s-1.747 1.51-5.08 1.51-5.08-1.123-5.08-1.51 1.747-1.51 5.08-1.51zM51.06 55.716c3.458 0 6.96-1.164 6.96-3.39 0-4.45-13.92-4.448-13.92 0 0 2.226 3.5 3.39 6.96 3.39zm0-4.898c3.333 0 5.08 1.122 5.08 1.51s-1.747 1.508-5.08 1.508-5.08-1.122-5.08-1.51 1.747-1.508 5.08-1.508zM35.097 64.42c3.458 0 6.96-1.164 6.96-3.39 0-4.45-13.92-4.45-13.92 0 0 2.226 3.502 3.39 6.96 3.39zm0-4.9c3.333 0 5.08 1.123 5.08 1.51s-1.747 1.51-5.08 1.51-5.08-1.123-5.08-1.51 1.747-1.51 5.08-1.51zm-4.845-24.245h42.253V21.08H30.252v14.195zm1.88-12.314h38.492v10.435H32.132V22.96z"/></svg>