<svg xmlns="http://www.w3.org/2000/svg" width="100" height="100" viewBox="0 0 100 100"><g fill="#4A4A4A"><path d="M73.8 33.3c-.1 0-.4-.1-.8-.1-.7-4.6-4.7-8.2-9.5-8.2-.6 0-1.2.1-1.8.2-1.6-3.3-4.9-5.3-8.6-5.3-2.7 0-5.2 1.1-7 3.1-1.8-1.9-4.4-3.1-7-3.1-3.7 0-7 2.1-8.6 5.3-.6-.1-1.3-.2-1.8-.2-5.3 0-9.6 4.3-9.6 9.6-3.4 1.6-5.6 5-5.6 8.7 0 3.9 2.3 7.3 5.8 8.8-.2.7-.3 1.3-.3 1.9 0 4.2 2.7 7.8 6.5 9.1l1 18.4h6.7l1.4-12.6 1.7 12.6h6.5V67c1.3-.5 2.4-1.3 3.4-2.3.6.7 1.3 1.2 2.1 1.7l1 15.2h6.9l1.1-12 1.1 12h7.2v-18c3.6-.7 6.5-3.4 7.5-7 1.5.3 3.1.4 4.9.4h.1c5.8 0 10.9-3.9 11.6-8.9 1.1-9.3-11.9-13.7-15.9-14.8zm13.8 14.5c-.6 4-4.8 7.2-9.6 7.2h-.1c-1.7 0-3.3-.2-4.6-.4-.3-.1-.7-.1-1-.2-.3-.1-.7-.2-1-.3-2.2-.7-3.7-1.7-4.6-3.2-2.1-3.3.1-7.8.1-7.8l.8-1.7-1.8.2s-.7.1-1.7.1c-2.3 0-4.1-.5-4.9-1.4-.5-.5-.7-1.2-.6-2.1.3-3.1 6.8-3.4 9.6-3.4 1.2 0 2.2.1 3.1.1.4 0 .7.1 1 .1.602.1 1 .1 1.102.2.6.2 1.3.4 1.9.6C83.6 38.6 88.2 42.9 87.6 47.8zM64.4 61.6h-.8c-.8 0-1.6-.2-2.5-.5H61l-.7-.2-.3.6-.1.1c-.6 1.2-1.6 2.2-2.7 2.9-.7.5-1.5.8-2.3 1-.6.1-1.1.2-1.7.2-1.3 0-2.5-.3-3.6-.9-1-.5-1.9-1.3-2.6-2.3l-.8-1.1-.8 1.1c-1.1 1.6-2.8 2.6-4.6 3-.5.1-1 .2-1.6.2-1.3 0-2.5-.3-3.6-.9-.3-.2-.6-.3-.8-.5-.9-.7-1.7-1.6-2.3-2.6l-.1-.1-.4-.7-.7.2h-.1c-.9.3-1.7.5-2.5.5-.7 0-1.4-.1-2.1-.3-3.2-.8-5.6-3.8-5.6-7.3 0-.7.1-1.4.4-2.2l.3-.9-.9-.3a7.5 7.5 0 0 1-5.3-7.2c0-3.2 2-6 5-7.1l.7-.3v-.7-.3-.2c0-4.2 3.4-7.6 7.6-7.6.7 0 1.3.1 2.1.3l.9.3.3-.9c1.2-2.9 3.9-4.8 7.1-4.8 2.4 0 4.8 1.2 6.2 3.2l.8 1.1.8-1.1c1.4-2 3.8-3.2 6.2-3.2 3.1 0 5.9 1.9 7.1 4.8l.3.9.9-.3c.8-.2 1.5-.3 2.1-.3 3.6 0 6.7 2.5 7.4 5.9-.9-.1-1.9-.1-3-.1-7.2 0-11.2 1.8-11.6 5.2-.1 1.5.2 2.7 1.1 3.6 1.6 1.8 4.6 2.1 6.7 2.1-.6 1.9-1.2 5.3.6 8.2 1.2 1.9 3.2 3.3 6.1 4.1-.8 2.8-3.4 5.1-6.5 5.4zm-33 17.9h-3l-.9-15.9c.4 0 .7.1 1.1.1.8 0 1.6-.1 2.4-.3.5.8 1.2 1.5 1.9 2.1l-1.5 14zm9.4-11.9v11.9H38l-1.6-12.2c.9.3 1.8.4 2.7.4.5.1 1.1 0 1.7-.1zm13.5 11.9h-3.2l-.8-12.2c.9.3 1.9.4 2.8.4.6 0 1.2-.1 1.8-.2l.4.1-1 11.9zm9.1 0h-3.3l-1.2-13.7c.9-.7 1.7-1.5 2.3-2.5.8.2 1.5.3 2.2.3v15.9z"/><path d="M75.5 39.1c-.2 0-.4-.1-.6-.1-1.3 0-2.4 1.1-2.4 2.4 0 1.3 1.1 2.4 2.4 2.4.8 0 1.4-.3 1.9-.9.4-.4.6-1 .6-1.5 0-1.1-.8-2.1-1.9-2.3z"/></g></svg>