<svg xmlns="http://www.w3.org/2000/svg" width="100" height="100" viewBox="0 0 100 100"><path fill="#4A4A4A" d="M91.63 82.293H8.37A3.373 3.373 0 0 1 5 78.923V21.077c0-1.857 1.51-3.37 3.37-3.37H91.63c1.857 0 3.37 1.512 3.37 3.37v57.848a3.375 3.375 0 0 1-3.37 3.37zM8.37 19.055c-1.116 0-2.022.907-2.022 2.02v57.85c0 1.114.907 2.02 2.02 2.02h83.264c1.115 0 2.02-.907 2.02-2.02v-57.85c0-1.114-.906-2.02-2.02-2.02H8.37z"/><path fill="#4A4A4A" d="M86.672 77.622H15.708a.674.674 0 0 1-.674-.674V23.052c0-.372.302-.674.674-.674h70.964c.372 0 .674.302.674.674V76.95c0 .37-.302.672-.674.672zm-70.29-1.347h69.616v-52.55H16.382v52.55zM10.65 52.526c-1.393 0-2.526-1.133-2.526-2.526s1.133-2.526 2.526-2.526 2.526 1.133 2.526 2.526-1.133 2.526-2.526 2.526zm0-3.705a1.18 1.18 0 0 0 0 2.358c.65 0 1.18-.528 1.18-1.178s-.53-1.18-1.18-1.18z"/></svg>