<svg xmlns="http://www.w3.org/2000/svg" width="100" height="100" viewBox="0 0 100 100"><g fill="#8EC34A"><path d="M41.8 35.7l7.4 7.4c-.44.46-.82.91-1.27 1.37-.01-.02-.02-.05-.03-.07L38 35.5l-3.7-4.7c-.1-.2-.4-.3-.6-.3-.02 0-.04 0-.06.01-.01-.01-.03-.01-.04-.01-.3 0-.5.1-.7.3l-3.7 3.7c-.2.2-.3.4-.3.7 0 .3.1.5.3.6l4.6 3.6 9 10c.07.07.18.13.27.16.03.04.07.06.11.07-.5.49-.99 1.08-1.38 1.57L34 43.3c-5.42-5.42-8.9-8.41-10.81-9.93 1.48-.41 3.35-1.31 5.31-3.27 2-2.1 2.9-4 3.3-5.4 1.5 1.9 4.4 5.4 10 11z"/><path d="M85.1 19c1.9 1.9 1.2 5.5-2.1 10.9C79.9 35 74.6 41.3 67.9 48c-1.8 1.8-3.7 3.7-5.7 5.5l18.9 18.7c.7.7.4 2.4-.4 4.2.4.1.7.4 1 .7.8.8 1.2 1.9 1.2 3 0 1.2-.4 2.2-1.2 3-.8.8-1.9 1.2-3 1.2s-2.2-.4-3-1.2c-.3-.3-.5-.6-.7-1-1.8.9-3.5 1.1-4.2.4L56.7 68.4l-1.5-1.5-3.7-3.7c-3.6 3.2-6.1 5.398-6.2 5.398-.4.3-.9.3-1.2 0l-1.5-1.5c-.2 2.5-1.6 6.4-7 11.8-3.1 3.202-6.5 4.202-9.7 4.202-6.1 0-11.3-3.9-11.4-4-.3-.2-.5-.6-.3-1 .1-.3.5-.5.9-.5 1.9.2 2.8-1.7 4.1-5.1 1.1-2.8 2.4-6 5-8.1 3.1-2.5 6-2.3 8.5-2.2 1.7 0 3.1.1 4.3-.6l-1.7-1.7c-.3-.3-.3-.9 0-1.2 0-.1 2.2-2.6 5.4-6.2l-7.9-7.9c-9.1-9.2-12.5-11.1-12.5-11.1-.2-.1-.3-.3-.4-.5l-5.1-13.3c-.1-.2-.1-.5 0-.7.1-.3.3-.4.5-.5.1 0 .2-.1.3-.1l-1.8-1.8 1.2-1.2 1.8 1.7c0-.1.1-.2.1-.3.1-.4.6-.7 1.1-.5l13.4 5.2c.2.1.4.2.5.4 0 0 1.9 3.3 11.1 12.5l7.5 7.5c1.9-2 3.7-3.9 5.5-5.7C70.5 21.7 81.4 15.3 85.1 19zm-1.8 6.5c1.1-2.6 1.3-4.5.5-5.3-.8-.9-2.8-.7-5.6.6l5.1 4.7zm-1.2 2.6l-6.7-5.7c-4.6 2.8-10.8 7.7-18.2 15.1-5.3 5.3-11.5 12.1-15.7 16.8l8.2 8.2c4.8-4.2 11.6-10.3 17-15.6C73.4 40.2 78.6 34 81.6 29c.2-.3.3-.6.5-.9zM80.5 82c.5-.5.7-1.1.7-1.7 0-.65-.26-1.22-.63-1.61a.293.293 0 0 0-.07-.09.195.195 0 0 0-.05-.04.265.265 0 0 0-.05-.06c-.07-.14-.23-.23-.43-.34a.318.318 0 0 1-.07-.06s0 .01-.01.01c-.06-.03-.13-.07-.19-.11-.5.6-1 1.3-1.5 1.8-.5.6-1.1 1.1-1.8 1.5.05.05.09.1.13.15.07.13.19.27.32.4l.05.05c.06.06.13.12.19.18 1 .92 2.44.89 3.41-.08zm-.8-8.21c.01-.12.01-.21 0-.29L60.9 54.7l-.6-.6c-2.8 2.6-5.6 5.2-8.1 7.4l.6.6 5.1 5.1 1.32 1.32L71.9 81.2c.7.1 3.2-.6 5.2-2.6 1.78-1.69 2.53-3.87 2.6-4.81zM49.9 43.8l-.7-.7.1-.1-7.5-7.5c-5.6-5.5-8.5-9-10-10.9-.4 1.5-1.3 3.4-3.3 5.4-2.1 2-4 2.9-5.4 3.3.03.02.06.04.09.07l-.09.03c1.9 1.5 5.4 4.4 10.9 10l7.8 7.8.7.7c2.2-2.4 4.7-5.3 7.4-8.1zm-1.4 19.9l-8.1-8.1c-1.5 1.6-2.6 2.9-3.2 3.6l7.6 7.6c.7-.6 2-1.7 3.7-3.1zm-14 14c7.4-7.4 6.6-11.6 6.4-12.4l-2.5-2.5c-1.8 1.2-3.8 1.1-5.7 1-2.3-.1-4.7-.2-7.3 1.9-2.2 1.8-3.4 4.8-4.4 7.4l-.9 2.1c1.5.3 4.7 1.5 3 5.9 3.4.7 7.6.4 11.4-3.4zm-4.2-54.8v-.1l-12.1-4.6c-.2.3-.4.5-.7.8-.2.3-.5.5-.8.7l.03.08c-.01.01-.02.01-.03.02l1.79 4.6 2.81 7.4c.02 0 .04 0 .06-.01l.04.11c.9 0 3.2-.4 5.9-3.1 2.33-2.42 2.89-4.51 2.98-5.57.01-.12.02-.23.02-.33z"/><path d="M75.4 22.4l6.7 5.7c-.2.3-.3.6-.5.9-3 5-8.2 11.2-14.9 17.9-5.4 5.3-12.2 11.4-17 15.6l-8.2-8.2c4.2-4.7 10.4-11.5 15.7-16.8 7.4-7.4 13.6-12.3 18.2-15.1zM81.1 80.2c0-.52-.15-1.05-.53-1.51.37.39.63.96.63 1.61 0 .6-.2 1.2-.7 1.7-.97.97-2.41 1-3.41.08 1 .82 2.37.76 3.312-.18.398-.4.698-1 .698-1.7zM80.5 78.6c.03.03.06.06.07.09a.714.714 0 0 0-.12-.13c.02.01.03.02.05.04zM79.9 78.1c.02.02.05.05.07.06-.03-.01-.05-.03-.08-.05.01 0 .01-.01.01-.01zM79.7 73.5c.01.08.01.17 0 .29-.09.9-.84 3.05-2.6 4.81-2 2-4.5 2.7-5.2 2.6-.75-.84-6.08-6.18-12.68-12.68L57.9 67.2l-5.1-5.1c2.5-2.2 5.3-4.7 8.1-7.4l18.8 18.8zM76.53 81.45c.11.13.2.27.32.4-.13-.13-.25-.27-.32-.4z"/><path d="M60.3 54.1l.6.6c-2.8 2.7-5.6 5.2-8.1 7.4l-.6-.6c2.5-2.2 5.3-4.8 8.1-7.4zM49.2 43.1l.7.7c-2.7 2.8-5.2 5.7-7.4 8.1l-.7-.7c.39-.49.88-1.08 1.38-1.57.11.05.23.07.32.07.2 0 .4-.1.6-.3l3.7-3.7c.2-.1.3-.4.3-.6 0-.18-.08-.43-.17-.63.45-.46.83-.91 1.27-1.37z"/><path d="M47.93 44.47c.09.2.17.45.17.63 0 .2-.1.5-.3.6l-3.7 3.7c-.2.2-.4.3-.6.3-.09 0-.21-.02-.32-.07 0-.01.01-.02.02-.03a.27.27 0 0 1-.13-.04.332.332 0 0 1-.17-.16l-9-10-4.6-3.6c-.2-.2-.3-.4-.3-.6 0-.3.1-.5.3-.7l3.7-3.7c.19-.19.37-.29.64-.29.19 0 .37.1.56.29l3.7 4.7 9.9 8.9.1.1.03-.03zm-1.98.68l.05-.05-8.7-7.8-1.6 1.5 7.9 8.7 2.4-2.3-.05-.05zM36.1 36l-2.7-3.3-2.3 2.3 3.4 2.6 1.6-1.6z"/><path d="M46 45.2l-2.4 2.3 2.35-2.35zM35.8 38.8l7.8 8.7-7.9-8.7 1.6-1.5z"/><path d="M42.9 49.4c.04.07.09.13.17.16a.744.744 0 0 1-.27-.16l-9-10-4.6-3.6c-.2-.1-.3-.3-.3-.6s.1-.5.3-.7l3.7-3.7c.2-.2.4-.3.7-.3.01 0 .03 0 .04.01-.27 0-.45.1-.64.29l-3.7 3.7c-.2.2-.3.4-.3.7 0 .2.1.4.3.6l4.6 3.6 9 10zM34 43.3l7.8 7.9-7.8-7.8c-5.5-5.6-9-8.5-10.9-10l.09-.03c1.91 1.52 5.39 4.51 10.81 9.93z"/><path d="M33.4 32.7l2.7 3.3-1.6 1.6L36 36zM30.28 23.23c-.09 1.06-.65 3.15-2.98 5.57-2.7 2.7-5 3.1-5.9 3.1l-.04-.11c.94-.1 3.2-.45 5.84-3.09 2.36-2.36 2.96-4.34 3.08-5.47zM18.49 24.4l-1.79-4.6c.01-.01.02-.01.03-.02l1.76 4.62z"/></g><g fill="none" stroke="#8EC34A" stroke-miterlimit="10"><path d="M18.49 24.4l2.87 7.39M30.3 22.9l-12.1-4.6c-.2.3-.4.6-.7.8-.29.29-.49.49-.77.68M80.45 78.56c-.16-.16-.32-.25-.48-.4M79.89 78.11c-.39.7-.89 1.29-1.49 1.79s-1.2 1-1.9 1.5c.01.02.02.03.03.05M45.95 45.15L37.3 37.3M49.2 43.1l-7.4-7.4c-5.6-5.6-8.5-9.1-10-11-.4 1.4-1.3 3.3-3.3 5.4-1.96 1.96-3.83 2.86-5.31 3.27"/><path d="M33.64 30.51c.02-.01.04-.01.06-.01.2 0 .5.1.6.3l3.7 4.7 9.9 8.9c.01.02.02.05.03.07M43.18 49.63a.19.19 0 0 1-.11-.07M77.1 78.6c1.76-1.76 2.51-3.91 2.6-4.81M59.22 68.52c6.6 6.5 11.93 11.84 12.68 12.68"/><path d="M83 29.9c3.3-5.4 4-9 2.1-10.9-3.7-3.7-14.6 2.7-29.1 17.2-1.8 1.8-3.6 3.7-5.5 5.7L43 34.4c-9.2-9.2-11.1-12.5-11.1-12.5-.1-.2-.3-.3-.5-.4L18 16.3c-.5-.2-1 .1-1.1.5 0 .1-.1.2-.1.3L15 15.4l-1.2 1.2 1.8 1.8c-.1 0-.2.1-.3.1-.2.1-.4.2-.5.5-.1.2-.1.5 0 .7L19.9 33c.1.2.2.4.4.5 0 0 3.4 1.9 12.5 11.1l7.9 7.9c-3.2 3.6-5.4 6.1-5.4 6.2-.3.3-.3.9 0 1.2l1.7 1.7c-1.2.7-2.6.6-4.3.6-2.5-.1-5.4-.3-8.5 2.2-2.6 2.1-3.9 5.3-5 8.1-1.3 3.4-2.2 5.3-4.1 5.1-.4 0-.8.2-.9.5-.2.4 0 .802.3 1 .1.102 5.3 4 11.4 4 3.2 0 6.6-1 9.7-4.198 5.4-5.4 6.8-9.3 7-11.8l1.5 1.5c.3.3.8.3 1.2 0 .1 0 2.6-2.2 6.2-5.4l3.7 3.7 1.5 1.5L70.8 82.5c.7.7 2.4.5 4.2-.4.2.4.4.7.7 1 .8.8 1.9 1.2 3 1.2s2.2-.4 3-1.2c.8-.8 1.2-1.8 1.2-3 0-1.1-.4-2.2-1.2-3-.3-.3-.6-.6-1-.7.8-1.8 1.1-3.5.4-4.2L62.2 53.5c2-1.8 3.9-3.7 5.7-5.5 6.7-6.7 12-13 15.1-18.1z"/><path d="M83.8 20.2c.8.8.6 2.7-.5 5.3l-5.1-4.7c2.8-1.3 4.8-1.5 5.6-.6zM16.73 19.78l-.03-.08c.3-.2.6-.4.8-.7.3-.3.5-.5.7-.8l12.1 4.6v.1c0 .1-.01.21-.02.33-.12 1.13-.72 3.11-3.08 5.47-2.64 2.64-4.9 2.99-5.84 3.09-.02.01-.04.01-.06.01l-2.81-7.4-1.76-4.62zM41.8 51.2L34 43.3c-5.42-5.42-8.9-8.41-10.81-9.93a.55.55 0 0 0-.09-.07c1.4-.4 3.3-1.3 5.4-3.3 2-2 2.9-3.9 3.3-5.4 1.5 1.9 4.4 5.4 10 10.9l7.5 7.5-.1.1c-.44.46-.82.91-1.27 1.37l-.03.03-.1-.1-9.9-8.9-3.7-4.7c-.19-.19-.37-.29-.56-.29-.01-.01-.03-.01-.04-.01-.3 0-.5.1-.7.3l-3.7 3.7c-.2.2-.3.4-.3.7 0 .3.1.5.3.6l4.6 3.6 9 10c.07.07.18.13.27.16.05.03.1.04.13.04-.01.01-.02.02-.02.03-.5.49-.99 1.08-1.38 1.57z"/><path d="M37.3 37.3l8.7 7.8-.05.05-2.35 2.35-7.8-8.7zM34.5 37.6L31.1 35l2.3-2.3L36 36zM34.5 77.7c-3.8 3.8-8 4.1-11.4 3.4 1.7-4.4-1.5-5.6-3-5.9l.9-2.1c1-2.6 2.2-5.6 4.4-7.4 2.6-2.1 5-2 7.3-1.9 1.9.1 3.9.2 5.7-1l2.5 2.5c.2.8 1 5-6.4 12.4zM44.8 66.8l-7.6-7.6c.6-.7 1.7-2 3.2-3.6l8.1 8.1c-1.7 1.4-3 2.5-3.7 3.1zM79.97 78.16c.2.11.36.2.43.34.02.02.04.04.05.06.05.04.09.09.12.13.38.46.53.99.53 1.51 0 .7-.3 1.3-.7 1.7-.94.94-2.31 1-3.31.18-.06-.06-.13-.12-.19-.18l-.05-.05c-.12-.13-.21-.27-.32-.4-.04-.05-.08-.1-.13-.15.7-.398 1.3-.898 1.8-1.5.5-.5 1-1.2 1.5-1.8.06.04.13.08.19.11.03.02.05.04.08.05zM60.9 54.7l18.8 18.8c.01.08.01.17 0 .29-.07.94-.82 3.12-2.6 4.81-2 2-4.5 2.7-5.2 2.6L59.22 68.52 57.9 67.2l-5.1-5.1c2.5-2.2 5.3-4.7 8.1-7.4zM49.7 62.5l-8.2-8.2c4.2-4.7 10.4-11.5 15.7-16.8 7.4-7.4 13.6-12.3 18.2-15.1l6.7 5.7c-.2.3-.3.6-.5.9-3 5-8.2 11.2-14.9 17.9-5.4 5.3-12.2 11.4-17 15.6z"/></g></svg>