<svg xmlns="http://www.w3.org/2000/svg" width="100" height="100" viewBox="0 0 100 100"><path fill="#4A4A4A" d="M85.806 31.277c-.012-.02-.026-.038-.04-.058a20.712 20.712 0 0 0-1.638-1.95c-3.26-3.4-7.55-5.55-12.31-6.276-.018-.005-.03-.02-.048-.023-.06-.015-.12-.005-.182-.01a23.76 23.76 0 0 0-3.353-.26c-3.775 0-7.563.92-11.073 2.575a1 1 0 0 0-.444.21 28.252 28.252 0 0 0-7.05 4.913c-4.932 4.727-7.924 10.896-8.424 17.367-.354 4.575.59 8.903 2.647 12.625.025.048.035.097.06.146.01.02.032.026.043.045a20.894 20.894 0 0 0 3.097 4.2c3.26 3.4 7.545 5.55 12.303 6.277.02.006.034.02.055.027.084.022.17.032.253.032.01 0 .02-.01.03-.01 1.065.147 2.146.248 3.253.248 4.786 0 9.598-1.456 13.824-4.06.035-.02.076-.01.11-.034.046-.033.08-.072.127-.106a28.235 28.235 0 0 0 4.507-3.5c9.5-9.108 11.15-23.09 4.256-32.377zM72.27 25.11c4.017.763 7.617 2.672 10.392 5.565.13.136.238.287.364.426-3.14.7-9.516 2.673-11.33 7.327a71.583 71.583 0 0 0-2.645-.746l3.22-12.57zm-4.036-.38c.68 0 1.35.034 2.012.095L67.08 37.19c-.983-.228-1.93-.43-2.84-.605.63-4.65-2.827-8.33-4.897-10.072 2.86-1.156 5.883-1.783 8.89-1.783zm-17.16 7.136a26.253 26.253 0 0 1 6.197-4.4c1.413 1.055 5.47 4.5 4.97 8.76-7.47-1.182-12.282-.51-14.96.223a26.47 26.47 0 0 1 3.793-4.584zM43.27 47.922c.233-3.024 1.064-5.977 2.416-8.726.002 0 .004 0 .005-.002.056-.03 4.777-2.675 15.873-1.007-1.312 2.157-4.56 4.87-7.744 7.517-4.022 3.342-8.12 6.758-9.708 10.03a21.084 21.084 0 0 1-.842-7.812zm15.678 21.02c-4.018-.764-7.618-2.674-10.392-5.568a18.85 18.85 0 0 1-2.843-3.882c-1.503-3.156 4.283-7.97 9.404-12.227 3.733-3.1 7.28-6.053 8.57-8.715.923.173 1.884.375 2.888.61L58.948 68.94zm16.94-3.463c-3.942 2.465-8.44 3.84-12.905 3.84-.68 0-1.35-.033-2.01-.094l7.574-29.578c.943.248 1.84.503 2.695.766-.143 2.846 1.33 6.747 2.88 10.847 2.14 5.666 4.55 12.066 1.765 14.22zm4.256-3.294c-.317.304-.657.576-.986.86.277-3.442-1.443-8.02-3.137-12.503-1.317-3.486-2.653-7.054-2.74-9.467 10.62 3.69 13.57 8.237 13.6 8.284.11.187.28.307.464.39-1.076 4.497-3.48 8.87-7.2 12.436zm-6.51-23.146c1.74-4.164 8.71-5.764 10.813-6.154 2.913 4.144 4.003 9.254 3.35 14.373-1.532-1.735-5.494-5.274-14.163-8.22zM42.108 66.532c-4.038 2.882-6.423 5.376-7.816 7.405-2.353-28.216-21.553-48.17-21.76-48.38a1.016 1.016 0 0 0-1.452 1.42c.21.217 20.727 21.566 21.4 51.108-.153 1.01.01 1.627.066 1.797a1.015 1.015 0 0 0 1.98-.317c0-.417-.003-.83-.01-1.244.275-1.596 1.754-5.127 8.772-10.135a1.015 1.015 0 0 0-1.18-1.653z"/></svg>