<svg xmlns="http://www.w3.org/2000/svg" viewBox="0 0 100 100" height="100" width="100"><g fill="#4A4A4A"><path d="M77.134 47.09c-1.67 0-3.28.252-4.804.704-4.337-11.647-10.216-26.658-12.105-27.806-1.728-1.05-3.785-.187-4.59.232-1.05.545-1.598 1.08-1.63 1.586a.775.775 0 0 0 .72.825c.338.006.635-.17.762-.46.4-.412 2.553-1.7 3.927-.86.88.627 3.27 6.033 6.098 13.103-.323 1.404-3.787 14.605-20.873 24.56l-7.044-19.31a11.18 11.18 0 0 0 1.203-.373c2.296-.9 5.907-3.57 6.06-3.683a.776.776 0 0 0-.46-1.397H27.86a.774.774 0 0 0-.742 1c.962 3.156 3.51 4.894 7.174 4.894.608 0 1.195-.06 1.762-.14l7.217 19.788c-.296.163-.61.32-.913.48a19.49 19.49 0 0 0-3.308-7.538c-3.593-4.97-9.375-7.94-15.864-8.145-13.125-.457-17.13 10.46-17.17 10.568a.775.775 0 0 0 .732 1.035c.022 0 .632.003 1.56.05a16.928 16.928 0 0 0-1.95 7.836c0 9.344 7.603 16.948 16.95 16.948 9.084 0 16.5-7.19 16.908-16.174h1.777a.77.77 0 0 0 .774-.78 19.82 19.82 0 0 0-.14-2.088c.068-.007.134-.012.2-.037 14.915-5.81 22.968-16.643 25.437-20.45.864 2.25 1.736 4.556 2.59 6.848-6.245 2.5-10.674 8.603-10.674 15.73 0 9.346 7.603 16.95 16.95 16.95s16.948-7.604 16.948-16.95-7.6-16.948-16.946-16.948zM29 35.76h12.93c-1.17.775-2.623 1.666-3.697 2.086-.873.342-2.367.708-3.938.708-2.58 0-4.356-.94-5.294-2.795zm-5.69 43.678c-8.49 0-15.4-6.908-15.4-15.4 0-2.684.702-5.328 2.03-7.643l-.17-.097c2.744.223 6.646.792 8.55 2.246a9.046 9.046 0 0 1 2.203 2.44c-.858.784-1.378 1.875-1.378 3.056a4.17 4.17 0 0 0 4.165 4.165c2.03 0 3.72-1.463 4.086-3.39H38.67c-.408 8.13-7.13 14.623-15.36 14.623zm-2.04-17.01c.392.973.493 1.683.495 1.698.045.39.377.688.77.688h3.26a2.61 2.61 0 0 1-2.485 1.84 2.618 2.618 0 0 1-2.615-2.615c0-.597.215-1.157.574-1.613zm1.907.836a10.68 10.68 0 0 0-3.916-5.953c-2.78-2.12-8.778-2.58-11.334-2.68 1.27-2.527 5.415-8.82 15.215-8.534 6.006.192 11.35 2.927 14.657 7.505a17.917 17.917 0 0 1 3.403 9.663H23.177zM55.432 52.97c7.002-6.504 9.906-12.938 11.014-16.205.37.943.747 1.906 1.127 2.887-.797 1.358-4.658 7.503-12.14 13.32zM77.134 79.44c-8.49 0-15.4-6.908-15.4-15.4 0-6.463 4.01-12 9.667-14.28a901.31 901.31 0 0 1 3.858 10.584c-1.35.69-2.288 2.08-2.288 3.697a4.17 4.17 0 0 0 4.165 4.164A4.17 4.17 0 0 0 81.3 64.04a4.17 4.17 0 0 0-4.165-4.166c-.132 0-.256.027-.385.04a970.638 970.638 0 0 0-3.877-10.66 15.34 15.34 0 0 1 4.262-.614c8.49 0 15.4 6.908 15.4 15.4s-6.91 15.398-15.4 15.398zm0-18.014c1.442 0 2.615 1.173 2.615 2.615s-1.174 2.614-2.616 2.614-2.615-1.173-2.615-2.615 1.172-2.616 2.614-2.616z"/><path d="M72.346 43.92a.777.777 0 0 0 .806.452c2.396-.306 4.28-1.346 5.605-3.09 2.828-3.73 2.043-9.333 2.008-9.57a.775.775 0 0 0-.767-.662h-12.2a.78.78 0 0 0-.65.353.782.782 0 0 0-.06.737l5.258 11.78zm6.95-11.32c.105 1.503.14 5.23-1.777 7.75-.96 1.262-2.303 2.066-4 2.395L68.992 32.6h10.304z"/></g></svg>