<svg xmlns="http://www.w3.org/2000/svg" width="100" height="100" viewBox="0 0 100 100"><path fill="#4A4A4A" d="M38.432 36.877a3.407 3.407 0 1 0 0 6.813 3.407 3.407 0 0 0 0-6.813zm23.247 0a3.407 3.407 0 1 0-.002 6.813 3.407 3.407 0 0 0 0-6.813zM49.787 10.465c-21.853 0-39.63 17.78-39.63 39.63 0 21.853 17.777 39.63 39.63 39.63s39.63-17.777 39.63-39.63c0-21.852-17.777-39.63-39.63-39.63zm0 76.59c-20.38 0-36.96-16.58-36.96-36.96 0-20.38 16.58-36.96 36.96-36.96 20.38 0 36.962 16.58 36.962 36.96 0 20.38-16.582 36.96-36.962 36.96zm8.51-24.146H42.652a1.334 1.334 0 0 0 0 2.67H58.3a1.334 1.334 0 0 0-.002-2.67z"/></svg>