<svg xmlns="http://www.w3.org/2000/svg" viewBox="0 0 100 100" height="100" width="100"><path fill="#4A4A4A" d="M47.8 68.8H7.2V36.7h54.3v2H9.2v28.1h38.6z"/><path fill="#4A4A4A" d="M50.5 82.2c-1.6 0-2.9-.5-2.9-.5l-1.2-.4 14.1-20.2L37 53.7l.7-1.1c.1-.2 2.6-4.1 7.1-3.8 3.5.2 16.9 4.5 20.4 5.6 1.8-2.4 3.5-4.5 5-6v-.1l.5-.4c.2-.1.3-.3.5-.4-.8-.5-1.4-1.1-1.9-1.8-1.1-1.5-1.5-3.5-1.2-5.4.4-1.9 1.4-3.5 3-4.6.6-.4 1.3-.8 2-1 .8-.3 1.6-.4 2.4-.4 2.3 0 4.4 1.1 5.7 2.9 1.8 2.5 1.7 5.9-.2 8.4-.8 1.1-3.1 2.9-3.8 3.4-1.4 1.2-3.3 3-4.4 5.2-.6 1.1-1 2.2-1.4 3.4 1 .7 2.1 1.3 3.2 1.8 2.2 1 4.8 1.3 6.7 1.4h.8c2.1 0 3.5.1 4.3.4 3 .9 5.1 3.5 5.2 6.5.1 3.1-1.9 5.8-4.9 6.9-.7.2-1.5.4-2.2.4h-.2c-1.8 0-3.6-.7-5-1.9-1.5-1.3-2.3-3.1-2.3-5 0-.9.1-1.8.4-2.6-.2 0-.4 0-.6-.1h-.1c-2.3-.3-5.1-.9-8.3-1.8-2.1 3-10.1 14.5-12.7 16.8-1.6 1.1-3.3 1.8-5.2 1.8zm-.9-2.1c.3 0 .6.1.9.1 1.4 0 2.7-.4 3.6-1.3 2.2-1.9 9.1-11.6 12.8-17.1l.4-.6.7.2c3.4 1 6.3 1.6 8.6 1.9h.1c.3 0 .6.1.9.1h.1c.7.2 1.2.5 1.5.9.2.4.2.8 0 1.2l-.1.2c-.3.7-.4 1.4-.4 2.1 0 1.4.6 2.6 1.7 3.5 1 .9 2.3 1.4 3.6 1.4h.2c.6 0 1.1-.1 1.6-.3 2.2-.7 3.6-2.7 3.5-4.9-.1-2.2-1.6-4.1-3.8-4.7-.6-.2-2-.3-3.7-.3H81c-2.1-.1-5-.5-7.5-1.6-1.4-.7-2.8-1.5-4.1-2.4l-.6-.4.2-.7c.5-1.5 1.1-3 1.8-4.4 1.2-2.2 3-4.2 4.5-5.5v-.1l.4-.3c1.3-1 2.9-2.3 3.4-3 1.4-1.9 1.5-4.3.2-6.1-.9-1.3-2.4-2-4.1-2-.6 0-1.2.1-1.8.3-.5.2-1 .4-1.5.8-1.2.8-1.9 2-2.2 3.4-.3 1.4 0 2.7.8 3.8.4.6 1 1.1 1.6 1.4l.2.1c.4.2.6.6.7 1 .1.5-.1 1.1-.6 1.6l-.1.1-.6.6-.1.1c-1.7 1.7-3.6 4-5.7 6.8l-.4.6-.7-.2c-6.3-2-17.6-5.5-20.6-5.7-2-.1-3.5.9-4.4 1.8L63.6 60l-14 20.1zM84 71.8c-1.2 0-2.3-.4-3.1-1.2-.9-.8-1.4-1.9-1.4-3-.1-1.9 1.2-3.6 3-4.2.5-.2.9-.2 1.4-.3h.1c2.5 0 4.5 1.8 4.6 4.2.1 1.9-1.2 3.6-3 4.2-.5.2-.9.2-1.4.3H84zm0-6.7c-.4 0-.7.1-.9.1-1 .4-1.7 1.3-1.7 2.2 0 .6.3 1.2.8 1.6.5.4 1.1.7 1.8.7.4 0 .7-.1.9-.1 1-.4 1.7-1.3 1.7-2.2-.1-1.3-1.2-2.3-2.6-2.3zm-9-19c-1.4 0-2.7-.6-3.5-1.7-.7-.9-.9-2.1-.7-3.2.2-1.2.9-2.2 1.9-2.9.4-.3.8-.5 1.3-.7 1.9-.6 3.9 0 5 1.5.7.9.9 2.1.7 3.3-.2 1.2-.9 2.2-1.9 2.9-.4.3-.8.5-1.3.7-.5 0-1 .1-1.5.1zm.5-6.8c-.3 0-.6 0-.9.1-.3.1-.5.2-.7.4-.6.4-1 1-1.1 1.7-.1.6 0 1.2.4 1.7.6.8 1.7 1.1 2.7.8.3-.1.5-.2.7-.4.6-.4 1-1 1.1-1.7.1-.6 0-1.2-.4-1.7-.4-.6-1.1-.9-1.8-.9zM52.2 33.5h-45V19.9h45v13.6zm-43-2h41v-9.6h-41v9.6z"/><g><path fill="#4A4A4A" d="M73.1 33.5h-18V19.9H73v13.6zm-16-2H71v-9.6H57.1v9.6z"/></g></svg>