<svg xmlns="http://www.w3.org/2000/svg" viewBox="0 0 100 100" height="100" width="100"><g fill="#4A4A4A"><path d="M14.9 15.8l34.5 34.7M49.4 51.5c-.3 0-.5-.1-.7-.3L14.2 16.5c-.4-.4-.4-1 0-1.4.4-.4 1-.4 1.4 0l34.5 34.6c.4.4.4 1 0 1.4-.1.3-.4.4-.7.4zM49.4 50.5L14.9 85.1"/><path d="M14.9 86.1c-.3 0-.5-.1-.7-.3-.4-.4-.4-1 0-1.4l34.5-34.6c.4-.4 1-.4 1.4 0 .4.4.4 1 0 1.4L15.6 85.8c-.2.2-.4.3-.7.3z"/><g><path d="M50 15.8l34.6 34.7M84.6 51.5c-.3 0-.5-.1-.7-.3L49.3 16.5c-.4-.4-.4-1 0-1.4.4-.4 1-.4 1.4 0l34.5 34.6c.4.4.4 1 0 1.4-.1.3-.4.4-.6.4z"/></g><g><path d="M84.6 50.5L50 85.1M50 86.1c-.3 0-.5-.1-.7-.3-.4-.4-.4-1 0-1.4l34.5-34.6c.4-.4 1-.4 1.4 0 .4.4.4 1 0 1.4L50.8 85.8c-.2.2-.5.3-.8.3z"/></g></g></svg>