<svg xmlns="http://www.w3.org/2000/svg" viewBox="0 0 100 100" height="100" width="100"><g fill="#4A4A4A"><path d="M40.3 39.8h-.1C30.5 38.5 27 36.6 23 34.3c-.8-.5-1.7-.9-2.6-1.4l-.6-.3c-2-1-3.3-1.7-5.1-1.7-.7 0-1.4.1-2.3.3-1.3.3-1.9 1.1-1.9 2.4 0 .6-.5 1.1-1 1.1-.4 0-.9-.4-1-.9-.1-.4-1.7-7.6 4.5-17.2 1.5-2.3 4-3.5 7.2-3.5 3.6 0 7 1.5 8.3 2.1 6 2.9 14.6 10.9 15 11.2.3.3.4.8.2 1.2-2.9 5.5-2.4 11.1-2.4 11.1 0 .3-.1.6-.3.8-.2.2-.5.3-.7.3zM14.7 28.9c2.2 0 3.9.9 6 1.9l.6.3c1 .5 1.8 1 2.7 1.5 3.7 2 6.9 3.8 15.2 5.1 0-2 .3-6.1 2.3-10.3-2-1.8-9.1-8-13.9-10.4-.9-.4-4.1-1.9-7.4-1.9-2.5 0-4.4.9-5.5 2.6-3.3 5.1-4.2 9.5-4.4 12.3.5-.3 1-.6 1.6-.7 1-.3 1.9-.4 2.8-.4z"/><path d="M27.3 41.3h-1.9C15 41 9.3 38.5 8.4 33.8c-.1-.5.2-1.1.8-1.2.5-.1 1.1.2 1.2.8 1.5 7.5 21.8 6.2 29.5 5.1.5-.1 1.1.3 1.1.8.1.5-.3 1.1-.8 1.1-.1 0-6.2.9-12.9.9z"/><path d="M31 86.5c-.4 0-.7-.2-.9-.5L18.7 66.4c-.1-.2-.1-.3-.1-.5 0-.4.2-9.3 4.1-16.1 2.7-4.8 5.8-8.3 9.2-10.4.5-.3 1.1-.1 1.4.3s.1 1.1-.3 1.4c-3.9 2.3-6.7 6.5-8.5 9.6-3.2 5.8-3.7 13.4-3.8 14.9l10 17.1c1.5-6.9 5.6-25.8 7.1-29.8 2-5.2 4.4-10.8 8.6-11.1.5 0 1 .4 1.1.9 0 .6-.4 1-.9 1.1-2.8.2-5 4.8-6.9 9.8-2 4.8-7.7 31.8-7.7 32.1-.1.4-.4.7-.8.8H31zM59.7 39.8c-.3 0-.5-.1-.7-.3-.2-.2-.3-.5-.3-.8 0-.1.5-5.6-2.4-11.1-.2-.4-.1-.9.2-1.2.4-.3 9-8.3 15-11.2 1.3-.6 4.7-2.1 8.3-2.1 3.2 0 5.7 1.2 7.2 3.5 6.2 9.6 4.6 16.9 4.6 17.2-.2.8-.7.9-1 .9-.6 0-1-.5-1-1.1 0-1.3-.6-2-1.9-2.4-.9-.2-1.6-.3-2.3-.3-1.7 0-3.1.7-5.1 1.7l-.6.3c-.9.5-1.8 1-2.6 1.4-4 2.2-7.5 4.2-17.1 5.5h-.3zm-1.2-12.5c2 4.2 2.3 8.3 2.3 10.3 8.3-1.2 11.5-3 15.2-5.1.9-.5 1.7-1 2.7-1.5l.6-.3c2.1-1.1 3.8-1.9 6-1.9.9 0 1.8.1 2.8.4.6.2 1.2.4 1.6.7-.2-2.8-1.1-7.2-4.4-12.3-1.1-1.7-3-2.6-5.5-2.6-3.2 0-6.5 1.4-7.4 1.9-4.8 2.4-11.9 8.6-13.9 10.4z"/><path d="M72.7 41.3c-6.7 0-12.8-.9-12.8-.9-.5-.1-.9-.6-.8-1.1s.6-.9 1.1-.8c7.7 1.1 28 2.5 29.5-5.1.1-.5.6-.9 1.2-.8.5.1.9.6.8 1.2-.9 4.7-6.7 7.3-17 7.5h-2z"/><path d="M69 86.5h-.2c-.4-.1-.7-.4-.8-.8-.1-.3-5.8-27.3-7.6-32.1-1.9-5-4-9.6-6.9-9.8-.6 0-1-.5-.9-1.1 0-.6.5-1 1.1-.9 4.2.3 6.6 5.9 8.6 11.1 1.5 4.1 5.6 22.9 7.1 29.8l10-17.1c-.1-1.5-.6-9.2-3.8-14.9-1.7-3.1-4.6-7.3-8.5-9.6-.5-.3-.6-.9-.3-1.4.3-.5.9-.6 1.4-.3 3.4 2 6.5 5.5 9.2 10.4 3.8 6.8 4.1 15.7 4.1 16.1 0 .2 0 .4-.1.5L69.9 86c-.2.3-.5.5-.9.5z"/><path d="M50.3 44h-.9c-2.7 0-9-.5-10.1-5-1.3-5 2.4-12.1 2.6-12.4.2-.4.6-.6 1-.5 0 0 4.7.3 6.5.3h1c1.9 0 6.5-.3 6.5-.3.4 0 .8.2 1 .5.1.3 3.8 7.4 2.5 12.4-1.1 4.5-7.4 5-10.1 5zm-.5-2h.5c1.2 0 7.3-.2 8.2-3.5.9-3.5-1.3-8.7-2.1-10.4-1.5.1-4.8.3-6.2.3H49.6c-1.4.1-4.8-.2-6.2-.3-.8 1.7-3 6.9-2.1 10.4.8 3.3 6.9 3.5 8.2 3.5h.3z"/></g></svg>