<svg xmlns="http://www.w3.org/2000/svg" width="100" height="100" viewBox="0 0 100 100"><path fill="#4A4A4A" d="M40.928 18.54c2.385 0 4.326-2.02 4.326-4.498s-1.942-4.497-4.326-4.497c-2.387 0-4.328 2.018-4.328 4.497s1.942 4.497 4.328 4.497zm0-6.917c1.24 0 2.248 1.086 2.248 2.42 0 1.332-1.01 2.418-2.248 2.418-1.24 0-2.25-1.085-2.25-2.418 0-1.333 1.01-2.42 2.25-2.42zM15.79 41.226h50.56a1.04 1.04 0 0 0 0-2.078H15.79a1.04 1.04 0 0 0 0 2.078zM92.356 30.2a3.416 3.416 0 0 0-1.478-2.186l-5.137-3.396c-1.535-1.022-3.768-.554-4.77.97L73.31 37.01V22.438a5.94 5.94 0 0 0-5.933-5.934H59.77c-.162 0-.31.045-.448.11-.967-.298-2.018-.483-3.17-.483l-4.785.002c-1.678-.117-1.73-.862-1.746-1.11a2.573 2.573 0 0 0-.146-.744c-.072-4.95-3.722-8.665-8.546-8.665-4.873 0-8.55 3.79-8.55 8.816l.002.593c-.017.247-.068.992-1.673 1.107H25.36c-1.263 0-2.42.2-3.457.56a1.012 1.012 0 0 0-.56-.188h-7.207a5.94 5.94 0 0 0-5.934 5.934V87.12a5.94 5.94 0 0 0 5.934 5.935h53.24a5.94 5.94 0 0 0 5.935-5.934V60.967c0-.14-.028-.274-.08-.397l18.623-27.782a3.424 3.424 0 0 0 .502-2.587zM25.36 18.21l5.42-.003c2.18-.153 3.552-1.29 3.676-3.11v-.667c0-3.84 2.783-6.738 6.472-6.738 3.69 0 6.47 2.898 6.47 6.84 0 .21.064.412.18.582-.035-.042-.04-.05-.03.055.12 1.747 1.494 2.884 3.746 3.04h4.86c3.24 0 6.708 1.613 6.708 6.197 0 4.422-3.37 6.402-6.71 6.402H25.36c-3.34 0-6.707-1.98-6.707-6.456 0-4.53 3.463-6.145 6.706-6.145zm45.873 68.91a3.86 3.86 0 0 1-3.856 3.857h-53.24a3.86 3.86 0 0 1-3.856-3.856V22.438a3.86 3.86 0 0 1 3.857-3.856h4.708c-1.435 1.44-2.27 3.432-2.27 5.826 0 4.993 3.613 8.48 8.784 8.48h30.793c5.174 0 8.786-3.487 8.786-8.533 0-2.364-.834-4.34-2.265-5.772h4.702a3.86 3.86 0 0 1 3.856 3.857V39.9c0 .056.024.107.033.162l-5.967 8.9c-.038-.003-.07-.02-.107-.02H15.79a1.04 1.04 0 0 0 0 2.077h48.13l-4.713 7.03H15.79a1.04 1.04 0 0 0 0 2.08h42.023l-5.018 7.485H15.79a1.04 1.04 0 0 0 0 2.078h36.414c-.12 1.292-.106 3.052-.024 4.914-.014.078-.056.148-.05.23l.153 2.572H15.79a1.04 1.04 0 0 0 0 2.077H53.46c.11 0 .224-.02.332-.055 4.013-1.35 8.957-3.206 9.72-4.362l7.723-11.52v23.57zm-17.02-16.958l6.554 4.33c-.898.438-2.25 1-3.76 1.576l-2.757-1.822c-.064-1.628-.082-3.1-.037-4.084zm35.91-38.526l-27.76 41.42-7.426-4.905 27.76-41.41a1.365 1.365 0 0 1 1.898-.387l5.137 3.396c.307.2.515.51.588.868.072.356.002.72-.196 1.018z"/></svg>