<svg xmlns="http://www.w3.org/2000/svg" viewBox="0 0 100 100" height="100" width="100"><g fill="#4A4A4A"><path d="M36.7 18.9c-.1 0-.2 0-.3-.1-.5-.2-.8-.8-.6-1.3.1-.3 2.4-6.6 7.2-7.4 2.7-.4 8.6.5 10 3.1.3.5.1 1.1-.4 1.4-.5.3-1.1.1-1.4-.4-.7-1.4-5.5-2.5-7.9-2.1-3.7.6-5.7 6-5.7 6.1-.1.4-.5.7-.9.7zM74.6 90.3c-.4 0-.9-.3-1-.8l-5.5-21.7c-.1-.2 0-.5.1-.7 3.3-6.6 8.4-17.2 8.7-19.1.1-.4.2-.9.3-1.5.7-3.3 2.1-9.3-1.5-11.8-4.4-3-7.6-5.9-10-8-1.4-1.2-2.9-2.5-3.3-2.7-.7-.2-4.4.9-6.3 1.5-2.3.7-3.6 1-4.2 1-1.4 0-5.2.5-6.2 1.7-.2.2-.2.4-.2.5.4 3.1 1.7 6.4 7.4 7.4 5.5 1 5.9.4 7.7-2.7l.5-.8c.3-.5.9-.6 1.4-.4.5.3.6.9.4 1.4l-.5.8c-2.1 3.7-3.2 4.9-9.8 3.7-7.1-1.3-8.5-5.8-9-9.1-.1-.8.1-1.5.6-2.1 1.9-2.2 7.7-2.4 7.8-2.4.4 0 2.2-.5 3.7-.9 3.9-1.1 6.3-1.8 7.4-1.4.8.3 1.9 1.1 4.1 3.1 2.3 2.1 5.6 4.9 9.8 7.9 4.7 3.3 3.2 10.2 2.3 13.9-.1.6-.2 1.1-.3 1.4-.4 2.7-7.3 16.5-8.7 19.3l5.4 21.4c.1.5-.2 1.1-.7 1.2-.2-.1-.3-.1-.4-.1z"/><path d="M68.4 43.6c-6.3 0-11.2-4.3-11.6-6.1-.1-.5.2-1.1.8-1.2.5-.1 1.1.2 1.2.8.2.8 4.2 4.7 10 4.6.5 0 1 .4 1 1s-.4 1-1 1c-.2-.1-.3-.1-.4-.1z"/><path d="M50.3 54.8c-.6 0-1-.4-1-1 0-.3.1-8.2 8.4-16.5.4-.4 1-.4 1.4 0s.4 1 0 1.4c-7.7 7.6-7.8 15-7.8 15.1 0 .5-.5 1-1 1zM41.4 93.6c-.5 0-1-.4-1-1 0-4.5-1.2-16.9-5.7-20.1-11.4-8-16.6-22.2-15.7-31.4 1.1-11.2 6.9-11.7 8-11.7h.3c2 0 5.6-.1 8.3 6.9 1 2.5 1.8 4.4 2.3 5.8 1.1 2.5 1.5 3.7 1.5 4.8 0 1.7-1.1 4.8-5.4 5.8-4.4 1-8.8-5.4-9.7-8.1-.9-2.6-1.4-4.3-1.4-4.4-.2-.5.1-1.1.7-1.2.5-.2 1.1.1 1.2.7 0 0 .5 1.8 1.4 4.3.9 2.6 4.8 7.4 7.4 6.8 3.1-.7 3.9-2.7 3.9-3.8 0-.8-.5-1.9-1.4-4-.6-1.4-1.4-3.3-2.4-5.8-2.2-5.7-4.6-5.7-6.5-5.7h-.3c-.5 0-5.1.3-6 9.9-.9 8.7 4 22 14.8 29.6 6.3 4.4 6.5 21 6.5 21.7.2.5-.2.9-.8.9z"/><path d="M27 30.9h-.1c-.5-.1-.9-.6-.9-1.1 0-.4 1.2-8.6 6.2-11.5 2.1-1.2 7.5-.6 9.5 1.6 1.8 1.9 3.6 7.2 3.8 7.8.2.5-.1 1.1-.6 1.3-.5.2-1.1-.1-1.3-.6-.5-1.5-2.1-5.7-3.3-7.1-1.4-1.5-5.8-1.9-7-1.2-4.1 2.4-5.2 10-5.2 10-.1.4-.6.8-1.1.8zM41.9 47.3c-.4 0-.7 0-1.1-.1-2.5-.7-5.5-6.8-6.4-8.7-.2-.5 0-1.1.5-1.3.5-.2 1.1 0 1.3.5 1.6 3.4 4 7.3 5.1 7.6.9.2 2.4-.2 3.5-1.1 1-.7 1.6-1.7 1.6-2.5 0-2.6-1.1-7.5-1.1-7.6-.1-.5.2-1.1.8-1.2.5-.1 1.1.2 1.2.8 0 .2 1.2 5.2 1.1 8 0 1.4-.9 2.9-2.4 4.1-1.2.9-2.8 1.5-4.1 1.5zM74.3 33.5c-.4 0-.8-.3-.9-.7-.5-1.5-5.3-14.9-5.6-17.1-.2-1.6-2-3.9-6.3-5.4-2.1-.7-5 .2-7.1 2.1-1.7 1.6-2.4 3.5-2 5.2 1.2 4.9 2.3 6.9 2.3 6.9.3.5.1 1.1-.4 1.4-.5.3-1.1.1-1.4-.4 0-.1-1.2-2.2-2.5-7.5-.6-2.4.3-5 2.6-7 2.6-2.4 6.3-3.4 9-2.5 4.4 1.5 7.3 4.1 7.7 7 .2 1.5 3.4 10.8 5.5 16.7.2.5-.1 1.1-.6 1.3-.1-.1-.2 0-.3 0z"/><path d="M65.8 26.5c-.2 0-.3 0-.5-.1-.5-.3-.6-.9-.4-1.4 1.4-2.3 0-7.1-.7-8.7-.2-.5 0-1.1.6-1.3.5-.2 1.1 0 1.3.6.1.3 2.7 6.8.6 10.5-.2.2-.6.4-.9.4z"/></g></svg>