<svg xmlns="http://www.w3.org/2000/svg" width="397" height="390.5" viewBox="272.5 0 397 390.5"><g fill="#4A4A4A"><path d="M422.892 227.7c-1.836-1.224-4.283-1.836-6.73-.612-2.45 1.224-3.062 3.672-3.062 6.12l6.732 75.888c-2.448-.612-5.508-1.224-8.568-1.224-7.956 0-15.3 3.06-22.03 9.18-5.51 4.896-6.733 14.076-3.674 22.032 3.673 8.568 10.404 14.076 18.973 14.076 4.284 0 9.18-1.224 13.464-4.284 10.404-6.12 13.464-12.852 14.688-18.36.612-1.224 1.225-2.448 1.225-3.672l-7.344-79.56c11.628 11.628 25.092 28.152 23.256 42.228-.612 5.508-6.12 9.792-7.956 11.016-3.06 1.836-3.672 5.508-1.836 8.568s5.508 3.672 8.567 1.836c1.225-.612 11.628-7.956 13.464-19.584 3.672-30.6-37.332-62.424-39.168-63.648zm-18.36 113.22c-4.896 0-6.732-4.284-7.345-6.12-1.224-3.672-1.224-7.344.612-8.568 4.283-3.672 8.567-5.508 13.463-5.508 3.672 0 6.12 1.224 7.345 1.224 1.224 1.224 3.06 3.672 2.447 6.12 0 4.284-4.896 7.956-9.18 10.404-2.447 1.224-4.895 2.448-7.343 2.448zM574.056 156.096c-3.06-1.224-6.73-.612-7.956 2.448l-34.884 67.932c-3.672-4.284-11.016-10.404-23.256-10.404-2.448 0-4.284 0-6.732.612-10.403 1.836-15.91 14.076-15.3 23.868.612 9.18 7.344 18.36 22.645 18.972h.61c11.63 0 17.75-3.672 21.42-7.344 1.226-.612 2.45-1.224 3.062-2.448l43.452-85.068c1.223-3.06 0-6.732-3.06-8.568zm-64.26 97.92l-.612-6.12c-6.73 0-10.403-2.448-11.016-7.344-.612-4.896 2.448-10.404 4.896-10.404 1.836 0 3.06-.612 4.283-.612 9.18 0 14.076 6.12 15.3 7.956.612 1.224.612 4.284-1.224 6.732-2.448 3.672-8.567 4.284-12.852 4.284v5.508h1.226zM510.408 84.492l-47.124-28.764c-1.225-.612-3.06-1.224-4.896-.612-3.06-.612-5.508 1.224-6.73 3.672l-26.317 71.604c-3.67-3.06-10.403-7.956-20.195-7.956-3.672 0-7.344.612-10.403 1.836-8.568 2.448-14.076 13.464-12.24 23.868 1.224 8.568 7.344 17.136 21.42 17.136h3.672c11.628-1.224 17.748-6.12 20.81-10.404 1.223-.612 1.835-1.836 2.446-3.06l24.48-67.32 38.556 23.256-18.36 50.796c-3.672-3.06-10.403-7.956-20.195-7.956-3.67 0-7.343.612-10.403 1.836-8.567 2.448-14.076 13.464-12.24 23.868 1.225 8.568 7.345 17.136 21.42 17.136h3.673c11.628-1.224 17.748-6.12 20.808-10.404 1.224-.612 1.836-1.836 2.448-3.06L513.468 90c.612-1.224-.612-4.284-3.06-5.508zm-66.096 91.188c-.61-4.896 1.225-9.792 3.673-10.404 2.447-.612 4.896-1.224 6.73-1.224 7.957 0 12.24 4.896 13.465 6.12.612 1.224 1.225 4.284 0 6.732-1.836 3.672-7.956 5.508-12.852 6.12-6.12 0-10.404-2.448-11.016-7.344zm-49.572-28.764c-.612-4.896 1.224-9.792 3.672-10.404 2.448-.612 4.896-1.224 6.73-1.224 7.957 0 12.24 4.896 13.466 6.12.61 1.224 1.224 4.284 0 6.732-1.837 3.672-7.956 5.508-12.853 6.12-6.12 0-10.403-2.448-11.015-7.344zm64.872-73.44l1.836-4.896 38.556 23.256-1.836 4.284-38.556-22.644z"/></g></svg>