<svg xmlns="http://www.w3.org/2000/svg" viewBox="0 0 100 100" height="100" width="100"><g fill="#4A4A4A"><path d="M28.1 44.5C5.8 42.8 6.4 20.1 6.4 19.8c0-.5.5-1 1-1 4.7 0 20.1-.1 20.9 0l-.3 2c-.8-.1-11.8 0-19.6 0C8.5 25 10.1 41 28.3 42.5l-.2 2z"/><path d="M49.7 64.6c-11.5 0-23.1-8.2-23.1-23.9V14c0-.6.4-1 1-1h44.2c.6 0 1 .4 1 1v26.7c0 15.7-11.6 23.9-23.1 23.9zM28.6 15v25.7c0 10.9 7.2 21.9 21.1 21.9s21.1-11 21.1-21.9V15H28.6zM71.2 88.2h-43c-.6 0-1-.4-1-1v-7.7c0-.6.4-1 1-1h43c.6 0 1 .4 1 1v7.7c0 .6-.4 1-1 1zm-42-2h41v-5.7h-41v5.7z"/><path d="M27.5 38.7c-11.7-.9-14.3-12.9-14.3-13.1-.1-.3 0-.6.2-.8.2-.2.5-.4.8-.4h13.4v2H15.5c.9 2.8 4 9.7 12.2 10.3l-.2 2zM71.3 44.5l-.2-2C89.3 41.1 90.9 25 91 20.9c-7.8-.1-18.8-.1-19.6 0l-.3-2c.9-.1 16.3 0 20.9 0 .5 0 1 .4 1 1 0 .2.6 22.9-21.7 24.6z"/><path d="M71.8 38.7l-.1-2c8.1-.6 11.2-7.4 12.2-10.3H71.8v-2h13.4c.3 0 .6.1.8.4.2.2.3.5.2.8 0 .2-2.7 12.3-14.4 13.1zM32.2 80.5l-.1-2c5.5-.2 9.5-1.9 11.7-4.8 3.1-4.2 1.7-9.8 1.7-9.8l1.9-.5c.1.3 1.6 6.5-2.1 11.5-2.5 3.4-6.9 5.3-13.1 5.6zM68.2 80.5c-6.2-.3-10.6-2.2-13.2-5.6-3.7-5-2.1-11.2-2.1-11.5l1.9.5c0 .1-1.4 5.6 1.7 9.8 2.2 3 6.1 4.6 11.7 4.8v2z"/></g></svg>