<svg xmlns="http://www.w3.org/2000/svg" viewBox="0 0 100 100" height="100" width="100"><path fill="none" d="M30.3 22.9l-12.1-4.6c-.2.3-.4.6-.7.8-.3.3-.5.5-.8.7l4.7 12.1c.9 0 3.2-.4 5.9-3.1 2.6-2.7 3-5 3-5.9zM76.5 81.4c.1.2.3.4.5.6 1 1 2.5 1 3.5 0 .5-.5.7-1.1.7-1.7 0-.7-.3-1.3-.7-1.7-.2-.2-.4-.3-.6-.5-.4.7-.9 1.3-1.5 1.8s-1.2 1-1.9 1.5zM35.7 38.8l7.9 8.7 2.4-2.3-8.7-7.9z"/><path fill="none" d="M31.8 24.7c-.4 1.4-1.3 3.3-3.3 5.4-2 2-3.9 2.9-5.4 3.3 1.9 1.5 5.4 4.4 10.9 10l8.5 8.5c2.2-2.4 4.7-5.3 7.4-8.1l-8.1-8.1c-5.6-5.6-8.5-9.1-10-11zm16.3 20.4c0 .2-.1.5-.3.6l-3.7 3.7c-.2.2-.4.3-.6.3-.2 0-.5-.1-.6-.3l-9-10-4.6-3.6c-.2-.2-.3-.4-.3-.6 0-.3.1-.5.3-.7l3.7-3.7c.2-.2.4-.3.7-.3.2 0 .5.1.6.3l3.7 4.7 9.9 8.9c.1.2.2.5.2.7zM57.9 67.2c7.2 7.1 13.2 13.1 14 14 .7.1 3.2-.6 5.2-2.6s2.7-4.5 2.6-5.1L60.3 54.1c-2.8 2.6-5.6 5.2-8.1 7.4l5.7 5.7z"/><path fill="none" d="M33.4 32.7L31.1 35l3.4 2.6 1.6-1.6z"/><path fill="#4A4A4A" d="M38.4 61.7l.6.6-.6-.6zM83 29.9c3.3-5.4 4-9 2.1-10.9-3.7-3.7-14.6 2.7-29.1 17.2-1.8 1.8-3.6 3.7-5.5 5.7L43 34.4c-9.2-9.2-11.1-12.5-11.1-12.5-.1-.2-.3-.3-.5-.4L18 16.3c-.5-.2-1 .1-1.1.5 0 .1-.1.2-.1.3L15 15.4l-1.2 1.2 1.8 1.8c-.1 0-.2.1-.3.1-.2.1-.4.2-.5.5-.1.2-.1.5 0 .7L19.9 33c.1.2.2.4.4.5 0 0 3.4 1.9 12.5 11.1l7.9 7.9c-3.2 3.6-5.4 6.1-5.4 6.2-.3.3-.3.9 0 1.2l1.7 1.7c-1.2.7-2.6.6-4.3.6-2.5-.1-5.4-.3-8.5 2.2-2.6 2.1-3.9 5.3-5 8.1-1.3 3.4-2.2 5.3-4.1 5.1-.4 0-.8.2-.9.5-.2.4 0 .8.3 1 .1.1 5.3 4 11.4 4 3.2 0 6.6-1 9.7-4.2 5.4-5.4 6.8-9.3 7-11.8l1.5 1.5c.3.3.8.3 1.2 0 .1 0 2.6-2.2 6.2-5.4l3.7 3.7 1.5 1.5 14.1 14.1c.7.7 2.4.5 4.2-.4.2.4.4.7.7 1 .8.8 1.9 1.2 3 1.2s2.2-.4 3-1.2c.8-.8 1.2-1.8 1.2-3 0-1.1-.4-2.2-1.2-3-.3-.3-.6-.6-1-.7.8-1.8 1.1-3.5.4-4.2L62.2 53.5c2-1.8 3.9-3.7 5.7-5.5 6.7-6.7 12-13 15.1-18.1zm.8-9.7c.8.8.6 2.7-.5 5.3l-5.1-4.7c2.8-1.3 4.8-1.5 5.6-.6zm-67.1-.5c.3-.2.6-.4.8-.7.3-.3.5-.5.7-.8l12.1 4.6c0 1-.4 3.2-3.1 5.9s-5 3-5.9 3.1l-4.6-12.1zM34 43.3c-5.5-5.5-9-8.5-10.9-10 1.4-.4 3.3-1.3 5.4-3.3 2-2 2.9-3.9 3.3-5.4 1.5 1.9 4.4 5.4 10 10.9l7.5 7.5c-.5.5-.9 1-1.4 1.5l-.1-.1-9.9-8.9-3.7-4.7c-.2-.2-.4-.3-.6-.3-.3 0-.5.1-.7.3l-3.7 3.7c-.2.2-.3.4-.3.7 0 .3.1.5.3.6l4.6 3.6 9 10c.1.1.3.2.4.2-.5.5-1 1.1-1.4 1.6L34 43.3zm3.3-6l8.7 7.8-2.4 2.4-7.8-8.7 1.5-1.5zm-2.8.3L31.1 35l2.3-2.3L36 36l-1.5 1.6zm0 40.1c-3.8 3.8-8 4.1-11.4 3.4 1.7-4.4-1.5-5.6-3-5.9l.9-2.1c1-2.6 2.2-5.6 4.4-7.4 2.6-2.1 5-2 7.3-1.9 1.9.1 3.9.2 5.7-1l2.5 2.5c.2.8 1 5-6.4 12.4zm10.3-10.9l-7.6-7.6c.6-.7 1.7-2 3.2-3.6l8.1 8.1c-1.7 1.4-3 2.5-3.7 3.1zm35.6 11.7c.5.5.7 1.1.7 1.7 0 .7-.3 1.3-.7 1.7-1 1-2.5 1-3.5 0-.2-.2-.3-.4-.5-.6.7-.4 1.3-.9 1.8-1.5.5-.5 1-1.2 1.5-1.8.3.2.6.3.7.5zm-.7-5c.1.7-.6 3.2-2.6 5.1-2 2-4.5 2.7-5.2 2.6l-14-14-5.1-5.1c2.5-2.2 5.3-4.7 8.1-7.4l18.8 18.8zm-30-11l-8.2-8.2c4.2-4.7 10.4-11.5 15.7-16.8 7.4-7.4 13.6-12.3 18.2-15.1l6.7 5.7c-.2.3-.3.6-.5.9-3 5-8.2 11.2-14.9 17.9-5.4 5.3-12.2 11.4-17 15.6z"/></svg>