<svg xmlns="http://www.w3.org/2000/svg" width="100" height="100" viewBox="0 0 100 100"><path fill="#4A4A4A" d="M50.69 46.61a5.498 5.498 0 0 0-3.9 1.636 5.495 5.495 0 0 0-1.6 3.92 5.54 5.54 0 0 0 5.526 5.5h.03a5.495 5.495 0 0 0 3.9-1.638 5.492 5.492 0 0 0 1.602-3.918c-.016-3.033-2.495-5.5-5.557-5.5zm.045 9.108l-.02.974v-.974a3.586 3.586 0 0 1-3.58-3.564 3.553 3.553 0 0 1 1.037-2.537 3.565 3.565 0 0 1 2.548-1.06c1.964 0 3.57 1.598 3.58 3.563a3.584 3.584 0 0 1-3.565 3.598zm-.096-19.934a16.253 16.253 0 0 0-11.542 4.844 16.253 16.253 0 0 0-4.735 11.588c.043 8.976 7.38 16.277 16.354 16.277h.08c9.016-.044 16.318-7.417 16.274-16.433-.04-8.975-7.376-16.276-16.43-16.276zm.147 30.76l-.07.975v-.975c-7.905 0-14.368-6.432-14.406-14.338a14.315 14.315 0 0 1 4.172-10.21c2.708-2.734 6.32-4.248 10.24-4.267 7.904 0 14.365 6.432 14.403 14.336.038 7.945-6.394 14.44-14.338 14.48zm38.84-16.092c-.056-.083-2.34-3.478-6.758-7.458l3.11-3.367a.973.973 0 1 0-1.43-1.32l-3.153 3.412c-3.12-2.613-7.11-5.345-11.957-7.484l1.654-4.23a.973.973 0 1 0-1.814-.71l-1.638 4.19c-4.59-1.802-9.884-3.028-15.855-3.162V26.13a.974.974 0 0 0-1.948 0v4.19c-5.97.112-11.268 1.334-15.863 3.148l-1.63-4.17a.973.973 0 1 0-1.814.708l1.648 4.215c-4.818 2.14-8.797 4.885-11.927 7.524l-3.175-3.437a.973.973 0 1 0-1.43 1.32l3.14 3.398c-4.563 4.14-6.928 7.714-6.983 7.8l-.312.482.272.506c.12.224 12.36 22.416 38.846 22.416 26.484 0 38.937-22.554 39.06-22.782l.275-.512-.32-.484zM50.61 72.282c-23.087 0-34.865-17.64-36.833-20.882 2.175-3.024 14.823-19.153 36.94-19.153 22.097 0 34.743 15.8 36.938 18.792-1.99 3.29-13.915 21.243-37.044 21.243z"/></svg>