<svg xmlns="http://www.w3.org/2000/svg" width="612" height="592.5" viewBox="0 0 612 592.5"><g fill="#4A4A4A"><path d="M225.222 398.332c-3.782-.777-9.352.085-17.087 1.272-29.407 4.547-59.058 6.512-70.63-22.815-12.16-30.82 24.002-50.056 52.252-61.85 5.104-2.13 6.634-2.772 7.82-4.13 6.96-8.037-6.376-26.617-7.802-28.165.19-1.255 3.23-4.646 5.245-6.89 7.41-8.288 19.83-22.143 8.586-41.543-3.482-6.016-13.53-7.73-34.12-10.735-21.505-3.14-50.954-7.442-58.745-20.306-24.216-39.938-61.56-72.233-63.133-73.592-2.13-1.824-5.355-1.585-7.185.544a5.09 5.09 0 0 0 .54 7.185c.38.318 37.692 32.577 61.064 71.145 10.282 16.97 41.175 21.48 66.004 25.104 10.386 1.518 24.615 3.6 26.77 5.76 6.994 12.074 1.364 19.9-7.364 29.638-5.17 5.777-11.034 12.32-5.973 19.192 5.073 6.88 7.54 13.194 7.9 15.912-.887.386-2.086.88-3.53 1.475-18.556 7.748-75.025 31.31-57.792 74.995 15.534 39.35 58.55 32.706 81.654 29.143 5.055-.776 10.3-1.565 12.717-1.45 3.77 4.126 14.353 27.547 14.897 47.682.16 5.863-.57 13.685-4.927 17.65-14.247 12.943-32.607 20.612-50.36 28.03-27.834 11.627-54.12 22.612-53.814 52.264a5.097 5.097 0 0 0 5.092 5.043h.05a5.092 5.092 0 0 0 5.042-5.147c-.227-21.69 17.92-30.374 47.552-42.755 17.68-7.387 37.73-15.765 53.275-29.89 12.4-11.267 8.152-35.282 4.517-48.593-.085-.323-8.88-32.166-18.512-34.173z"/><path d="M548.896 156.543c-23.635-35.766-59.773-60.185-101.775-68.765a161.33 161.33 0 0 0-32.276-3.28c-75.814 0-141.874 53.99-157.082 128.38-5.52 27.043-3.93 55.177 4.804 82.062-2.907 6.665-19.333 35.496-34.272 60.894a5.097 5.097 0 0 0 .03 5.227 5.12 5.12 0 0 0 4.627 2.45l69.996-3.66c22.038 21.56 49.62 36.193 79.934 42.386a161.32 161.32 0 0 0 32.276 3.28c75.814 0 141.874-53.99 157.07-128.38 8.58-41.994.294-84.822-23.33-120.593zm13.342 118.55c-14.23 69.67-76.084 120.233-147.076 120.233a150.88 150.88 0 0 1-30.238-3.072c-29.138-5.955-55.595-20.245-76.488-41.322a5.098 5.098 0 0 0-3.623-1.505c-.477 0-.955.067-1.426.202l-61.512 3.206c32.356-55.233 31.745-57.026 30.655-60.214-8.397-25.02-10.05-51.88-4.774-77.7 14.24-69.67 76.09-120.233 147.088-120.233 10.093 0 20.27 1.027 30.252 3.07 39.327 8.037 73.164 30.907 95.294 64.402 22.13 33.494 29.89 73.604 21.848 112.93z"/><path d="M489.68 290.35c-.006-.01-.013-.023-.013-.036l-34.327-79.83c-1.016-2.355-3.592-3.45-5.985-2.814-2.404-.65-4.993.447-5.997 2.81l-22.087 51.358c-.274-.24-.507-.52-.838-.704-8.715-4.743-20.76-12.228-32.43-22.295 14.884-14.854 27.71-34.132 31.787-57.94h23.873a5.088 5.088 0 0 0 5.092-5.09 5.088 5.088 0 0 0-5.092-5.093h-56.88v-12.332c0-2.815-2.275-5.092-5.09-5.092s-5.093 2.277-5.093 5.092v12.332h-56.88a5.088 5.088 0 0 0-5.092 5.092 5.088 5.088 0 0 0 5.092 5.09h89.707c-4.015 20.54-15.57 37.56-28.996 50.864-9.67-9.578-18.513-20.967-24.167-34.364-1.102-2.6-4.12-3.807-6.677-2.71a5.09 5.09 0 0 0-2.718 6.67c6.17 14.615 15.71 26.965 26.096 37.314-22.228 19.223-46.004 29.064-46.433 29.235-2.618 1.052-3.866 4.02-2.826 6.633a5.112 5.112 0 0 0 4.725 3.188c.636 0 1.284-.122 1.902-.366 1.854-.747 26.873-11.09 50.202-31.512 12.613 11.028 25.637 19.137 35.025 24.24.623.337 1.29.43 1.95.497l-8.48 19.718a.242.242 0 0 1-.025.055l-16.88 39.253a5.09 5.09 0 0 0 4.677 7.105c1.97 0 3.85-1.156 4.676-3.077l15.58-36.237h64.573l15.576 36.23a5.09 5.09 0 0 0 6.684 2.674 5.093 5.093 0 0 0 2.668-6.695L489.68 290.35zm-68.24-3.127l27.908-64.89 27.9 64.89h-55.807z"/></g></svg>