<svg xmlns="http://www.w3.org/2000/svg" width="100" height="100" viewBox="0 0 100 100"><path fill="#4A4A4A" d="M70.973 73.392a32.227 32.227 0 0 1-21.263 8.003c-17.782 0-32.25-14.467-32.25-32.25 0-4.22.843-8.292 2.42-12.15l4.775 11.66a1.056 1.056 0 0 0 1.954-.798L20.5 32.943 5.585 39.05a1.055 1.055 0 1 0 .8 1.952L17.89 36.29c-1.654 4.084-2.54 8.392-2.54 12.856 0 18.946 15.414 34.36 34.36 34.36a34.343 34.343 0 0 0 22.656-8.527 1.057 1.057 0 0 0-1.393-1.587zm23.424-23.74a1.05 1.05 0 0 0-1.475-.214l-9.696 7.232c.55-2.46.842-4.982.842-7.525 0-18.946-15.413-34.36-34.36-34.36a34.288 34.288 0 0 0-18.137 5.172c-.493.31-.644.96-.337 1.454.31.493.96.646 1.454.34a32.167 32.167 0 0 1 17.022-4.854c17.78 0 32.248 14.467 32.248 32.25 0 2.62-.332 5.216-.954 7.74l-7.685-10.3a1.05 1.05 0 0 0-1.476-.213 1.053 1.053 0 0 0-.214 1.475l9.637 12.918 12.916-9.64c.467-.347.562-1.008.214-1.474z"/></svg>