<svg xmlns="http://www.w3.org/2000/svg" width="612" height="578" viewBox="0 21.5 612 578"><g fill="#4A4A4A"><path d="M503.584 435.027c-5.845-.716-11.126 3.445-11.836 9.27-.073.607-7.975 60.467-64.297 68.062-71.853 9.675-87.845-30.13-98.42-56.47l-.606-1.493c-9.664-24.016-16.7-45.71-21.836-61.55-5.545-17.08-8.893-27.392-12.67-32.918-2.998-4.39-72.502-108.404 15.534-195.137 30.73-30.282 72.326-39.2 111.268-23.83 37.784 14.907 62.246 48.237 63.83 86.964.246 5.863 5.167 10.41 11.066 10.184 5.862-.238 10.422-5.19 10.19-11.052-1.916-46.543-32.253-88.098-77.278-105.87-46.995-18.55-97.087-7.907-134.003 28.464-38.097 37.54-55.257 84.28-49.627 135.173 5.166 46.683 27.124 80.76 31.48 87.112 2.057 3.005 5.907 14.89 9.995 27.466 5.233 16.14 12.4 38.238 22.338 62.926l.6 1.48c10.313 25.68 28.63 71.316 96.862 71.316 7.43 0 15.46-.545 24.132-1.708 57.95-7.81 79.346-60.037 82.56-86.567.702-5.826-3.447-11.12-9.28-11.823z"/><path d="M459.11 320.84c3.513-.95 7.772.912 9.015 1.646 4.976 3.115 11.536 1.598 14.646-3.378 3.122-4.982 1.61-11.542-3.378-14.65-1.248-.778-12.59-7.535-25.472-4.236-5.6 1.432-13.513 5.36-19.442 15.955-10.894 19.45 1.92 42.46 10.403 57.687 2.106 3.79 4.726 8.495 5.16 10.166 2.778 10.826-.76 22.913-8.415 28.758-8.507 6.5-18.758 3.035-25.87-1.016-31.425-17.932-41.902-49.633-31.156-94.23 11.518-47.78 47.674-57.185 56.193-58.758 3.293 10.318 4.21 18.482 4.223 18.648.588 5.838 5.808 10.098 11.64 9.51 5.846-.593 10.1-5.808 9.51-11.646-.183-1.91-5.065-47.044-35.96-68.99-16.034-11.39-35.686-14.414-58.415-8.98-34.54 8.262-54.957 35.723-59.04 79.432-2.888 30.955 3.508 59.23 3.783 60.423a10.628 10.628 0 0 0 12.737 7.976c5.716-1.31 9.296-7.014 7.986-12.736-.062-.263-5.955-26.518-3.286-54.12 3.28-33.996 17.674-54.284 42.767-60.28 16.7-3.99 30.14-2.168 41.09 5.58 5.82 4.126 10.428 9.573 14.07 15.43-17.063 4.45-55.105 20.202-67.957 73.538-16.487 68.39 13.354 101.74 41.29 117.68 8.673 4.952 17.42 7.42 25.693 7.42 8.58 0 16.658-2.657 23.604-7.97 14.603-11.145 21.07-31.628 16.102-50.96-1.115-4.322-3.783-9.126-7.174-15.203-6.18-11.095-15.514-27.87-10.43-36.958 2.694-4.82 5.24-5.51 6.084-5.737zM215.95 417.004l-71.812 55.747c-5.54 4.304-6.536 12.277-2.24 17.816a12.668 12.668 0 0 0 10.03 4.914c2.724 0 5.466-.875 7.78-2.674l71.81-55.754c5.54-4.302 6.537-12.276 2.24-17.815-4.295-5.532-12.27-6.536-17.808-2.233zM200.044 306.795a12.425 12.425 0 0 0-13.384-11.4l-125.705 10.04c-6.848.552-11.952 6.538-11.4 13.38.52 6.505 5.96 11.443 12.374 11.443.33 0 .666-.012 1.003-.042l125.71-10.037c6.836-.552 11.94-6.537 11.4-13.385zM110.276 157.75l91.97 26.535a13.34 13.34 0 0 0 3.752.54c5.87 0 11.273-3.856 12.987-9.774 2.068-7.178-2.068-14.67-9.24-16.737l-91.966-26.542c-7.18-2.068-14.67 2.07-16.74 9.236-2.08 7.177 2.064 14.668 9.236 16.743z"/></g></svg>