<svg xmlns="http://www.w3.org/2000/svg" viewBox="0 0 100 100" height="100" width="100"><g fill="#4A4A4A"><path d="M50.7 86.6c-19.8 0-35.8-16.1-35.8-35.8S31 15 50.7 15s35.8 16 35.8 35.8-16.1 35.8-35.8 35.8zm0-69.7c-18.7 0-33.8 15.2-33.8 33.8S32 84.6 50.7 84.6s33.8-15.2 33.8-33.8-15.2-33.9-33.8-33.9z"/><path d="M50.7 93.1c-23.4 0-42.4-19-42.4-42.4s19-42.4 42.4-42.4C74 8.4 93 27.4 93 50.8S74 93.1 50.7 93.1zm0-82.7c-22.2 0-40.4 18.1-40.4 40.4s18.1 40.4 40.4 40.4S91 73 91 50.8 72.9 10.4 50.7 10.4z"/><path d="M50.7 28.9c-.6 0-1-.4-1-1v-4.7c0-.6.4-1 1-1s1 .4 1 1v4.7c0 .5-.5 1-1 1zM78.5 52h-4.7c-.6 0-1-.4-1-1s.4-1 1-1h4.7c.6 0 1 .4 1 1s-.4 1-1 1zM50.7 79.9c-.6 0-1-.4-1-1v-4.7c0-.6.4-1 1-1s1 .4 1 1v4.7c0 .6-.5 1-1 1zM27.5 52h-4.7c-.6 0-1-.4-1-1s.4-1 1-1h4.7c.6 0 1 .4 1 1s-.5 1-1 1zM30.6 40.4c-.2 0-.3 0-.5-.1L26 38c-.5-.3-.6-.9-.4-1.4.3-.5.9-.6 1.4-.4l4.1 2.3c.5.3.6.9.4 1.4-.2.4-.6.5-.9.5zM62.3 32c-.2 0-.3 0-.5-.1-.5-.3-.6-.9-.4-1.4l2.3-4.1c.3-.5.9-.6 1.4-.4.5.3.6.9.4 1.4l-2.3 4.1c-.3.3-.6.5-.9.5zM74.8 66c-.2 0-.3 0-.5-.1l-4.1-2.3c-.5-.3-.6-.9-.4-1.4s.9-.6 1.4-.4l4.1 2.3c.5.3.6.9.4 1.4-.2.3-.6.5-.9.5zM36.7 76.2c-.2 0-.3 0-.5-.1-.5-.3-.6-.9-.4-1.4l2.3-4.1c.3-.5.9-.6 1.4-.4.5.3.6.9.4 1.4l-2.3 4.1c-.2.3-.5.5-.9.5zM26.6 66.1c-.3 0-.7-.2-.9-.5-.3-.5-.1-1.1.4-1.4l4-2.4c.5-.3 1.1-.1 1.4.4.3.5.1 1.1-.4 1.4l-4 2.4c-.1.1-.3.1-.5.1zM38.9 32c-.3 0-.7-.2-.9-.5l-2.4-4c-.3-.5-.1-1.1.4-1.4.5-.3 1.1-.1 1.4.4l2.4 4c.3.5.1 1.1-.4 1.4-.1.1-.3.1-.5.1zM50.7 51.5c-.3 0-.7-.2-.9-.5-.3-.5-.1-1.1.4-1.4l24-13.5c.5-.3 1.1-.1 1.4.4.3.5.1 1.1-.4 1.4l-24 13.5c-.2 0-.4.1-.5.1zM64.7 76.1c-.3 0-.7-.2-.9-.5l-2.4-4c-.3-.5-.1-1.1.4-1.4.5-.3 1.1-.1 1.4.4l2.4 4c.3.5.1 1.1-.4 1.4-.1 0-.3.1-.5.1z"/></g></svg>