<svg xmlns="http://www.w3.org/2000/svg" width="100" height="100" viewBox="0 0 100 100"><path fill="#4A4A4A" d="M87.68 15.21H12.63a4.324 4.324 0 0 0-4.318 4.318v49.13c0 2.382 1.937 4.32 4.32 4.32h27.976l.002 1.945c-.406 4.614-3.367 5.462-7.85 6.743l-1.65.48c-1.12.323-2.994.867-3.23 2.364-.088.57-.2 1.277.272 1.828.476.557 1.27.603 1.978.603h38.014c.707 0 1.5-.045 1.977-.602.472-.55.36-1.26.272-1.828-.235-1.496-2.11-2.04-3.23-2.364l-1.642-.478c-4.402-1.26-7.31-2.092-7.816-6.326V72.98h29.98c2.38 0 4.318-1.938 4.318-4.32V19.527a4.326 4.326 0 0 0-4.32-4.318zM65.018 83.42l1.637.476c1.59.462 1.894.76 1.933.896.01.06.03.186.044.304-.107.01-.263.02-.486.02H30.13c-.226 0-.382-.01-.49-.02.015-.118.035-.244.044-.303.04-.136.344-.435 1.936-.896l1.643-.477c4.642-1.327 8.65-2.474 9.17-8.418v-2.025H55.88l.005 2.47c.652 5.548 4.582 6.672 9.132 7.974zM90.175 68.66a2.495 2.495 0 0 1-2.493 2.493h-75.05a2.495 2.495 0 0 1-2.493-2.492v-49.13a2.495 2.495 0 0 1 2.492-2.494h75.05a2.495 2.495 0 0 1 2.493 2.493v49.13zM81.368 20.86H18.443a2.71 2.71 0 0 0-2.708 2.71V60h68.342V23.57a2.71 2.71 0 0 0-2.71-2.71zm.883 37.315H17.56V23.57c0-.488.397-.884.883-.884h62.925c.487 0 .883.396.883.883v34.605z"/></svg>