<svg xmlns="http://www.w3.org/2000/svg" width="612" height="627.5" viewBox="0 0 612 627.5"><path fill="#4A4A4A" d="M524.294 277.86a50.793 50.793 0 0 0-10.52-7.675c3.74-21.88 11.756-108.875-77.865-179.91C332.7 8.463 197.51 96.438 196.15 97.33l-2.18 1.452-.532 2.577c-.606 3.004-14.468 74.473 34.603 129.65 41.542 46.715 114.48 66.617 217.095 59.17-.1 14.503 1.016 43.476 11.027 53.904 2.858 2.98 6.396 4.565 10.22 4.565 18.802 0 24.885-42.547 26.855-72.1 5.753.844 14.86 3.34 22.437 10.617 9.577 9.192 14.442 23.61 14.442 42.852 0 55.465-41.262 57.52-42.993 57.582l-5.447.146-.68 5.41c-.69 5.472-18.513 134.02-162.112 163.937-143.6-29.908-161.42-158.465-162.113-163.937l-.68-5.422-5.446-.134c-1.757-.037-42.994-1.72-42.994-57.583 0-19.242 4.866-33.66 14.443-42.853 7.508-7.215 16.547-9.725 22.288-10.606.992 19.91 5.69 67.052 28.103 70.13 3.6.52 7.07-.496 10.087-2.87 9.082-7.13 12.993-27.136 14.406-37.063 31.383-6.395 51.775-29.34 52.67-30.367l6.272-7.167-9.033-3.017c-59.774-19.927-73.71-125.46-73.844-126.525l-1.506-11.982-8.996 8.042c-2.167 1.928-51.812 47.473-37.957 134.12a51.07 51.07 0 0 0-11.103 7.993c-12.277 11.683-18.5 29.23-18.5 52.16 0 55.344 36.212 67.126 50.055 69.597 4.95 25.46 35.013 142.192 172.584 170.16l1.26.252 1.262-.25C457.728 541.8 487.782 425.07 492.733 399.61c13.85-2.472 50.056-14.253 50.056-69.596.005-22.925-6.22-40.472-18.496-52.155zm-22.46-12.46c-8.14-2.217-14.395-1.984-14.86-1.93l-5.715.282-.29 5.716c-1.657 32.424-8.775 64.744-14.577 66.506-.134 0-.434 0-1.077-.667-6.26-6.524-8.065-34.18-7.338-51.74l.288-7.178-7.154.605c-101.996 8.538-173.784-9.737-213.496-54.303-39.896-44.774-34.058-103.306-32.16-116.23 17.637-10.79 133.574-76.79 222.59-6.262 82.43 65.34 77.503 142.163 73.788 165.2zM162.67 154.437c5.642 28.972 23.585 96.86 70.795 119.928-8.268 7.08-23.672 17.907-43.09 20.68l-4.89.703-.51 4.914c-1.792 17.277-7.398 32.846-10.752 33.477-9.664-1.333-16.806-34.412-17.4-64.473l-.122-5.906-5.887-.3c-.098-.01-.47-.023-1.052-.023-2.08 0-6.976.196-13.053 1.757-8.364-57.488 13.3-94.593 25.962-110.756zm274.824 216.195c0-26.298-21.396-47.693-47.693-47.693-21.18 0-38.97 13.972-45.17 33.115-13.98-7.18-38.25-7.203-52.284-.067-6.224-19.106-23.997-33.048-45.153-33.048-26.297 0-47.693 21.396-47.693 47.693 0 26.31 21.396 47.705 47.693 47.705 26.298 0 47.693-21.396 47.693-47.705 0-.392-.104-.753-.116-1.14 1.99-2.202 9.663-6.523 23.666-6.523 14.224 0 21.946 4.474 23.776 6.64-.006.35-.104.673-.104 1.022 0 26.31 21.396 47.705 47.692 47.705 26.3.007 47.694-21.395 47.694-47.704zm-190.3 35.037c-19.303 0-35.02-15.716-35.02-35.037 0-19.303 15.716-35.02 35.02-35.02 18.414 0 33.396 14.347 34.754 32.42-.146.8-.428 1.547-.428 2.404h.673c0 .067.018.13.018.196 0 19.32-15.714 35.037-35.017 35.037zm142.607 0c-19.3 0-35.018-15.716-35.018-35.037 0-.067.02-.13.02-.196h.538c0-.685-.245-1.272-.343-1.92 1.12-18.306 16.23-32.902 34.81-32.902 19.303 0 35.025 15.716 35.025 35.02-.006 19.32-15.723 35.035-35.03 35.035zm-169.468 59.756c0 5.55 4.504 10.055 10.055 10.055 5.55 0 10.055-4.497 10.055-10.054 0-5.552-4.498-10.056-10.055-10.056-5.55.006-10.055 4.504-10.055 10.056zm38.776 24.13c0 5.552 4.504 10.056 10.055 10.056s10.055-4.504 10.055-10.055-4.498-10.056-10.055-10.056c-5.55 0-10.055 4.506-10.055 10.057zm120.644-18.03c0 5.552 4.498 10.056 10.056 10.056 5.55 0 10.055-4.498 10.055-10.055 0-5.55-4.498-10.056-10.055-10.056-5.558.002-10.056 4.507-10.056 10.057z"/></svg>