<svg xmlns="http://www.w3.org/2000/svg" viewBox="0 0 100 100" height="100" width="100"><path fill="#4A4A4A" d="M87.6 41.5l-1.8 1.8 5.1 5.1H78.5c-.4-11.8-6.9-23.7-19.2-35.3l-.8-.8c-.8-.8-.8-1.8-.8-2.9 0-1.2-.1-3.5-2.7-3.5-1.3 0-2.4.9-3 2.4-.4.9-.5 1.9-.6 3.1l-30 32.1H6.2l5.7 6.2-5.7 6.2h15.2L51.3 88c0 1.1.2 2.2.6 3.1.6 1.5 1.7 2.4 3 2.4 2.7 0 2.7-2.3 2.7-3.5 0-1.1 0-2.1.8-2.9.2-.2.5-.4.8-.8C71.6 74.7 78 62.8 78.4 51h12.4l-5 5 1.8 1.8 8.2-8.2-8.2-8.1zM54.2 9.2c.2-.4.4-.8.8-.9.1.2.1.7.1 1.1 0 1.3.1 3.1 1.6 4.7l.8.8C69.3 26 75.5 37.3 76 48.4h-2.1c-.7-14.7-12.6-26.3-17.1-30.7l-1-.9c-2.2-2.2-2.3-5.9-1.6-7.6zM27.4 48.4l-3.7-3.7 28-30.1c.4 1.5 1.2 2.9 2.3 4l1 1c4.4 4.2 15.7 15.3 16.4 28.9h-44zm43.9 2.5c-.7 13.7-12 24.7-16.4 28.9l-1 1c-1.1 1.1-1.8 2.5-2.3 4l-28-30.1 3.7-3.7h44zM12 46h9.5l3.7 3.7-3.7 3.7H12l3.4-3.7L12 46zm45.5 38.4c-.4.3-.7.6-.8.8-1.5 1.5-1.6 3.4-1.6 4.7v1h-.2c-.3 0-.5-.4-.7-.8-.7-1.7-.6-5.4 1.6-7.5l1-.9c4.6-4.4 16.5-16 17.1-30.7H76c-.5 11-6.6 22.2-18.5 33.4z"/></svg>