<svg xmlns="http://www.w3.org/2000/svg" viewBox="0 0 100 100" height="100" width="100"><g fill="#4A4A4A"><path d="M51.3 27.9h6.2v-6.2h-6.2v6.2zm2-4.2h2.2v2.2h-2.2v-2.2zM66 38.6h-6.2v6.2H66v-6.2zm-2 4.3h-2.2v-2.2H64v2.2zM66 21.7h-6.2v6.2H66v-6.2zm-2 4.2h-2.2v-2.2H64v2.2zM51.3 53.7h6.2v-6.2h-6.2v6.2zm2-4.2h2.2v2.2h-2.2v-2.2zM51.3 44.9h6.2v-6.2h-6.2v6.2zm2-4.3h2.2v2.2h-2.2v-2.2zM51.3 36.4h6.2v-6.2h-6.2v6.2zm2-4.3h2.2v2.2h-2.2v-2.2zM66 30.1h-6.2v6.2H66v-6.2zm-2 4.3h-2.2v-2.2H64v2.2zM20.9 84.1h6.2v-6.2h-6.2v6.2zm2-4.2h2.2v2.2h-2.2v-2.2zM31.3 48.2h-6.2v6.2h6.2v-6.2zm-2 4.2h-2.2v-2.2h2.2v2.2zM20.9 75.6h6.2v-6.2h-6.2v6.2zm2-4.2h2.2v2.2h-2.2v-2.2zM31.3 39.7h-6.2v6.2h6.2v-6.2zm-2 4.2h-2.2v-2.2h2.2v2.2zM20.9 67.1h6.2v-6.2h-6.2v6.2zm2-4.2h2.2v2.2h-2.2v-2.2zM39.8 48.2h-6.2v6.2h6.2v-6.2zm-2 4.2h-2.2v-2.2h2.2v2.2zM39.8 39.7h-6.2v6.2h6.2v-6.2zm-2 4.2h-2.2v-2.2h2.2v2.2zM29.3 75.6h6.2v-6.2h-6.2v6.2zm2-4.2h2.2v2.2h-2.2v-2.2zM29.3 67.1h6.2v-6.2h-6.2v6.2zm2-4.2h2.2v2.2h-2.2v-2.2zM29.3 84.1h6.2v-6.2h-6.2v6.2zm2-4.2h2.2v2.2h-2.2v-2.2zM37.8 84.1H44v-6.2h-6.2v6.2zm2-4.2H42v2.2h-2.2v-2.2zM37.8 67.1H44v-6.2h-6.2v6.2zm2-4.2H42v2.2h-2.2v-2.2zM37.8 75.6H44v-6.2h-6.2v6.2zm2-4.2H42v2.2h-2.2v-2.2z"/><path d="M70.2 52.6V15.3l-4.6-1.4v-3.2H55.2L47 8.2v44.1h-3V40.4l-4.6-9.2h-3.9v-5h-6.2v5h-3.9l-4.6 9.2v11.8h-3.7l-4.8 4.9v35.3h40.2v-5h12.2v4.8h23.2V52.6H70.2zm15.7 37.8H66.7V54.6h19.2v35.8zm-35.3-2.8v3H14.4V58.1l3.7-3.8h4.8V40.9l3.9-7.7h4.6v-5h2.2v5h4.6l3.9 7.7v13.4h4.8l.2.2 1 1 1 1 1.5 1.6v29.5zm2.7-10.5v-2.2h2.2v2.2h-2.2zm0-8.4v-2.2h2.2v2.2h-2.2zm0-8.5V58h2.2v2.2h-2.2zm-.7 18.9h5v-6.2h-5v-2.2h5v-6.2h-5v-2.2h5v-6.2h-6.2L49 53.6V10.9l5.7 1.7h9v2.7l4.6 1.4v35.8H66v-5.1h-6.2v6.2h4.9v2.2h-4.9V62h4.9v2.2h-4.9v6.2h4.9v2.2h-4.9v6.2h4.9v6.5H52.6v-6.2zM64 49.5v2.2h-2.2v-2.2H64zm0 8.4v2.2h-2.2v-2.2H64zm0 8.5v2.2h-2.2v-2.2H64zm0 8.5v2.2h-2.2v-2.2H64z"/><path d="M83.7 69.3h-6.2v6.2h6.2v-6.2zm-2 4.3h-2.2v-2.2h2.2v2.2zM83.7 60.8h-6.2V67h6.2v-6.2zm-2 4.3h-2.2v-2.2h2.2v2.2zM83.7 77.8h-6.2V84h6.2v-6.2zm-2 4.2h-2.2v-2.2h2.2V82zM69.2 77.8H69V84h6.2v-6.2h-6zm4 4.2H71v-2.2h2.2V82zM69.2 60.8H69V67h6.2v-6.2h-6zm4 4.3H71v-2.2h2.2v2.2zM69.2 69.3H69v6.2h6.2v-6.2h-6zm4 4.3H71v-2.2h2.2v2.2z"/></g></svg>