<svg xmlns="http://www.w3.org/2000/svg" width="612" height="600" viewBox="0 38.5 612 600"><g fill="#4A4A4A"><path d="M308.448 190.98c1.224 0 1.836 0 3.06-.612 2.448-1.836 3.06-4.896 1.836-7.344l-27.54-41.616c-1.836-2.448-4.896-3.06-7.344-1.836-2.448 1.836-3.06 4.896-1.836 7.344l27.54 41.616c1.224 1.836 3.06 2.448 4.284 2.448zM298.656 470.052c.612 0 1.836 0 2.448-.61 1.836-.613 3.06-3.062 3.06-4.897l-.612-53.856c0-2.448-1.836-4.897-4.284-5.51l-11.016-2.446-2.448-19.584c-.612-3.06-3.06-4.896-6.12-4.896l-18.36 2.448-2.448-18.36c-.612-3.06-3.06-4.896-6.12-4.896l-18.36 2.448-2.448-18.36c-.612-3.06-3.06-4.896-6.12-4.896l-18.36 2.448-2.448-18.36c-.612-3.06-3.06-4.896-6.12-4.896l-26.316 3.672c-11.016 1.224-26.928 3.06-29.988 13.464-2.448 9.18 4.896 19.584 24.48 34.884l128.52 100.368c.612 1.222 1.836 1.834 3.06 1.834zm-124.848-110.16c-21.42-17.136-20.808-22.644-20.196-23.256 1.224-3.672 15.3-5.508 20.808-6.12l22.644-2.448 2.448 18.36c.612 3.06 3.06 4.896 6.12 4.896l18.36-2.448 2.448 18.36c.612 3.06 3.06 4.896 6.12 4.896l18.36-2.448 2.448 18.36c.612 3.06 3.06 4.896 6.12 4.896l18.36-2.448 2.448 18.36c0 2.447 1.836 4.283 4.284 4.895l10.404 2.448.612 38.556-121.788-94.858zM276.624 474.948c-1.224-1.225-2.448-1.225-4.284-1.225-25.704 3.673-46.512 12.24-47.124 12.24-2.448 1.224-3.672 3.672-3.06 6.12.612 2.448 2.448 4.284 4.896 4.284 3.672 0 15.3 1.836 19.584 7.344 1.224 1.225 1.836 3.673.612 7.957-.612 1.836-1.224 2.448-3.06 3.06-11.628 4.896-45.9-9.792-64.872-20.195-1.836-1.225-4.284-.612-6.12.61-1.836 1.838-2.448 4.285-1.224 6.12 6.12 14.69 33.66 55.693 78.336 55.693h.612c25.704 0 56.916-15.3 78.948-28.764 1.224-.61 2.448-2.447 2.448-4.283s-.612-3.672-1.836-4.284l-53.856-44.675zm-26.316 71.604c-28.152 0-48.348-18.972-59.364-33.66 17.748 7.956 44.064 17.748 57.528 12.24 4.896-1.836 7.956-5.508 9.18-9.792 2.448-8.568 0-14.076-2.448-17.748-2.448-3.06-5.508-5.508-9.18-7.344 7.344-1.836 15.912-4.284 25.092-5.508l45.9 38.556c-19.584 11.628-45.9 23.256-66.708 23.256z"/><path d="M296.82 265.032c.612 0 .612 0 0 0 2.448 0 4.284-1.224 4.896-3.06.612-1.224 17.748-36.108 58.752-41.004 1.836 0 3.672-1.224 4.284-3.06s.612-3.672 0-4.896c-3.06-5.508-75.276-130.968-142.596-144.432-1.224 0-3.06 0-4.284.612-1.224.612-1.836 1.836-2.448 3.672-13.464 66.708 73.44 184.824 77.112 189.72 1.224 1.224 3.06 2.448 4.284 2.448zM225.216 80.208c52.632 15.912 110.772 105.876 126.072 130.968-29.988 6.12-47.736 26.928-55.08 37.944-17.136-24.48-76.5-114.444-70.992-168.912zM420.444 285.228c0-27.54-22.645-50.184-50.796-50.184-13.465 0-26.316 5.508-35.496 15.3-9.18 9.792-14.688 22.032-14.688 35.496l1.224 184.212c0 27.54 22.645 50.185 50.797 50.185 13.464 0 26.315-5.51 35.496-15.3 9.18-9.793 14.69-22.032 14.69-35.497l-1.226-184.212zm-20.196 212.364c-7.344 7.344-17.136 11.628-28.152 11.628-22.03 0-39.78-17.748-39.78-39.168L330.48 285.84c0-10.404 3.672-20.196 11.628-28.152 7.344-7.344 17.136-11.628 28.15-11.628 22.033 0 39.78 17.748 39.78 39.168l1.225 184.212c0 11.016-3.67 20.808-11.015 28.152z"/></g></svg>