<svg xmlns="http://www.w3.org/2000/svg" width="100" height="100" viewBox="0 0 100 100"><path fill="#4A4A4A" d="M37.823 47.772a2.643 2.643 0 1 0 0 5.285 2.643 2.643 0 0 0 0-5.285zm24.41 5.286a2.643 2.643 0 1 0 0-5.285 2.643 2.643 0 0 0 0 5.285zm20.234 5.444c2.285-1.458 4.594-4.33 4.594-9.98 0-3.746-1.016-6.613-3.022-8.522a8.258 8.258 0 0 0-2.028-1.415h.287c0-8.936-3.8-17.505-10.424-23.51a1.064 1.064 0 0 0-.878-.254 1.04 1.04 0 0 0-.736.54c-.035.07-3.62 6.876-7.553 9.826a1.036 1.036 0 0 0-.406.708c-.033.283.05.564.23.783.084.1 8.312 10.034 12.696 18.46.148.285.42.483.734.542.27.043.68-.043.906-.205.643-.45.825-1.395 1.173-3.484.112-.674.286-1.714.45-2.258.833.065 2.665.372 4.14 1.79 1.566 1.5 2.36 3.857 2.36 7.002 0 9.063-6.74 9.4-7.024 9.41a1.037 1.037 0 0 0-1 .907c-.114.895-3.026 21.9-26.49 26.788C27.01 80.74 24.1 59.734 23.986 58.84a1.037 1.037 0 0 0-1-.908c-.288-.006-7.026-.28-7.026-9.41 0-3.143.795-5.5 2.36-7.002 1.17-1.122 2.56-1.55 3.502-1.71-.115 1.877-.097 5.105 1.197 6.425.488.5 1.107.716 1.803.663.51-.05.906-.463.934-.975.198-3.642 6.608-6.594 14.03-10.013 10.077-4.64 22.616-10.418 29.764-21.54a1.037 1.037 0 0 0-.258-1.396l-.455-.332c-5.365-3.785-11.682-5.785-18.27-5.785-17.495 0-31.73 14.233-31.73 31.727h.102A8.312 8.312 0 0 0 16.91 40c-2.005 1.908-3.022 4.775-3.022 8.522 0 5.65 2.31 8.52 4.594 9.98.575 5.75-1.897 17.324-1.923 17.444-.106.483.147.973.6 1.17 2.716 1.17 5.61 1.526 8.13 1.526 2.907 0 5.295-.472 6.333-.714 4.202 4.267 10.174 8.05 18.645 9.77a1.034 1.034 0 0 0 .412 0c8.47-1.72 14.443-5.503 18.645-9.77 1.037.243 3.425.714 6.334.714 2.517 0 5.412-.356 8.128-1.527.453-.196.706-.685.6-1.17-.024-.118-2.496-11.69-1.92-17.443zm-4.49-20.855c-1.313.018-1.578 1.604-1.98 4.002l-.076.446c-3.83-6.707-9.254-13.603-11.135-15.932 2.942-2.57 5.49-6.645 6.65-8.653a29.725 29.725 0 0 1 8.783 20.414c-1.253-.318-2.184-.275-2.24-.277zM50.568 8.93c6.01 0 11.778 1.78 16.697 5.14-6.91 10.09-18.77 15.55-28.344 19.96-7.257 3.344-13.19 6.077-14.806 9.938-.317-1.217-.338-3.37-.127-5.167a1.038 1.038 0 0 0-.977-1.153 2.268 2.268 0 0 0-.172-.003c-.315 0-1.027.028-1.92.235.377-16.028 13.532-28.95 29.65-28.95zM18.764 75.524c.536-2.646 2.05-10.688 1.863-16.005.555.187 1.055.307 1.443.376.46 2.376 2.28 9.618 7.93 16.245-2.388.423-7.032.91-11.237-.615zm52.19.613c5.65-6.626 7.467-13.866 7.93-16.242.387-.07.887-.19 1.442-.376-.186 5.317 1.328 13.36 1.863 16.005-4.196 1.52-8.844 1.034-11.236.613zM58.664 66.75c-2.43.622-5.063.935-7.83.935-2.784 0-5.674-.317-8.586-.944-.31-.058-.626.01-.87.21-.243.195-.384.49-.384.804 0 5.227 4.253 9.48 9.48 9.48 5.23 0 9.482-4.253 9.482-9.48 0-.32-.148-.62-.4-.817a1.014 1.014 0 0 0-.893-.186zm-8.19 8.413c-3.648 0-6.687-2.65-7.298-6.125 2.594.477 5.164.718 7.658.718 2.414 0 4.738-.226 6.932-.675-.627 3.454-3.658 6.083-7.292 6.083z"/></svg>