<svg xmlns="http://www.w3.org/2000/svg" viewBox="0 0 100 100" height="100" width="100"><g fill="#4A4A4A"><path d="M53.1 85.6c-10.7 0-21.7-2.4-21.8-2.5l-.7-.1-.1-.7s-.5-4.5-.8-6c-.2-1.1-2-2.5-2.3-2.7-.5-.3-4.2-2.5-4.9-2.9L18 67.9l5.2.9c.8.1 19 3.2 21.3 3.9.2 0 .5.2.9.3.8.3 2.2.8 3.9 1.3h.2c.9.1 4.4.3 7.3.3 2.1 0 3.1-.1 3.5-.2 1.5-.3 2.3-3.1 2.4-4l.1-.8h.8c.2 0 4.5-.2 6.4-.2h.2c.7 0 7.1-.8 11-1.3l1.2-.2-.6 7.4h-2.6c-.1 0-.3.4-.4.6l-1.1 6.7-.6.2c-.1 0-10.8 2.5-22 2.8h-2zm-20.6-4.3c2.7.6 13 2.5 22.5 2.2 9.5-.3 18.5-2.1 21-2.6l1-5.6c.1-.2.7-2.1 2.3-2.1h.7l.2-3.1c-2.8.4-9.2 1.2-10 1.2H70c-1.4 0-4.1.1-5.5.2-.3 1.5-1.3 4.4-3.8 4.9-.8.2-2.1.2-3.9.2-2.9 0-6.5-.2-7.5-.3-.2 0-.4-.1-.6-.1-1.8-.5-3.2-1-4-1.4-.4-.1-.6-.2-.7-.3-1.3-.4-9.2-1.8-15.7-2.9.1 0 .1.1.2.1.6.3 3 2.1 3.4 4.1 0 1.2.4 4.2.6 5.5z"/><path d="M66.1 69.6c-.2 0-.4-.1-1-.3-1.7-.6-6.9-2.5-13.1-2.5-4 0-7.7.8-11.1 2.3l-.7.3-.5-.6c-.1-.1-8.7-10.9-2.2-22.1 4.2-7.3 4.7-7.5 5.1-7.6h.3l25.8-.1-.8 1.5c0 .1-4.4 8-3.7 16.2.4 5 2 10.5 2.6 11.2l.6.4-.4 1.4-.9-.1zM43.3 41c-.4.5-1.5 2-4.1 6.6-4.9 8.6 0 17 1.6 19.3 3.4-1.5 7.2-2.2 11.2-2.2 5.1 0 9.6 1.2 12.1 2.1-1-2.8-1.8-7.2-2-10.1-.5-6.7 1.9-13 3.2-15.8l-22 .1zM68.7 36.9l-3.1-1.1c-.1 0-6-2.2-11.9-2-6.5.2-8.5 1.8-8.5 1.8l-1.2.9-.4-1.4c-2.4-7.8 2.8-13.4 3-13.6l.3-.3 17.6.1-.1 1.1c0 .1-.6 7.9 2.3 11.9l2 2.6zM47.8 23.2c-.9 1.1-3.6 4.9-2.6 10.1 1.4-.6 3.9-1.4 8.4-1.5 4-.1 7.9.7 10.3 1.4-1.5-3.5-1.5-7.9-1.5-9.8l-14.6-.2z"/><path d="M56.4 76.5h-3.9l.4-11.7 3.8.4zM23.4 59c-.4 0-.9-.2-1.3-.9-1.2-2.1-1.7-9.3 1.9-12.4l.3-.2h14.4v2H25c-2.5 2.5-1.9 7.9-1.3 9.4 6.7-2.1 12.2-1.3 12.5-1.2l-.3 2c-.1 0-5.6-.8-12.1 1.3h-.4zM10.8 70.8l-.2-.1c-5.3-2-5.5-8.7-5.5-9v-1l19.6-.9-.2 1.2c-.9 5.4 5.9 6.8 6.2 6.8l-.2 2s-3.3-.2-6.7-.2c-2.8 0-4.8.1-6 .3-3 .6-6.5.7-6.7.7l-.3.2zm-3.6-8.1c.2 1.7 1.1 5 3.9 6.1.8 0 3.7-.2 6.2-.7 1.3-.2 3.5-.4 6.4-.4h1.7c-1.7-1.3-3-3.2-3-5.8l-15.2.8zM91.4 68l-2.6-1.3c-6-3-12.4-3.7-16.7-3.7-4.5 0-7.7.7-7.7.7l-1 .2-.9-4.1 33.9-28.7-2.5 4.7s-2 3.8-3.6 9.3c-3.6 12.5-.1 20.1-.1 20.2l1.2 2.7zm-19.3-7c4 0 9.7.5 15.4 2.9-.9-3.3-1.9-10 .8-19.3.6-2.2 1.3-4.1 1.9-5.6L64.7 60.6l.2 1c1.3-.2 3.9-.6 7.2-.6zM70.4 79.8c-.5 0-.9-.2-1.2-.6-.3-.3-.4-.8-.4-1.2 0-.4.2-.9.6-1.1.7-.6 1.8-.5 2.3.1.6.7.5 1.7-.1 2.3-.4.4-.8.5-1.2.5zm0-2c-.1 0-.2 0-.2.1-.1.1-.2.3 0 .5.1.1.3.1.5 0 .1-.1.1-.1.1-.2s0-.2-.1-.2c-.1-.2-.2-.2-.3-.2zM65.3 80.5c-.5 0-.9-.2-1.2-.6-.6-.7-.6-1.7.1-2.3.7-.6 1.8-.5 2.3.1.6.7.5 1.7-.1 2.3-.3.3-.7.5-1.1.5zm0-2c-.1 0-.2 0-.2.1-.1.1-.2.3 0 .5.1.1.3.1.5 0 .1-.1.2-.3 0-.5-.1-.1-.2-.1-.3-.1zM60.2 81.1c-.5 0-.9-.2-1.2-.6-.3-.3-.4-.8-.4-1.2 0-.4.2-.8.6-1.1.7-.6 1.8-.5 2.3.1.6.7.6 1.7-.1 2.3-.4.4-.8.5-1.2.5zm0-2c-.1 0-.2 0-.2.1-.1.1-.2.3 0 .5.1.1.3.1.5 0 .1-.1.1-.1.1-.2s0-.2-.1-.2c-.1-.1-.2-.2-.3-.2zM54.9 81.4c-.5 0-.9-.2-1.2-.6-.3-.3-.4-.8-.4-1.2 0-.4.2-.8.6-1.1.7-.6 1.8-.5 2.3.1.3.3.4.8.4 1.2 0 .4-.2.8-.6 1.1-.3.4-.7.5-1.1.5zm0-2c-.1 0-.2 0-.2.1-.1.1-.1.1-.1.2s0 .2.1.2c.1.1.3.1.5 0 .1-.1.1-.1.1-.2s0-.2-.1-.2-.2-.1-.3-.1zM49.2 81.1c-.5 0-.9-.2-1.2-.6-.3-.3-.4-.8-.4-1.2 0-.4.2-.8.6-1.1.7-.6 1.8-.5 2.3.1.6.7.6 1.7-.1 2.3-.4.4-.8.5-1.2.5zm0-2c-.1 0-.2 0-.2.1-.1.1-.2.3 0 .5.1.1.3.1.5 0 .1-.1.1-.1.1-.2s0-.2-.1-.2c-.1-.1-.2-.2-.3-.2z"/><path d="M74.7 52.1V36.3l.6-.3c.8-.3 1.5-.2 2 .3s.5 1.2.5 1.4l.4 11.3-3.5 3.1zM74.7 70.8v-8.6h2v.4h1.5v7.8zM20.7 23l10-5.9L24 16l3-1.4c1.8-.8 3.8-1.2 6-1.2 1.9 0 3.5.3 4.4.5l.3.1c.4.1.8.1 1.1.1 1 0 2.1-.3 3.2-1.1 2.9-1.8 7-2.2 9.9-2.2 1.9 0 3.3.2 3.3.2l1.1.1-.2 1c-.4 2.2 0 4.4 0 4.5l.3 1.4-1.4-.2c-1.4-.2-2.7-.3-3.9-.3-4.2 0-6 1.2-7.1 1.9-.9.6-2.2.9-3.9.9-1.4 0-2.9-.2-4.5-.5-.4-.1-.8-.1-1.3-.1-2.5 0-5.6.9-5.6.9l-8 2.4zm13.5-5.3c.7 0 1.2.1 1.7.2 1.4.3 2.9.5 4.1.5 1.7 0 2.5-.3 2.8-.5 1.2-.8 3.5-2.3 8.3-2.3.9 0 1.8.1 2.8.2-.1-.7-.1-1.7 0-2.8-2.3-.1-7.7-.2-10.9 1.8-1.5.9-2.8 1.4-4.3 1.4-.5 0-.9 0-1.4-.1l-.3-.3c-.9-.2-2.5-.5-4.3-.4l3.7.6-2.8 1.7h.6zM77 82.7l-.4-2 3.3-.6c0-.6 0-1.3-.2-1.6-.8-1-2.2-3-2.3-3.1l1.6-1.1s1.4 2 2.2 3c1 1.3.6 3.6.5 3.9l-.1.6-4.6.9zM19.9 61.9h-5.4l-5.4-4.4 1.1-1.6zM34.4 47.4h-3.1V34.2l.6-.3c.1-.1.6-.3 1.1-.3.7 0 1.1.4 1.3.9.1.2.1.3.1 11.9v1zM34.4 72.4l-3-.4V55.9h3v16.5z"/><g><path d="M56.5 23.2h-3v-12l.7-.2c.2-.1.4-.1.6-.1.8 0 1.3.5 1.5.8l.1.2.1 11.3zM56.6 40.9h-3.1v-9.2l1.1.1c.3 0 .7 0 1.1.1l.9.1v8.9z"/></g></g></svg>