<svg xmlns="http://www.w3.org/2000/svg" viewBox="0 0 100 100" height="100" width="100"><g fill="#4A4A4A"><path d="M50.4 80.7c-.3 0-.6-.1-.8-.4l-5.4-7.1-7.8 4.3c-.3.2-.6.2-.9 0-.3-.1-.5-.4-.6-.7l-2.1-8.7-8.8.9c-.3 0-.6-.1-.8-.3-.2-.2-.3-.5-.2-.9l1.6-8.8-8.4-3c-.3-.1-.5-.3-.6-.6-.1-.3 0-.6.1-.9l5.1-7.3-6.5-6.1c-.2-.2-.3-.5-.3-.8 0-.3.2-.6.5-.7l7.6-4.6-3.4-8.2c-.1-.3-.1-.6.1-.9.2-.3.4-.5.7-.5l8.8-1.1.2-8.9c0-.3.2-.6.4-.8.3-.2.6-.2.9-.1l8.5 2.5 3.8-8c.1-.3.4-.5.7-.5.3-.1.6 0 .9.2l6.8 5.8 6.8-5.8c.2-.2.6-.3.9-.2.3.1.6.3.7.5l3.8 8 8.5-2.5c.3-.1.6 0 .9.1.3.2.4.5.4.8l.2 8.9 8.8 1.1c.3 0 .6.2.7.5.2.3.2.6.1.9L78.9 35l7.6 4.6c.3.2.4.4.5.7 0 .3-.1.6-.3.8l-6.5 6.1 5.1 7.3c.2.3.2.6.1.9-.1.3-.3.5-.6.6l-8.4 3 1.6 8.8c.1.3 0 .6-.2.9-.2.2-.5.4-.8.3l-8.9-.7L66 77c-.1.3-.3.6-.6.7-.3.1-.6.1-.9 0l-7.8-4.3-5.4 7.1c-.3.1-.6.2-.9.2zM44.5 71c.3 0 .6.1.8.4l5.1 6.7 5.1-6.7c.3-.4.8-.5 1.3-.3l7.4 4 2-8.2c.1-.5.6-.8 1.1-.8l8.4.7-1.6-8.3c-.1-.5.2-1 .7-1.1l8-2.8-4.8-7c-.3-.4-.2-1 .1-1.3l6.1-5.8-7.2-4.4c-.4-.3-.6-.8-.4-1.2l3.2-7.8-8.3-1.1c-.5-.1-.9-.5-.9-1l-.2-8.5-8.1 2.5c-.5.1-1-.1-1.2-.5l-3.6-7.6-6.5 5.4c-.4.3-.9.3-1.3 0l-6.4-5.5-3.6 7.6c-.2.4-.7.7-1.2.5l-8.1-2.4-.2 8.5c0 .5-.4.9-.9 1l-8.4 1.1 3.2 7.8c.2.5 0 1-.4 1.2l-7.2 4.4 6.1 5.8c.4.3.4.9.1 1.3l-4.8 7 8 2.8c.5.2.7.6.7 1.1L25 66.8l8.4-.7c.5 0 .9.3 1.1.8l2 8.2 7.4-4c.2-.1.4-.1.6-.1z"/><path d="M35.2 92.1c-.1 0-.1 0 0 0-.4 0-.7-.2-.9-.6l-3-6.5-7.1 1.3c-.4.1-.8-.1-1-.4-.2-.3-.3-.7-.1-1.1l9.5-18.5 1.8.9L25.8 84l5.8-1.1c.5-.1.9.1 1.1.6l2.5 5.4 8.6-16.7 1.8.9L36 91.5c-.1.4-.5.6-.8.6zM65.6 92.1c-.4 0-.7-.2-.9-.5L55.2 73l1.8-.9 8.6 16.7 2.5-5.4c.2-.4.6-.6 1.1-.6L75 84l-8.6-16.7 1.8-.9 9.5 18.5c.2.3.1.7-.1 1.1-.2.3-.6.5-1 .4l-7-1.4-3 6.5c-.2.3-.6.6-1 .6z"/></g></svg>