<svg xmlns="http://www.w3.org/2000/svg" viewBox="0 0 100 100" height="100" width="100"><g fill="#4A4A4A"><path d="M63.7 90.3c-2.3 0-4.6-.5-6.6-1.5-.5.2-1-.1-1.2-.5 0 0 0-.1-.1-.1-2.6-1.5-4.7-3.8-6-6.8l-.8-1.8c-.2-.1-.4-.3-.5-.5-.1-.2-.1-.5 0-.7l-1.3-3c-8-1.7-14.7-7.1-18.1-14.5-5.7-12.9.2-28.1 13.3-33.9 6.3-2.8 13.3-3 19.8-.6 6.4 2.4 11.5 7.2 14.3 13.5 3.3 7.4 2.8 16-1.3 23.1l2.7 6c1.4 3.1 1.6 6.4.9 9.4.1.3 0 .6-.2.9-1.2 4.2-4.2 7.8-8.5 9.8-2.2.7-4.3 1.2-6.4 1.2zm-4.1-2.7c3 .9 6.4.8 9.5-.5 3.1-1.4 5.4-3.8 6.8-6.7l-16.3 7.2zM53.9 84c.9 1 2.1 1.9 3.3 2.6l19.6-8.7c.3-1.3.4-2.7.3-4.1L53.9 84zM51 79.1l.6 1.4c.3.7.6 1.3 1 1.9l24-10.7c-.2-.7-.4-1.3-.7-2l-.6-1.4-12.2 5.4L51 79.1zm2-52.5c-3.3 0-6.7.7-9.8 2.1C31.2 34.1 25.7 48.1 31 60c3 7 9.4 12 17 13.5.3.1.6.3.7.6l1.4 3.2 11.3-5-6.9-15.6c-.2-.5 0-1.1.5-1.3.5-.2 1.1 0 1.3.5l6.9 15.6 11.3-5-1.4-3.2c-.1-.3-.1-.6.1-.9 4-6.6 4.5-14.8 1.4-21.8-2.6-5.8-7.2-10.2-13.2-12.4-2.7-1.1-5.6-1.6-8.4-1.6z"/><path d="M53.3 58c-2.7 0-5.3-1.5-6.5-4.2-.2-.5 0-1.1.5-1.3.5-.2 1.1 0 1.3.5 1.1 2.5 4.1 3.7 6.7 2.5 1.2-.6 2.2-1.6 2.7-2.8.5-1.3.5-2.6-.1-3.9-.2-.5 0-1.1.5-1.3.5-.2 1.1 0 1.3.5.8 1.7.8 3.6.1 5.4-.7 1.8-2 3.2-3.8 3.9-.7.5-1.7.7-2.7.7zM26.7 32.3c-.2 0-.4-.1-.6-.2l-6.6-5.3c-.4-.3-.5-1-.2-1.4.3-.4 1-.5 1.4-.2l6.6 5.3c.4.3.5 1 .2 1.4-.2.3-.5.4-.8.4zM39 22.8c-.4 0-.7-.2-.9-.6l-3.4-7.7c-.2-.5 0-1.1.5-1.3.5-.2 1.1 0 1.3.5l3.4 7.7c.2.5 0 1.1-.5 1.3-.2 0-.3.1-.4.1zm15.5-3c-.6 0-1-.5-1-1.1l.5-8.4c0-.6.5-1 1.1-.9.6 0 1 .5.9 1.1l-.5 8.4c0 .5-.5.9-1 .9z"/></g></svg>