<svg xmlns="http://www.w3.org/2000/svg" viewBox="0 0 100 100" height="100" width="100"><g fill="#4A4A4A"><path d="M68.618 35.207l1.94.49L69.8 38.7l-1.94-.488zM82.82 59.034l-3.005-.757.49-1.94 3.005.758zM61.426 71.742l-1.94-.49.758-3.005 1.94.49zM47.3 47.96l3.007.757-.488 1.94-3.008-.757zM52.452 39.836l2.224 2.16-1.393 1.435-2.224-2.16zM77.28 39.478l1.436 1.393-2.16 2.226-1.434-1.392zM77.59 67.127l-2.224-2.16 1.393-1.434 2.223 2.16zM52.77 67.503l-1.436-1.393 2.16-2.225 1.434 1.393zM47.496 59.612l-.56-1.92 2.978-.866.558 1.92zM60.76 35.38l.864 2.978-1.92.558-.866-2.977zM64.1 53.4c.1.4.5.7 1 .7h.3l17.7-4.8c.5-.1.8-.7.7-1.2-.1-.5-.7-.8-1.2-.7l-17.7 4.8c-.6.1-.9.6-.8 1.2zM69.235 71.603l-.864-2.976 1.92-.558.866 2.975z"/><path d="M71.4 29.2c-1.2-.3-2.3-.5-3.5-.6-.9-.1-1.7-.1-2.6-.1-5.5 0-10.7 1.8-14.9 4.9v-.2c-.2-1.2-1.4-2.1-2.6-1.9l-2.6.5-.4-2.2c-.1-.5-.6-.9-1.2-.8-.5.1-.9.6-.8 1.2l.4 2.2-8 1.4-.5-2.9c-.1-.5-.6-.9-1.2-.8-.5.1-.9.6-.8 1.2l.5 2.9-8.4 1.4-.5-2.7c-.1-.5-.6-.9-1.2-.8-.5.1-.9.6-.8 1.2l.5 2.7-7.4 1.3-.4-2.2c-.1-.5-.6-.9-1.2-.8-.5.1-.9.6-.8 1.2l.4 2.2-2.6.5c-.6.1-1.1.4-1.5.9-.4.5-.5 1.1-.4 1.7l6.3 37c.2 1.1 1.1 1.9 2.3 1.9h.4l31.6-5.4.4-.2-1.7-1.6-30.7 5.2h-.1c-.1 0-.3-.1-.3-.2l-4.8-28 29.5-5c.4-.8.7-1.5 1.2-2.2l-31 5.3-1.2-7.1c0-.1 0-.2.1-.2 0 0 .1-.1.2-.1l2.6-.5.4 2.2c.1.5.5.8 1 .8h.2c.5-.1.9-.6.8-1.2l-.4-2.2 7.4-1.3.3 1.8c.1.5.5.8 1 .8h.2c.5-.1.9-.6.8-1.2l-.4-2.1 8.4-1.4.3 1.6c.1.5.5.8 1 .8h.2c.5-.1.9-.6.8-1.2l-.3-1.6 8-1.4.4 2.2c.1.5.5.8 1 .8h.2c.5-.1.9-.6.8-1.2l-.4-2.2 2.7-.5c.1 0 .3.1.3.2l.2 1.4c-1.5 1.4-2.9 2.9-4 4.6-1.6 2.4-2.8 5-3.6 7.9-3.4 13.4 4.8 27 18.1 30.3 2 .5 4.1.8 6.1.8 11.5 0 21.4-7.8 24.2-18.9 3.5-13.2-4.6-26.8-18-30.1zM87.6 59a22.98 22.98 0 0 1-22.3 17.4c-1.9 0-3.8-.2-5.6-.7C47.4 72.6 39.9 60.1 43 47.8c2.6-10.2 11.7-17.4 22.3-17.4 1.9 0 3.8.2 5.6.7C83.2 34.2 90.7 46.7 87.6 59z"/><path d="M25.9 51.6c-1.9.3-3.3 1.3-4 3-.7 1.6-.8 4-.3 7 .5 2.9 1.4 5.1 2.6 6.5s2.8 1.9 4.7 1.6c2-.3 3.3-1.3 4-3 .7-1.7.8-4 .3-7-.5-2.9-1.4-5.1-2.6-6.4-1.2-1.5-2.8-2-4.7-1.7zm5.4 14c-.4 1.3-1.3 2-2.6 2.3-1.3.2-2.4-.2-3.2-1.3-.8-1.1-1.4-2.9-1.8-5.4-.4-2.5-.4-4.4 0-5.7.4-1.3 1.3-2 2.6-2.2 1.3-.2 2.4.2 3.2 1.3.8 1.1 1.4 2.9 1.8 5.4.4 2.5.4 4.4 0 5.6zM39.6 51.1l.3-1.8h-.2c-1.7.3-2.9 1-3.7 2.3-.8 1.2-1.1 2.7-.8 4.6.3 1.7 1 2.9 2 3.6.9.6 2 .9 3.2.8-.2-.6-.4-1.1-.5-1.7-.5-.1-1-.3-1.4-.6-.7-.6-1.1-1.4-1.3-2.6-.2-1.3-.1-2.4.4-3.2.4-.7 1.1-1.2 2-1.4zM40.8 67.6c.9-.2 1.7-.4 2.5-.7-.2-.4-.5-.9-.8-1.5-.6.3-1.2.5-2 .6-.8.1-1.6.2-2.2.1l.3 1.7c.5 0 1.3 0 2.2-.2z"/></g></svg>