<svg xmlns="http://www.w3.org/2000/svg" width="100" height="100" viewBox="0 0 100 100"><path fill="#4A4A4A" d="M63.585 19.555c-1.607 0-3.1.917-4.24 2.637-4.046 6.1-8.23 12.41-27.163 12.41l-1.024-.007c-6.818-.078-11.025-.104-13.604-.104-2.9 0-4.104 0-4.612.218-2.068.418-7.535 2.387-7.948 11.512a1.06 1.06 0 0 0-.033.295c.003.018 0 .233 0 .252a1.01 1.01 0 0 0 .034.286c.41 9.134 5.88 11.103 7.948 11.523.51.215 1.715.215 4.612.215h.083l11.335 18.56c.633.983 2.21 2.312 4.565 2.312 1.015 0 2.178-.248 3.47-.878 6.608-3.218 6.608-3.218 6.09-4.284L34.03 58.72c.923.022 1.813.058 2.662.11.106.037.214.068.332.068.058 0 .107-.024.163-.033 14.69 1.038 18.5 6.712 22.193 12.278 1.105 1.664 2.598 2.58 4.207 2.58 1.15 0 2.31-.484 3.185-1.332.868-.838 1.365-1.936 1.365-3.006V23.896c0-2.272-2.17-4.34-4.552-4.34zM40.743 74.603c-.75.38-2.125 1.064-4.653 2.297-3.578 1.744-5.187-.438-5.34-.663L20.09 58.783c2.572-.012 6.126-.04 11.07-.098l.433-.003 9.15 15.92zm-4.768-17.928a78.354 78.354 0 0 0-3.793-.092l-1.048.006c-12.208.136-16.018.105-16.994.073a1.01 1.01 0 0 0-.336-.074c-.262-.013-6.385-.408-6.724-9.825a1.32 1.32 0 0 0-.012-.125 1.3 1.3 0 0 0 .012-.127c.34-9.416 6.462-9.81 6.716-9.824a.98.98 0 0 0 .342-.075c.976-.033 4.788-.066 16.996.074l1.048.005c1.335 0 2.59-.034 3.793-.092v20.072zM66.04 69.383c0 .5-.272 1.06-.727 1.503-.487.47-1.118.74-1.728.74-.895 0-1.746-.568-2.497-1.698-3.885-5.86-7.92-11.88-23.017-13.105V36.457c15.098-1.226 19.14-7.254 23.056-13.16.712-1.078 1.564-1.647 2.458-1.647 1.322 0 2.454 1.234 2.454 2.246v45.487zm-41.59-27.83h-10.1a1.048 1.048 0 0 0 0 2.097h10.1a1.048 1.048 0 0 0 0-2.096zm0 6.697h-10.1a1.048 1.048 0 0 0 0 2.096h10.1a1.048 1.048 0 0 0 0-2.096zm60.94-21.81a1.054 1.054 0 0 0-1.47.193 1.05 1.05 0 0 0 .192 1.47c5.527 4.254 8.827 11.058 8.827 18.2 0 7.175-3.168 13.768-8.69 18.09a1.05 1.05 0 0 0-.177 1.47c.207.265.514.402.825.402.227 0 .454-.074.647-.223 6.03-4.72 9.49-11.916 9.49-19.74 0-7.786-3.604-15.212-9.645-19.86zm-8.276 6.45a1.05 1.05 0 0 0-1.36 1.596c3.67 3.118 5.692 7.074 5.692 11.14 0 4.047-2.004 7.987-5.642 11.1a1.05 1.05 0 0 0 1.363 1.59c4.11-3.514 6.374-8.02 6.374-12.69 0-4.69-2.28-9.214-6.426-12.737z"/></svg>