<svg xmlns="http://www.w3.org/2000/svg" viewBox="0 0 100 100" height="100" width="100"><g fill="#4A4A4A"><path d="M81.3 71.1h-69c-2.3 0-4.2-1.9-4.2-4.2V21c0-2.3 1.9-4.2 4.2-4.2h70.1c2.3 0 4.2 1.9 4.2 4.2v43.9c0 .6-.4 1-1 1s-1-.4-1-1V21c0-1.2-1-2.2-2.2-2.2H12.3c-1.2 0-2.2 1-2.2 2.2v45.9c0 1.2 1 2.2 2.2 2.2h69c.6 0 1 .4 1 1 0 .5-.4 1-1 1z"/><path d="M55.2 60.4H13.7c-.6 0-1-.4-1-1V23.7c0-1.5 1.3-2.8 2.8-2.8h63.1c1.5 0 2.8 1.3 2.8 2.8v17.6c0 .6-.4 1-1 1s-1-.4-1-1V23.7c0-.4-.4-.8-.8-.8H15.5c-.4 0-.8.4-.8.8v34.6h40.5c.6 0 1 .4 1 1s-.4 1.1-1 1.1zM63.7 84.7H29.2c-.7 0-1.4 0-1.9-.6s-.4-1.3-.3-1.8c.2-1.5 2-2 3.1-2.3l.2-.1c.4-.1.9-.3 1.3-.4 4-1.1 6.6-1.9 7-6V70c0-.6.4-1 1-1h13.8c.6 0 1 .4 1 1v3.8c.4 3.6 2.7 4.4 7 5.6.4.1.9.2 1.3.4l.2.1c1.1.3 2.8.8 3.1 2.3.1.5.2 1.2-.3 1.8-.6.6-1.4.7-2 .7zm-34.8-2h35v-.1c-.1-.1-.7-.4-1.6-.7l-.2-.1c-.4-.1-.9-.3-1.3-.4-4-1.1-7.8-2.2-8.4-7.4v-3H40.5v2.6c-.5 5.5-4.3 6.6-8.4 7.8-.4.1-.9.2-1.3.4l-.2.1c-1 .3-1.6.5-1.7.8 0-.1 0 0 0 0z"/><path d="M75.1 30.9H19c-.6 0-1-.4-1-1s.4-1 1-1h56.1c.6 0 1 .4 1 1s-.5 1-1 1zM56.3 37.8H19c-.6 0-1-.4-1-1s.4-1 1-1h37.3c.6 0 1 .4 1 1s-.5 1-1 1zM33.6 45H19c-.6 0-1-.4-1-1s.4-1 1-1h14.7c.6 0 1 .4 1 1-.1.5-.5 1-1.1 1zM44.5 51.8H19c-.6 0-1-.4-1-1s.4-1 1-1h25.5c.6 0 1 .4 1 1 0 .5-.5 1-1 1z"/><path d="M88.8 76.7c-1.2 0-2.3-.5-3.1-1.3l-.2-.2-.1-.1-9.9-11.8c-2.6 1.6-5.5 2.4-8.6 2.4-4.6 0-8.9-1.9-12-5.2-3-3.2-4.6-7.4-4.5-11.8.1-4.4 2-8.5 5.2-11.5 3.1-2.9 7.1-4.5 11.3-4.5 4.6 0 9 1.9 12.1 5.2 5.4 5.8 6 14.4 1.5 20.8l11.1 10.8.3.3c.8.8 1.2 1.9 1.1 3 0 1.1-.5 2.2-1.3 2.9-.8.6-1.9 1-2.9 1zM87 73.8l.2.2c.8.9 2.2.9 3.1.1.4-.4.7-.9.7-1.5s-.2-1.1-.6-1.6l-.2-.2-.1-.1-11.7-11.3c-.3-.4-.4-1-.1-1.4 4.5-5.7 4.1-13.6-.8-18.9-2.8-3-6.5-4.6-10.6-4.6-3.7 0-7.2 1.4-9.9 3.9-2.8 2.7-4.5 6.3-4.6 10.1-.1 3.9 1.3 7.6 3.9 10.4 2.8 3 6.5 4.6 10.6 4.6 3 0 5.8-.9 8.2-2.5.4-.3 1-.2 1.3.2l10.4 12.4c.1.1.2.1.2.2z"/><path d="M66.8 61.5c-3.5 0-6.8-1.5-9.2-4-4.8-5.1-4.5-13.1.6-17.8 2.3-2.2 5.4-3.4 8.6-3.4 3.5 0 6.8 1.5 9.2 4 2.3 2.5 3.5 5.7 3.4 9-.1 3.4-1.5 6.5-4 8.8-2.3 2.2-5.3 3.4-8.6 3.4zm0-23.2c-2.7 0-5.3 1-7.3 2.9-4.3 4-4.5 10.7-.5 15 2 2.2 4.8 3.4 7.7 3.4 2.7 0 5.3-1 7.3-2.9 2.1-1.9 3.3-4.6 3.4-7.4.1-2.8-.9-5.5-2.9-7.6-1.9-2.2-4.7-3.4-7.7-3.4z"/></g></svg>