<svg xmlns="http://www.w3.org/2000/svg" viewBox="0 0 100 100" height="100" width="100"><g fill="#4A4A4A"><path d="M28.3 21.6c-.1 0-.3 0-.4-.1l-14.5-6.4c-.4-.2-.6-.5-.6-.9s.2-.8.6-.9l14.5-6.4c.3-.1.5-.1.8 0l14.5 6.4c.4.2.6.5.6.9s-.2.8-.6.9l-14.5 6.4c-.1 0-.2.1-.4.1zm-12-7.5l12.1 5.3 12.1-5.3-12.2-5.3-12 5.3z"/><path d="M27.3 20.6h2v72.1h-2z"/><path d="M28.3 93.7c-.1 0-.3 0-.4-.1l-14.5-6.4c-.4-.2-.6-.5-.6-.9V14.1h2v71.5l13.5 6 13.5-6V14.1h2v72.1c0 .4-.2.8-.6.9l-14.5 6.4c-.1.1-.2.2-.4.2z"/><path d="M50.8 35.7c-.1 0-.3 0-.4-.1l-7.9-3.5.8-1.8 7.5 3.3 12.1-5.3L50.8 23l-7.5 3.3-.8-1.8 7.9-3.5c.3-.1.5-.1.8 0l14.5 6.4c.4.2.6.5.6.9s-.2.8-.6.9l-14.5 6.4c-.2.1-.3.1-.4.1z"/><path d="M49.8 34.7h2v48.1h-2z"/><path d="M50.8 83.8c-.1 0-.3 0-.4-.1l-7.9-3.5.8-1.8 7.5 3.3 13.5-6V28.3h2v48.1c0 .4-.2.8-.6.9l-14.5 6.4c-.2.1-.3.1-.4.1z"/><path d="M72.8 50.1c-.1 0-.3 0-.4-.1l-7.5-3.3.8-1.8 7.1 3.1 12.1-5.3-12.1-5.3-7.1 3.1-.8-1.8 7.5-3.3c.3-.1.5-.1.8 0l14.5 6.4c.4.2.6.5.6.9s-.2.8-.6.9L73.2 50c-.1 0-.2.1-.4.1z"/><path d="M71.8 49.1h2V73h-2z"/><path d="M72.8 73.9c-.1 0-.3 0-.4-.1l-7.6-3.3.8-1.8 7.2 3.2 13.5-6V42.7h2v23.9c0 .4-.2.8-.6.9l-14.5 6.4h-.4z"/></g></svg>