<svg xmlns="http://www.w3.org/2000/svg" width="100" height="100" viewBox="0 0 100 100"><path fill="#4A4A4A" d="M77.476 48.512c-.296-1.293-1.154-2.312-2.552-3.03-1.043-.54-2.052-.802-3.022-.79.19-.707.21-1.485.054-2.31-.735-3.92-5.295-8.33-7.435-9.327-1.388-.648-4.09-.745-5.576-.745-2.525 0-5.84.278-8.234.997.378-4.213 1.317-14.7 1.566-17.69.235-2.813-1.936-5.068-4.11-5.407-1.938-.32-3.51.883-4 3.023-.476 2.057-1.203 9.446-1.84 16.684-1.723-5.582-4.503-12.994-7.495-14.503-.765-.386-1.56-.43-2.295-.125-4.34 1.793-1.91 9.808.443 17.557.674 2.22 1.306 4.315 1.693 6.02-3.56-4.518-9.316-10.503-13.273-8.037-.487.194-.84.58-.995 1.086-.552 1.8 1.47 5.037 6.564 12.55 3.388 4.995 7.605 11.212 7.715 13.604.014.28.136.528.317.715-.188.63-.317 1.167-.317 1.5 0 3.02 2.72 23.76 2.835 24.642.304 2.343 3.257 3.433 9.292 3.433 3.206 0 6.29-.315 7.463-.436 2.418-.242 5.125-3.545 6.896-8.416 2.186-6.01 5.018-11.42 8.658-16.54.66-.93 1.38-1.886 2.106-2.847 3.237-4.288 6.293-8.34 5.546-11.608zM46.32 13.73c.35-1.516 1.22-1.382 1.504-1.334 1.032.16 2.386 1.393 2.25 3.036-.284 3.406-1.463 16.525-1.687 19.02-1.18 1.046-2.918 3.56-4.778 6.67.663-8.3 2.01-24.355 2.71-27.392zm-12.94 3.6c.064-.025.186-.077.456.06 2.704 1.363 6.29 12.178 7.955 18.803-.383 4.638-.673 8.4-.755 9.463a144.48 144.48 0 0 0-1.915 3.66c-.535-2.7-1.355-6.735-2.256-10.79-.403-1.81-1.068-4.002-1.77-6.32-1.674-5.515-4.2-13.847-1.714-14.875zm-4.585 25.894c-2.588-3.813-6.088-8.976-6.268-10.507 3.234-1.624 10.256 6.897 13.303 11.518a539.98 539.98 0 0 1 1.682 8.382 83.37 83.37 0 0 0-1.283 2.87c-1.283-3.176-4.282-7.613-7.435-12.263zm41.37 15.564a134.29 134.29 0 0 0-2.144 2.895c-3.756 5.288-6.677 10.872-8.932 17.068-1.78 4.892-4.035 6.874-5.205 6.99-.986.102-3.985.408-7.078.408-5.46 0-7.03-.985-7.1-1.51-.973-7.416-2.816-22.05-2.816-24.355 0-2.45 10.406-22.764 13.11-24.33 1.437-.83 5.197-1.434 8.943-1.434 2.576 0 4.11.288 4.642.537 1.55.723 5.623 4.666 6.198 7.73.18.954-.004 1.7-.56 2.282-.587.612-1.05.684-1.347.684-1.154 0-2.627-1.257-3.924-2.367-1.367-1.168-2.658-2.27-4.017-2.423a25.178 25.178 0 0 0-2.763-.145c-1.632 0-2.788.14-2.836.146l-.77.095-.172.757c-.595 2.62-1.886 8.9-1.013 10.638.283.56 2.824 5.48 5.148 5.48l.505-.045c1.462-.162 4.883-.542 7.357-3.677.57-.72 1.095-1.606 1.65-2.546 1.39-2.343 2.825-4.765 4.935-4.765.584 0 1.236.18 1.937.542 1.068.55 1.315 1.153 1.408 1.56.518 2.265-2.496 6.26-5.155 9.784zm-3.293-10.95c-.648.875-1.21 1.825-1.732 2.704-.517.872-1.006 1.697-1.484 2.304-1.9 2.408-4.48 2.695-5.865 2.848l-.2.04c-.614-.174-2.276-2.367-3.228-4.26-.32-.785.25-4.807 1.016-8.38.923-.064 2.557-.124 4.313.07.684.076 1.822 1.047 2.825 1.904 1.316 1.125 2.777 2.373 4.357 2.77z"/></svg>