<svg width="355" height="402" viewBox="0 0 355 402" xmlns="http://www.w3.org/2000/svg" xmlns:xlink="http://www.w3.org/1999/xlink"><title>Group 3</title><defs><rect id="a" width="231.874" height="295.92" rx="2.174"/><rect id="b" width="231.874" height="295.92" rx="2.174"/><rect id="c" width="231.874" height="295.92" rx="2.174"/></defs><g fill="none" fill-rule="evenodd"><g transform="translate(72.602 30.06)"><use stroke="#516B35" stroke-width="4.054" stroke-linejoin="round" fill="#F6F6F6" xlink:href="#a" transform="translate(1.209)"/><path d="M106.928 47.925h105.778M106.735 72.225h105.777M22.881 99.225h188.39M22.073 126.225h188.39M24.315 150.525h188.39M24.315 180.225h188.39M24.315 204.525h188.39M24.315 231.525h188.39M24.315 258.525h188.39" stroke="#516B35" stroke-width="4.054" stroke-linecap="square"/><rect stroke="#516B35" stroke-width="4.054" stroke-linejoin="round" fill="#9CCC65" x="23.748" y="45.371" width="69.154" height="27.861" rx="1.304"/></g><g transform="translate(103.584 17.534)"><use stroke="#516B35" stroke-width="4.054" stroke-linejoin="round" fill="#F9F9F9" xlink:href="#b" transform="translate(1.209)"/><path d="M106.928 47.925h105.778M106.735 72.225h105.777M22.881 99.225h188.39M22.073 126.225h188.39M24.315 150.525h188.39M24.315 180.225h188.39M24.315 204.525h188.39M24.315 231.525h188.39M24.315 258.525h188.39" stroke="#516B35" stroke-width="4.054" stroke-linecap="square"/><rect stroke="#516B35" stroke-width="4.054" stroke-linejoin="round" fill="#9CCC65" x="23.748" y="45.371" width="69.154" height="27.861" rx="1.304"/></g><g transform="translate(135.39 5.007)"><use stroke="#516B35" stroke-width="4.054" stroke-linejoin="round" fill="#FFF" xlink:href="#c" transform="translate(1.209)"/><path d="M106.928 47.925h105.778M106.735 72.225h105.777M22.881 99.225h188.39M22.073 126.225h188.39M24.315 150.525h188.39M24.315 180.225h188.39M24.315 204.525h188.39M24.315 231.525h188.39M24.315 258.525h188.39" stroke="#516B35" stroke-width="4.054" stroke-linecap="square"/><rect stroke="#516B35" stroke-width="4.054" stroke-linejoin="round" fill="#9CCC65" x="23.748" y="45.371" width="69.154" height="27.861" rx="1.304"/></g><g transform="translate(0 145.4)" stroke="#516B35"><path d="M265.436 43.2h4.644c1.966 0 3.569-1.6 3.569-3.572V3.572A3.564 3.564 0 0 0 270.08 0H120.46a3.573 3.573 0 0 0-3.568 3.572v36.056a3.564 3.564 0 0 0 3.569 3.572h4.644a3.541 3.541 0 0 1-.105-.856V11.656a3.564 3.564 0 0 1 3.562-3.556h133.417c1.967 0 3.562 1.6 3.562 3.556v30.688c0 .295-.037.582-.105.856z" stroke-width="4.054" fill="#9CCC65"/><rect stroke-width="4.054" fill="#FFF" x="25" y="27.727" width="336.591" height="214.041" rx="5.405"/><rect stroke-width="4.054" fill="#F6F6F6" x="25" y="27.727" width="336.591" height="100.599" rx="5.405"/><g transform="translate(.418 171.697)" stroke-width="4.279"><ellipse fill="#9CCC65" cx="42.521" cy="42.452" rx="42.521" ry="42.452"/><path d="M26.912 48.417l12.342 10.988 19.29-33.612" stroke-linecap="round" stroke-linejoin="round"/></g><rect stroke-width="4.054" fill="#9CCC65" x="162.924" y="118.723" width="61.458" height="24.202" rx="1.426"/></g></g></svg>