<svg width="372" height="393" viewBox="0 0 372 393" xmlns="http://www.w3.org/2000/svg" xmlns:xlink="http://www.w3.org/1999/xlink"><title>find talent</title><defs><path id="a" d="M0 0h398v398H0z"/><path d="M0 21.527V388.02a3.317 3.317 0 0 0 3.325 3.324h294.033a3.317 3.317 0 0 0 3.326-3.324V3.324A3.317 3.317 0 0 0 297.358 0H27.604h24.279L0 39.73V21.527z" id="c"/><ellipse id="d" cx="65.727" cy="63.922" rx="64.951" ry="65.007"/><path d="M26.12 140.628l7.827 3.484a5.49 5.49 0 0 0 2.957 6.81l110.705 49.29a5.485 5.485 0 0 0 7.243-2.772l7.135-16.025c1.23-2.764-.023-6.007-2.787-7.237l-110.705-49.29a5.485 5.485 0 0 0-7.243 2.772l-.254.57-5.331-2.373c5.164-10.41 8.067-22.141 8.067-34.55 0-42.994-34.851-77.847-77.843-77.847-42.992 0-77.844 34.853-77.844 77.847 0 42.993 34.852 77.846 77.844 77.846 24.274 0 45.953-11.111 60.23-28.525zm-59.883 16.709c35.54 0 64.35-29.096 64.35-64.988 0-35.891-28.81-64.987-64.35-64.987-35.54 0-64.351 29.096-64.351 64.987 0 35.892 28.81 64.988 64.35 64.988z" id="e"/></defs><g transform="translate(-2 -2)" fill="none" fill-rule="evenodd"><mask id="b" fill="#fff"><use xlink:href="#a"/></mask><use xlink:href="#a"/><g transform="translate(55.72 2.662)" mask="url(#b)"><use stroke="#516B35" stroke-width="3.98" stroke-linejoin="round" fill="#FFF" xlink:href="#c" transform="translate(38.714)"/><path d="M175.806 60.363h137.167M175.555 94.857h137.167M175.555 132.003h137.167M68.678 200.99h244.295M65.77 166.497h244.295M68.678 272.63h244.295M68.678 238.137h244.295M68.678 307.123h244.295M68.678 344.27h244.295" stroke="#516B35" stroke-width="3.98" stroke-linecap="square"/><path d="M90.905 0l.664 39.064-52.19.666L90.904 0z" stroke="#516B35" stroke-width="3.98" stroke-linejoin="round" fill="#9CCC65"/><rect stroke="#516B35" stroke-width="3.98" stroke-linejoin="round" fill="#9CCC65" x="67.942" y="60.002" width="89.676" height="90.003" rx="1.99"/><g transform="translate(0 90.213)"><use fill="#E4F5F4" opacity=".59" xlink:href="#d"/><use stroke="#516B35" stroke-width="4.146" fill="#9CCC65" transform="scale(-1 1) rotate(33 0 21.923)" xlink:href="#e"/></g></g></g></svg>