<svg width="110" height="30" viewBox="0 0 110 30" xmlns="http://www.w3.org/2000/svg" xmlns:xlink="http://www.w3.org/1999/xlink"><title>Page 1</title><defs><path id="a" d="M0 .274h109.632V30H0"/><path id="c" d="M0 .274h109.632V30H0"/></defs><g fill="none" fill-rule="evenodd"><g><mask id="b" fill="#fff"><use xlink:href="#a"/></mask><path d="M1.93 12.217c-.803-.102-1.093.456-1.324 1.062C-.986 17.456.6 22.876 4.86 24.583c.997 1.393 1.796 2.927 3.33 3.89 3.523 2.208 6.97 1.898 10.416-.14 3.586.372 6.235-1.32 8.094-4.144 1.085-1.65 1.907-3.62.807-5.715.923.046 1.18-.696 1.408-1.328 1.472-4.064.663-9.24-4.188-11.522-.175-.254-.365-.5-.524-.764C22.19 1.493 19.257-.002 15.341.316c-1.635.133-2.949.965-4.36 1.612-3.852-.552-7.912 2.435-8.955 6.103-.345 1.214-1.06 2.491-.092 3.767.038.14.036.28-.004.42" fill="#FEFEFE" mask="url(#b)"/></g><path d="M62.673 13.398c1.007 1.502 1.68 2.552 2.402 3.566.927 1.301 1.515 1.28 2.497.013.703-.908 1.108-2.06 2.281-2.918 0 2.215.041 4.193-.016 6.17-.03 1.04.374 1.406 1.38 1.396.957-.01.943-.595.942-1.265-.007-3.092-.046-6.185.02-9.276.022-1.094-.42-1.304-1.383-1.298-.858.006-1.263.461-1.663 1.09-.884 1.39-1.805 2.757-2.8 4.269-1.085-1.684-2.085-3.177-3.023-4.708-.552-.901-1.386-.675-2.11-.55-.748.128-.484.875-.487 1.376-.021 3.013-.014 6.026-.007 9.039.001.533-.12 1.155.67 1.283.858.14 1.332-.097 1.311-1.103-.046-2.176-.014-4.352-.014-7.084M100.776 15.59c0 1.586.022 3.173-.009 4.758-.018.907.357 1.29 1.264 1.278 2.132-.027 4.265-.026 6.397.001.734.01 1.202-.115 1.203-1.011.002-.87-.414-1.06-1.174-1.043-1.5.034-3-.012-4.5.012-1.359.022-.9-.992-.969-1.68-.074-.744-.082-1.42 1.035-1.364 1.497.074 3 .006 4.5.02.644.006 1.03-.158 1.035-.922.004-.71-.26-1.005-.958-.998-1.5.014-3.004-.065-4.5.024-1.058.063-1.185-.476-1.122-1.291.057-.725-.305-1.658 1.052-1.594 1.576.074 3.158.004 4.737.02.588.005.874-.224.848-.831-.024-.547.085-1.157-.768-1.155-2.369.005-4.738.007-7.107-.005-.708-.004-.976.338-.968 1.022.017 1.586.005 3.172.004 4.759M76.966 15.443c0 1.74.003 3.482 0 5.222-.002.734.45.944 1.074.942.586-.002 1.104-.096 1.159-.858.062-.855-.343-1.893.198-2.525.648-.757 1.795-.126 2.692-.378.38-.106.766-.188 1.14-.31 2.101-.683 2.954-2.048 2.736-4.356-.17-1.8-1.434-3.092-3.438-3.28-1.484-.139-2.99-.05-4.484-.094-.808-.024-1.113.319-1.091 1.128.04 1.502.011 3.006.014 4.51M44.856 21.723c.158 0 .316.008.473 0 2.094-.122 3.45-1.227 3.667-2.987.252-2.03-.43-2.986-2.715-3.768-.815-.278-1.645-.512-2.466-.774-.65-.209-1.147-.573-1.092-1.339.066-.925.78-1.103 1.508-1.19.978-.115 1.89.166 2.679.717.662.462.943.136 1.296-.383.367-.54.489-.984-.156-1.373-1.87-1.124-3.83-1.431-5.832-.445-1.236.609-1.814 1.703-1.76 3.102.05 1.328.74 2.229 1.926 2.727.648.273 1.349.416 2.019.64.594.198 1.22.35 1.756.658 1.05.605 1.005 1.589-.037 2.21-.66.394-1.368.374-2.06.197-.761-.194-1.502-.483-2.134-.979-.768-.602-1.132.046-1.52.51-.534.642.003.98.451 1.273 1.211.792 2.529 1.259 3.997 1.204M89.384 15.577c0 1.579.009 3.158-.003 4.737-.006.699.12 1.296.974 1.302 2.2.017 4.401.005 6.602.008.805.001.803-.553.815-1.135.012-.647-.16-1.05-.918-1.03-1.257.033-2.52-.062-3.772.027-1.195.085-1.455-.435-1.424-1.522.066-2.367-.004-4.737.03-7.105.013-.843-.351-1.082-1.127-1.069-.74.012-1.2.18-1.184 1.05.03 1.579.009 3.158.007 4.737M53.351 15.594c0 1.655.003 3.31 0 4.965-.002.82.458 1.058 1.203 1.082.828.028 1.102-.349 1.097-1.129-.017-3.23-.026-6.461.003-9.691.008-.873-.422-1.032-1.16-1.032-.765 0-1.17.237-1.154 1.078.03 1.575.009 3.152.011 4.727" fill="#FEFEFE"/><g><mask id="d" fill="#fff"><use xlink:href="#c"/></mask><path d="M22.784 6.152c.055-.81-.21-1.482-.854-1.99-2.224-2.25-4.781-3.14-7.85-1.94-.928-.088-1.479.589-2.131 1.06-1.343.919-2.581 1.915-2.746 3.711-.784.21-.523.883-.615 1.399-.617.395-.584 1.125-.688 1.683-.469 2.539-1.368 4.954-1.986 7.447L5.74 19.5c-.334 1.693-.161 3.275 1.007 4.64.035.781.218 1.489.946 1.927 2.283 2.306 4.896 3.21 8.03 1.91.772-.064 1.445-.316 1.894-1 1.329-.763 2.223-1.908 2.86-3.28.723-.482.515-1.37.871-2.012l2.342-8.979.162-1.942c.6-1.76.101-3.264-1.068-4.612M10.98 1.928c1.412-.647 2.726-1.48 4.36-1.612 3.917-.318 6.85 1.177 8.863 4.544.159.265.349.51.524.764.048.837.653 1.548.54 2.421l.014 4.57-.504 1.928c-.72 1.714-1.147 3.512-1.52 5.326-.848.795-.185 1.854-.474 2.747-.792 1.227-1.516 2.486-1.882 3.92-.838.505-1.767.893-2.295 1.797-3.445 2.039-6.893 2.349-10.416.14-1.534-.963-2.333-2.497-3.33-3.89.129-.857-.528-1.534-.538-2.36l-.026-4.609c.258-.606.624-1.183.518-1.89.709-1.717 1.166-3.506 1.526-5.323.76-.85.109-2.09.808-2.956.305-1.415 1.415-2.423 1.882-3.756.554-.695 1.545-.9 1.95-1.761" fill="#3D8393" mask="url(#d)"/></g><path d="M62.673 13.398c0 2.732-.032 4.908.014 7.084.021 1.006-.453 1.243-1.312 1.103-.788-.128-.668-.75-.669-1.283-.007-3.013-.014-6.026.007-9.039.003-.5-.261-1.248.487-1.376.724-.125 1.558-.351 2.11.55.938 1.531 1.938 3.024 3.024 4.708.994-1.512 1.915-2.878 2.799-4.268.4-.63.805-1.085 1.663-1.09.964-.007 1.405.203 1.382 1.297-.065 3.09-.026 6.184-.019 9.276.001.67.015 1.255-.942 1.265-1.006.01-1.41-.356-1.38-1.396.057-1.977.016-3.955.016-6.17-1.173.858-1.578 2.01-2.281 2.918-.982 1.268-1.57 1.288-2.497-.013-.723-1.014-1.395-2.064-2.402-3.566" fill="#353534"/><path d="M100.776 15.59c.001-1.587.013-3.173-.004-4.759-.008-.684.26-1.026.968-1.022 2.37.012 4.738.01 7.107.005.853-.002.744.608.768 1.155.027.607-.26.836-.848.83-1.58-.015-3.162.055-4.738-.019-1.356-.064-.994.869-1.05 1.594-.064.815.063 1.354 1.122 1.29 1.494-.088 2.999-.009 4.5-.023.697-.007.961.288.957.998-.004.764-.39.928-1.034.922-1.5-.014-3.004.054-4.5-.02-1.118-.055-1.11.62-1.036 1.363.069.689-.39 1.703.968 1.68 1.5-.023 3.002.023 4.501-.01.76-.018 1.176.171 1.174 1.042-.001.896-.469 1.02-1.203 1.011a251.215 251.215 0 0 0-6.397 0c-.907.01-1.282-.372-1.264-1.279.03-1.585.008-3.172.01-4.758" fill="#393938"/><path d="M79.199 13.766c.006 1.999.006 1.999 1.613 2.012 2.05.017 3.159-.742 3.075-2.103-.076-1.221-1.17-1.89-3.077-1.881-1.618.006-1.618.006-1.611 1.972m-2.234 1.677c-.002-1.503.027-3.007-.014-4.51-.021-.808.284-1.15 1.091-1.127 1.496.044 3-.045 4.486.095 2.002.187 3.266 1.479 3.437 3.28.218 2.307-.635 3.672-2.736 4.355-.374.122-.76.204-1.14.31-.897.252-2.044-.38-2.692.378-.54.632-.136 1.67-.198 2.525-.055.762-.573.856-1.16.858-.623.002-1.075-.208-1.074-.942.004-1.74.001-3.481 0-5.222" fill="#383837"/><path d="M44.856 21.724c-1.468.054-2.786-.413-3.997-1.205-.448-.293-.985-.63-.45-1.272.387-.465.75-1.114 1.52-.51.631.495 1.371.784 2.134.979.691.176 1.4.196 2.059-.197 1.042-.622 1.087-1.606.037-2.21-.535-.309-1.163-.46-1.756-.659-.67-.224-1.37-.368-2.02-.64-1.185-.499-1.875-1.4-1.926-2.728-.053-1.398.525-2.493 1.761-3.101 2.003-.986 3.962-.68 5.832.446.645.388.523.832.155 1.372-.352.519-.634.845-1.295.383-.79-.55-1.7-.833-2.68-.716-.727.086-1.44.264-1.508 1.189-.055.766.444 1.13 1.093 1.338.82.263 1.65.497 2.466.776 2.285.78 2.967 1.737 2.715 3.767-.218 1.76-1.573 2.865-3.667 2.986-.157.009-.315.001-.473.002" fill="#373736"/><path d="M89.385 15.577c.001-1.58.023-3.158-.008-4.736-.016-.87.444-1.039 1.185-1.05.775-.014 1.138.225 1.126 1.068-.034 2.368.036 4.738-.03 7.105-.03 1.087.23 1.607 1.424 1.522 1.251-.089 2.514.006 3.771-.027.759-.02.931.383.918 1.03-.01.582-.01 1.136-.814 1.135-2.2-.003-4.402.01-6.602-.008-.855-.006-.98-.603-.975-1.302.013-1.58.004-3.158.005-4.737" fill="#3E3E3D"/><path d="M53.35 15.594c-.001-1.575.02-3.152-.01-4.727-.016-.84.388-1.078 1.155-1.078.737 0 1.167.16 1.16 1.032-.03 3.23-.021 6.461-.003 9.691.003.78-.27 1.157-1.098 1.13-.745-.025-1.205-.264-1.203-1.083.002-1.655 0-3.31 0-4.965" fill="#3F3F3E"/><path d="M18.606 28.333c.528-.904 1.457-1.292 2.295-1.798 3.09-.762 4.818-2.494 5.197-5.206.01-1.074 1.133-1.756 1.006-2.879.134.017.268.025.403.024 1.1 2.096.278 4.065-.807 5.715-1.859 2.825-4.508 4.516-8.094 4.144" fill="#E57C65"/><path d="M27.507 18.474a2.846 2.846 0 0 1-.403-.024l.015.017c.516-.83.498-1.75.45-2.675 1.073-1.886.653-3.81-.16-5.571-.397-.862-.707-2.185-2.142-2.176.113-.873-.492-1.584-.54-2.421 4.85 2.282 5.66 7.458 4.188 11.522-.229.632-.486 1.374-1.408 1.328" fill="#7BABB5"/><path d="M10.98 1.928c-.405.86-1.396 1.066-1.95 1.761-.547-.024-1.044.09-1.572.291-2.503.958-3.559 3.083-4.453 5.363-.093.935-.725 1.632-1.07 2.455-.97-1.276-.254-2.553.091-3.767 1.043-3.667 5.102-6.655 8.955-6.103" fill="#E57D66"/><path d="M4.322 22.223c.01.825.667 1.503.539 2.36C.6 22.877-.985 17.457.607 13.279c.23-.605.52-1.163 1.323-1.061l.054.055.011 1.926c-1.24 3.301-.48 5.922 2.327 8.025" fill="#7BAAB5"/><path d="M1.935 11.798c.345-.823.977-1.52 1.07-2.455 1.562-.234 2.58-1.665 4.143-1.898-.7.867-.049 2.106-.808 2.956-.206-.22.074-1.036-.529-.682-1.048.615-2.234 1.174-2.603 2.529l-1.224.024-.054-.055a.767.767 0 0 0 .005-.419" fill="#7EABB5"/><path d="M23.69 12.706l-2.342 8.98c-3.033.63-6.004 1.484-8.943 2.462-1.969-2.401-4.248-4.496-6.491-6.626.618-2.493 1.517-4.908 1.987-7.446.103-.56.07-1.288.687-1.684 2.934-.463 5.77-1.3 8.57-2.274 2.035 2.339 4.242 4.505 6.532 6.588" fill="#FEFEFE"/><path d="M25.268 8.045c1.434-.009 1.744 1.314 2.142 2.176.811 1.76 1.232 3.685.159 5.571-.87-.981-1.076-2.444-2.288-3.178-.004-1.523-.01-3.046-.013-4.569" fill="#F6F8F9"/><path d="M4.322 22.223C1.516 20.12.756 17.499 1.995 14.198c.843 1.087.978 2.656 2.3 3.416.01 1.536.018 3.073.027 4.609M15.722 27.978c-3.133 1.3-5.746.395-8.029-1.911.444-.798 1.023-.192 1.566-.197 1.031-.01 2.314.404 2.727-1.148l.185-.048h.191c.002.13.012.258.034.385-.214 1.11.725 1.394 1.352 1.895.588.471 1.473.376 1.974 1.024" fill="#F8F9F9"/><path d="M23.69 12.706c-2.29-2.083-4.497-4.25-6.531-6.588l.037-.991h.144l.143.001c.495.559 1.122.853 1.854.939 1.206 1.856 2.895 3.243 4.515 4.697l-.162 1.942" fill="#E67F68"/><path d="M14.08 2.222c3.07-1.2 5.626-.31 7.85 1.94-.093.115-.229.347-.274.33-1.388-.512-2.715-.035-4.054.228-.867-1.27-2.468-1.494-3.522-2.498" fill="#F7F9F9"/><path d="M7.148 7.445c-1.563.233-2.58 1.664-4.143 1.898.894-2.28 1.95-4.405 4.453-5.363.529-.202 1.025-.315 1.573-.291-.468 1.333-1.578 2.341-1.883 3.756" fill="#FCFBFB"/><path d="M12.362 24.674h-.191l-.185.048c-.607-.085-1.259-.017-1.748-.509C9.133 22.262 7.376 20.94 5.74 19.5l.174-1.978c2.243 2.13 4.522 4.225 6.491 6.626l-.043.526" fill="#E67D65"/><path d="M12.362 24.674l.043-.526c2.938-.978 5.91-1.833 8.943-2.463-.356.642-.148 1.53-.87 2.013-2.257-.214-4.234.792-6.29 1.45-.598-.03-1.195-.06-1.792-.088a2.502 2.502 0 0 1-.034-.386" fill="#7AAAB5"/><path d="M26.098 21.33c-.379 2.711-2.107 4.442-5.197 5.206.366-1.433 1.09-2.693 1.882-3.92 1.237-.087 2.038-1.304 3.315-1.287" fill="#FCFBFB"/><path d="M17.196 5.127l-.038.99c-2.8.975-5.635 1.813-8.57 2.275.092-.516-.17-1.19.615-1.398L15.6 5.07l1.596.056" fill="#7CABB6"/><path d="M15.6 5.071L9.204 6.994c.165-1.797 1.403-2.794 2.746-3.711 1.174.685 2.716.613 3.652 1.788" fill="#F9F9F9"/><path d="M14.187 25.148c2.057-.658 4.035-1.664 6.29-1.45-.637 1.37-1.531 2.516-2.86 3.28-1.098-.696-2.652-.53-3.43-1.83M23.257 19.87c.373-1.815.8-3.614 1.52-5.327 1.4.897 1.245 2.522 1.774 3.826-.925.705-1.558 1.787-2.721 2.182-.698.237-.4-.436-.573-.682" fill="#F8F9F9"/><path d="M5.74 19.5c1.636 1.44 3.393 2.762 4.498 4.713l-3.49-.074c-1.17-1.364-1.342-2.946-1.008-4.639" fill="#FBF9F9"/><path d="M23.852 10.764c-1.62-1.454-3.31-2.841-4.515-4.697l3.447.085c1.17 1.348 1.669 2.851 1.068 4.612" fill="#FCFAFA"/><path d="M3.208 12.248c.37-1.355 1.555-1.914 2.603-2.529.603-.354.323.461.529.682-.36 1.817-.817 3.607-1.526 5.323-1.222-.84-1.313-2.205-1.606-3.476" fill="#F9F9F9"/><path d="M23.257 19.87c.172.245-.125.918.573.681 1.163-.395 1.796-1.477 2.721-2.182l.568.098-.015-.017c.127 1.123-.997 1.805-1.006 2.88-1.277-.018-2.078 1.2-3.315 1.286.289-.893-.374-1.951.474-2.747" fill="#7DABB5"/><path d="M27.119 18.467l-.567-.098c-.53-1.304-.375-2.929-1.774-3.826l.503-1.929c1.212.734 1.419 2.197 2.288 3.178.048.926.066 1.846-.45 2.675" fill="#E38069"/><path d="M22.784 6.152l-3.447-.085c-.732-.085-1.36-.38-1.854-.939a.7.7 0 0 0 .119-.408c1.339-.264 2.666-.74 4.054-.228.045.017.18-.215.274-.33.644.508.91 1.18.854 1.99" fill="#7EADB7"/><path d="M3.208 12.248c.293 1.271.384 2.637 1.606 3.476.106.707-.26 1.284-.519 1.89-1.322-.76-1.457-2.329-2.3-3.416l-.01-1.926 1.223-.024" fill="#E27F68"/><path d="M17.602 4.72a.699.699 0 0 1-.118.408l-.144-.001h-.144L15.6 5.071c-.936-1.175-2.478-1.103-3.652-1.788.652-.472 1.203-1.149 2.131-1.06 1.054 1.003 2.655 1.227 3.522 2.497" fill="#E4816B"/><path d="M6.747 24.14l3.49.073c.49.492 1.142.424 1.749.509-.412 1.552-1.696 1.139-2.727 1.148-.543.005-1.123-.6-1.566.197-.729-.438-.912-1.146-.946-1.928" fill="#7FADB8"/><path d="M14.187 25.148c.778 1.3 2.332 1.134 3.43 1.83-.449.683-1.122.935-1.895 1-.501-.648-1.386-.553-1.975-1.024-.626-.5-1.565-.785-1.35-1.894l1.79.088" fill="#E27E68"/><path d="M79.199 13.766c-.007-1.966-.007-1.966 1.611-1.972 1.908-.009 3.001.66 3.077 1.881.084 1.361-1.025 2.12-3.075 2.103-1.607-.013-1.607-.013-1.613-2.012" fill="#FCFCFC"/></g></svg>