<svg width="243" height="200" viewBox="0 0 243 200" xmlns="http://www.w3.org/2000/svg"><title>Group 3</title><g fill="none" fill-rule="evenodd"><g transform="translate(69.512 149.271)" stroke="#516B35" stroke-width="2.332" fill="#F6F6F6" stroke-linecap="round" stroke-linejoin="round"><rect y="28.571" width="103.976" height="11.662" rx="1.749"/><path d="M45.207 0h13.562v30.904H45.207z"/></g><rect stroke="#516B35" stroke-width="2.332" stroke-linecap="round" stroke-linejoin="round" fill="#FFF" width="243" height="156.945" rx="1.749"/><rect stroke="#516B35" stroke-width="2.332" stroke-linecap="round" stroke-linejoin="round" fill="#F6F6F6" y="123.367" width="243" height="33.724" rx="1.749"/><ellipse stroke="#516B35" stroke-width="2.332" stroke-linecap="round" stroke-linejoin="round" fill="#516B35" cx="121.5" cy="140.401" rx="4.136" ry="4.129"/><rect stroke="#516B35" stroke-width="2.332" stroke-linecap="round" stroke-linejoin="round" fill="#F6F6F6" x="10.514" y="12.828" width="219.14" height="105.062" rx="1.224"/><rect stroke="#516B35" stroke-width="2.332" stroke-linecap="round" stroke-linejoin="round" fill="#9CCC65" x="10.396" y="12.971" width="219.14" height="15.901" rx="1.224"/><ellipse fill="#516B35" cx="18.627" cy="21.205" rx="1.977" ry="1.988"/><ellipse fill="#516B35" cx="25.746" cy="21.205" rx="1.977" ry="1.988"/><ellipse fill="#516B35" cx="32.864" cy="21.205" rx="1.977" ry="1.988"/><rect stroke="#516B35" stroke-width="2.332" stroke-linecap="round" stroke-linejoin="round" fill="#FFF" x="19.861" y="33.819" width="153.627" height="75.802" rx="1.749"/><g stroke-linecap="round" stroke-width="2.332"><g stroke="#516B35" stroke-linejoin="round" transform="translate(57.245 52.478)"><rect fill="#FFF" x="17.178" y="11.258" width="31.043" height="31.045" rx="1.749"/><path d="M14.213 1.571c.434-.868 1.134-.873 1.57 0l14.214 28.434H0L14.213 1.571z" fill="#9CCC65"/></g><path d="M93.107 82.985s-.957-25.637 25.844-25.637c26.801 0 26.163 25.637 26.163 25.637" stroke="#526B35" stroke-linejoin="round"/><g stroke="#516B35" transform="translate(91.71 52.478)"><path d="M3.484 4.401h47.222"/><ellipse stroke-linejoin="round" fill="#FFF" cx="51.57" cy="4.87" rx="3.484" ry="3.478"/><ellipse stroke-linejoin="round" fill="#FFF" cx="3.484" cy="4.87" rx="3.484" ry="3.478"/><rect stroke-linejoin="round" fill="#9CCC65" x="22.301" width="9.253" height="8.973" rx=".7"/></g><g transform="translate(106.344 62.913)" stroke="#516B35"><path d="M10.552.629C10.728.282 11.18 0 11.572 0h4.741l9.255 18.272c.176.347.24.931.142 1.308l-3.606 13.811H4.765L1.46 19.581c-.09-.376-.02-.962.156-1.31L10.552.63z" stroke-linejoin="round" fill="#F6F6F6"/><rect stroke-linejoin="round" fill="#9CCC65" y="30.609" width="26.482" height="8.973" rx=".7"/><path d="M13.473 1.391v24.676"/><ellipse stroke-linejoin="round" fill="#FFF" cx="13.589" cy="24.696" rx="3.136" ry="3.13"/></g></g><rect stroke="#516B35" stroke-width="2.332" stroke-linecap="round" stroke-linejoin="round" fill="#D6D7D9" x="181.082" y="26.822" width="48.483" height="50.146" rx="1.749"/><rect stroke="#516B35" stroke-width="2.332" stroke-linecap="round" stroke-linejoin="round" fill="#D6D7D9" x="181.082" y="74.052" width="48.483" height="12.828" rx="1.749"/><rect stroke="#516B35" stroke-width="2.332" stroke-linecap="round" stroke-linejoin="round" fill="#D6D7D9" x="181.082" y="83.965" width="48.483" height="12.828" rx="1.749"/><g transform="translate(141.653 85.714)" stroke="#516B35" stroke-width="2.332" stroke-linecap="round" stroke-linejoin="round"><rect fill="#E5E3E3" transform="rotate(-1 47.701 53.378)" x="25.731" y=".844" width="43.94" height="105.068" rx="17.493"/><rect fill="#F0EEEE" transform="rotate(6 40.108 57.337)" x="18.138" y="4.803" width="43.94" height="105.068" rx="17.493"/><rect fill="#F6F6F6" x="7.01" y=".583" width="47.315" height="113.137" rx="17.493"/><ellipse cx="30.667" cy="13.12" rx="3.797" ry="3.79"/><rect fill="#9CCC65" x="15.772" y="23.324" width="29.791" height="17.493" rx="1.749"/><rect fill="#A9DE6D" x="15.772" y="50.146" width="29.791" height="17.493" rx="1.749"/><rect fill="#CAE9A6" x="15.772" y="77.551" width="29.791" height="17.493" rx="1.749"/></g></g></svg>