<svg width="243" height="200" viewBox="0 0 243 200" xmlns="http://www.w3.org/2000/svg" xmlns:xlink="http://www.w3.org/1999/xlink"><title>Group</title><defs><path id="a" d="M8.936 1.33c.32-.907.846-.895 1.162 0l8.936 25.264H0L8.936 1.33z"/></defs><g fill="none" fill-rule="evenodd"><g transform="translate(69.512 149.271)" stroke="#516B35" stroke-width="2.332" fill="#F6F6F6" stroke-linecap="round" stroke-linejoin="round"><rect y="28.571" width="103.976" height="11.662" rx="1.749"/><path d="M45.207 0h13.562v30.904H45.207z"/></g><rect stroke="#516B35" stroke-width="2.332" stroke-linecap="round" stroke-linejoin="round" fill="#FFF" width="243" height="156.945" rx="1.749"/><rect stroke="#516B35" stroke-width="2.332" stroke-linecap="round" stroke-linejoin="round" fill="#F6F6F6" y="123.367" width="243" height="33.724" rx="1.749"/><ellipse stroke="#516B35" stroke-width="2.332" stroke-linecap="round" stroke-linejoin="round" fill="#516B35" cx="121.5" cy="140.401" rx="4.136" ry="4.129"/><rect stroke="#516B35" stroke-width="2.332" stroke-linecap="round" stroke-linejoin="round" fill="#FFF" x="10.34" y="12.904" width="219.14" height="105.062" rx="1.224"/><rect stroke="#516B35" stroke-width="2.332" stroke-linecap="round" stroke-linejoin="round" fill="#F6F6F6" x="10.396" y="12.971" width="219.14" height="15.901" rx="1.224"/><ellipse fill="#516B35" cx="18.627" cy="21.205" rx="1.977" ry="1.988"/><ellipse fill="#516B35" cx="25.746" cy="21.205" rx="1.977" ry="1.988"/><ellipse fill="#516B35" cx="32.864" cy="21.205" rx="1.977" ry="1.988"/><path d="M80.138 38.713h78.59M66.179 45.94h107.028" stroke="#516B35" stroke-width="2.332" stroke-linecap="round"/><rect stroke="#516B35" stroke-width="2.332" stroke-linecap="round" stroke-linejoin="round" fill="#9CCC65" x="19.13" y="52.65" width="201.638" height="57.812" rx="1.224"/><g transform="translate(147.786 99.125)"><rect stroke="#516B35" stroke-width="2.332" stroke-linecap="round" stroke-linejoin="round" fill="#FFF" width="58.22" height="99.546" rx="1.749"/><rect stroke="#516B35" stroke-width="2.332" stroke-linecap="round" stroke-linejoin="round" fill="#F6F6F6" y="79.732" width="58.22" height="20.161" rx="1.749"/><rect stroke="#516B35" stroke-width="2.332" stroke-linecap="round" stroke-linejoin="round" fill="#F6F6F6" width="58.22" height="15.147" rx="1.749"/><rect stroke="#516B35" stroke-width="2.332" stroke-linecap="round" stroke-linejoin="round" fill="#516B35" x="22.157" y="5.767" width="13.922" height="3.793" rx="5.831"/><path d="M29.53 93.49a3.157 3.157 0 0 0 3.164-3.15c0-1.74-1.417-3.15-3.164-3.15a3.157 3.157 0 0 0-3.164 3.15c0 1.74 1.416 3.15 3.164 3.15z" fill="#516B35"/><path d="M17.121 23.671h23.602M13.093 28.686h31.912" stroke="#516B35" stroke-width="2.332" stroke-linecap="round"/><rect stroke="#516B35" stroke-width="2.332" stroke-linecap="round" stroke-linejoin="round" fill="#9CCC65" x="8.057" y="33.598" width="41.766" height="42.02" rx="1.224"/></g><g transform="translate(29.79 78.134)"><mask id="b" fill="#fff"><use xlink:href="#a"/></mask><use stroke="#516B35" stroke-width="2.332" stroke-linecap="round" stroke-linejoin="round" fill="#FFF" xlink:href="#a"/><path fill="#516B35" mask="url(#b)" d="M2.069-.313h14.896v10.637H2.069z"/></g><g transform="translate(29.79 103.091)" stroke="#516B35" stroke-width="2.332" stroke-linecap="round" stroke-linejoin="round"><rect fill="#FFF" width="17.379" height="91.345" rx="1.749"/><rect fill="#F6F6F6" x="8.689" width="10.345" height="91.345" rx="1.749"/><rect fill="#9CCC65" y="82.486" width="19.034" height="14.069" rx=".583"/><rect fill="#D6D7D9" y="79.883" width="19.034" height="7.796" rx=".583"/></g></g></svg>