<svg width="243" height="199" viewBox="0 0 243 199" xmlns="http://www.w3.org/2000/svg" xmlns:xlink="http://www.w3.org/1999/xlink"><title>Group 20</title><defs><rect id="a" width="117.701" height="152.199" rx="1.749"/></defs><g fill="none" fill-rule="evenodd"><use stroke="#516B35" stroke-width="2.332" stroke-linejoin="round" fill="#FFF" xlink:href="#a" transform="translate(124.596 .4)"/><g stroke="#516B35" stroke-width="2.332"><path d="M135.075 50.964h47.133M135.075 64.379h47.133M135.075 77.794h47.133M135.172 92.24H230.8M135.172 20.006H230.8M135.172 34.453H230.8M135.172 105.656H230.8M135.172 119.07H230.8M135.172 133.517H230.8" stroke-linecap="round" stroke-linejoin="round"/><g transform="rotate(89 94.446 138.016)"><ellipse fill="#9CCC65" cx="21.155" cy="21.019" rx="21.155" ry="21.019"/><path d="M42.31 21.019C42.31 9.41 32.84 0 21.156 0v21.019H0c0 11.608 9.472 21.018 21.155 21.018 11.684 0 21.156-9.41 21.156-21.018z" fill="#F6F6F6"/></g></g><g transform="translate(0 23.54)"><rect stroke="#516B35" stroke-width="2.332" stroke-linecap="round" stroke-linejoin="round" fill="#FFF" x=".767" width="167.898" height="137.444" rx="1.224"/><rect stroke="#516B35" stroke-width="2.332" stroke-linecap="round" stroke-linejoin="round" fill="#F6F6F6" x=".581" y=".187" width="167.898" height="20.802" rx="1.224"/><ellipse fill="#516B35" cx="11.417" cy="10.959" rx="2.596" ry="2.6"/><ellipse fill="#516B35" cx="20.762" cy="10.959" rx="2.596" ry="2.6"/><ellipse fill="#516B35" cx="30.108" cy="10.959" rx="2.596" ry="2.6"/><g stroke="#516B35" stroke-width="2.332" stroke-linecap="round"><path d="M38.387 54.922h84.665M38.387 35.852h84.665M26.341 45.006h115.36"/></g><g stroke-linecap="round" stroke="#516B35" stroke-width="2.332"><g transform="translate(122.696 70.178)"><path d="M3.944 26.698h20.052M0 33.564h27.322"/><ellipse stroke-linejoin="round" fill="#9CCC65" cx="14.187" cy="9.535" rx="9.586" ry="9.535"/></g><g transform="translate(70.55 70.178)"><path d="M3.944 26.698h20.052M0 33.564h27.322"/><ellipse stroke-linejoin="round" fill="#9CCC65" cx="14.187" cy="9.535" rx="9.586" ry="9.535"/></g><g transform="translate(18.404 70.178)"><path d="M3.944 26.698h20.052M0 33.564h27.322"/><ellipse stroke-linejoin="round" fill="#9CCC65" cx="14.187" cy="9.535" rx="9.586" ry="9.535"/></g></g></g><g stroke-linecap="round" stroke="#516B35" stroke-width="2.332" stroke-linejoin="round"><g transform="translate(126.143 150.038)" fill="#F6F6F6"><path d="M25.343 26.448c0-7.17-5.621-12.984-12.555-12.984-6.934 0-12.556 5.813-12.556 12.984h25.111z"/><ellipse cx="12.788" cy="8.175" rx="8.2" ry="8.175"/></g><g fill="#F6F6F6" transform="translate(73.52 150.038)"><path d="M25.403 26.51c0-7.187-5.634-13.014-12.585-13.014-6.95 0-12.585 5.827-12.585 13.015h25.17z"/><ellipse cx="12.818" cy="8.194" rx="8.219" ry="8.194"/></g><g transform="translate(91.399 152.68)" fill="#FFF"><path d="M40.687 42.46c0-11.512-9.025-20.844-20.157-20.844S.373 30.948.373 42.46h40.314z"/><ellipse cx="20.53" cy="13.124" rx="13.164" ry="13.124"/></g></g><g stroke-linecap="round" stroke="#516B35" stroke-width="2.332"><path d="M135.07 134.535h10c13.214 0 23.919-10.713 23.919-23.928 0-13.219-10.709-23.929-23.919-23.929h-32.154c-13.214 0-23.92 10.713-23.92 23.929 0 13.218 10.71 23.928 23.92 23.928h2.519v13.84c0 1.29.803 1.676 1.803.852l17.833-14.692z" stroke-linejoin="round" fill="#F6F6F6"/><path d="M103.233 107.735h25.082M103.233 118.52h32.539"/><g><path d="M141.117 111.876h-7.605c-10.13 0-18.332-8.206-18.332-18.328 0-10.125 8.207-18.329 18.332-18.329h24.506c10.13 0 18.332 8.206 18.332 18.329 0 10.124-8.208 18.328-18.332 18.328h-1.885v10.644c0 .965-.604 1.249-1.35.634l-13.666-11.278z" stroke-linejoin="round" fill="#FFF"/><path d="M141.117 111.876h-7.605c-10.13 0-18.332-8.206-18.332-18.328 0-10.125 8.207-18.329 18.332-18.329h24.506c10.13 0 18.332 8.206 18.332 18.329 0 10.124-8.208 18.328-18.332 18.328h-1.885v10.051c0 1.293-.803 1.677-1.806.85l-13.21-10.901z" stroke-linejoin="round" fill="#FFF"/><path d="M165.6 90.014h-39.183M165.6 99.451h-25.92"/></g></g><g><path d="M115.678 153.627c-8.725-9.373-8.218-24.052 1.131-32.787 9.35-8.734 24.001-8.216 32.725 1.157 8.725 9.373 8.218 24.052-1.131 32.786-9.35 8.735-24 8.217-32.725-1.156z" fill="#E4F5F4" opacity=".59"/><path d="M146.414 163.164l2.53 2.712a1.953 1.953 0 0 0 .133 2.495l27.33 29.308a1.948 1.948 0 0 0 2.753.095l5.119-4.773c.786-.734.825-1.971.097-2.752l-27.33-29.309a1.948 1.948 0 0 0-2.732-.113l-1.823-1.955a29.117 29.117 0 0 0 7.117-10.1c6.302-14.848-.617-31.99-15.454-38.288-14.837-6.298-31.974.633-38.277 15.48-6.302 14.848.616 31.99 15.454 38.288 8.42 3.574 17.582 2.888 25.083-1.088zm-22.235-5.172c11.176 4.744 24.084-.476 28.831-11.66 4.747-11.184-.464-24.096-11.64-28.84-11.176-4.743-24.084.477-28.831 11.661s.464 24.095 11.64 28.84z" stroke="#516B35" stroke-width="2.332" fill="#9CCC65"/></g></g></svg>