<svg width="124" height="154" viewBox="0 0 124 154" xmlns="http://www.w3.org/2000/svg"><title>UX Hires Logo 2016_fb copy 6</title><g fill="none" fill-rule="evenodd"><path d="M28.553 66.22V46.339c0-.72.622-1.336 1.347-1.336s1.346.617 1.346 1.336v19.626c0 8.476 4.609 13.357 12.272 13.357 7.354 0 12.066-4.418 12.066-13.1V46.338c0-.72.62-1.336 1.346-1.336.725 0 1.347.617 1.347 1.336v19.575c0 10.326-6.06 15.824-14.862 15.824-8.7 0-14.862-5.446-14.862-15.516M66.316 79.27l12.946-16.44-12.324-15.567c-.26-.36-.466-.668-.466-1.027 0-.617.62-1.234 1.294-1.234.517 0 .828.258 1.14.668l12.013 15.362 11.858-15.208c.362-.462.724-.822 1.294-.822.673 0 1.191.566 1.191 1.234 0 .308-.156.616-.362.873L82.524 62.78l12.79 16.337c.311.36.466.667.466 1.028 0 .616-.621 1.233-1.294 1.233-.518 0-.83-.257-1.14-.669l-12.53-16.132-12.377 15.978c-.362.462-.725.823-1.295.823-.672 0-1.19-.565-1.19-1.233 0-.308.156-.617.362-.874M11.527 142.326h2.406v4.293h4.436v-4.293h2.406v10.85h-2.406v-4.356h-4.436v4.356h-2.406v-10.85M38.183 142.326h2.406v10.85h-2.406v-10.85zM62.843 147.595c1.171 0 1.843-.618 1.843-1.535v-.03c0-1.023-.718-1.549-1.89-1.549h-2.39v3.114h2.437zM58 142.325h5c1.39 0 2.467.388 3.186 1.102.61.604.938 1.457.938 2.48v.03c0 1.751-.954 2.852-2.344 3.364l2.671 3.875h-2.81l-2.345-3.473h-1.89v3.473H58v-10.85zM83.969 142.326h8.249v2.123H86.36v2.201h5.155v2.124H86.36v2.278h5.936v2.124h-8.327v-10.85M108.362 151.595l1.421-1.69c.984.806 2.015 1.318 3.265 1.318.985 0 1.578-.388 1.578-1.023v-.03c0-.605-.375-.916-2.203-1.38-2.203-.558-3.624-1.163-3.624-3.317v-.031c0-1.97 1.594-3.271 3.827-3.271 1.593 0 2.952.495 4.062 1.38l-1.25 1.797c-.968-.666-1.92-1.068-2.843-1.068-.921 0-1.406.417-1.406.944v.03c0 .714.468.947 2.36 1.427 2.217.574 3.467 1.364 3.467 3.255v.032c0 2.153-1.656 3.363-4.015 3.363a6.99 6.99 0 0 1-4.639-1.736" fill="#FFF"/><path d="M122.64 61.581c0 33.175-27.106 60.07-60.542 60.07-33.438 0-60.544-26.895-60.544-60.07 0-33.176 27.106-60.069 60.544-60.069 33.436 0 60.543 26.893 60.543 60.07z" stroke="#FFF" stroke-width="1.899"/><path d="M114.421 61.581c0 28.671-23.426 51.914-52.323 51.914-28.898 0-52.324-23.243-52.324-51.914C9.774 32.91 33.2 9.667 62.098 9.667c28.897 0 52.323 23.242 52.323 51.914z" stroke="#FFF" stroke-width="1.899"/></g></svg>