<svg xmlns="http://www.w3.org/2000/svg" width="63.833" height="63.833" viewBox="0 0 63.833 63.833"><path fill="#F2663E" d="M31.833 62.167c16.568 0 30-13.432 30-30s-13.432-30-30-30-30 13.432-30 30 13.432 30 30 30zm-7.646-15.864h-6.79V25.876h6.79v20.427zm-3.395-23.215h-.042c-2.28 0-3.753-1.57-3.753-3.53 0-2.003 1.52-3.53 3.84-3.53s3.754 1.527 3.798 3.53c0 1.96-1.475 3.53-3.843 3.53zM48.67 46.303h-6.79V35.375c0-2.746-.98-4.62-3.44-4.62-1.874 0-2.99 1.264-3.48 2.483-.18.438-.225 1.047-.225 1.657v11.408h-6.79s.09-18.51 0-20.427h6.79v2.893c.9-1.392 2.515-3.375 6.12-3.375 4.466 0 7.815 2.92 7.815 9.195v11.713z"/></svg>