<svg xmlns="http://www.w3.org/2000/svg" width="64" height="64.5" viewBox="0 0 64 64.5"><path fill="#999" d="M22.173 35.266c-1.18 0-1.22.021-1.09.471.42 1.38 2.07 2.84 3.92 3.47l1.3.45-1.14.68a11.87 11.87 0 0 1-5.61 1.57c-.94.02-1.72.1-1.72.16 0 .22 2.56 1.399 4.04 1.869 4.47 1.381 9.77.78 13.75-1.569 2.83-1.67 5.66-5 6.979-8.22.711-1.71 1.421-4.851 1.421-6.351 0-.98.069-1.11 1.239-2.27.69-.68 1.34-1.42 1.471-1.63.21-.4.18-.4-.881-.04-1.789.63-2.039.55-1.159-.41.649-.68 1.43-1.9 1.43-2.26 0-.07-.32.04-.67.23-.38.21-1.22.53-1.851.72l-1.13.36-1.02-.7c-.57-.38-1.37-.8-1.79-.93-1.061-.3-2.7-.26-3.66.08-2.62.96-4.28 3.41-4.09 6.1l.06 1.04-1.04-.12c-3.82-.49-7.15-2.14-9.98-4.92l-1.38-1.38-.36 1.02c-.75 2.27-.27 4.66 1.3 6.27.84.89.65 1.02-.79.49-.51-.17-.95-.3-.99-.23-.15.14.36 2.07.76 2.83.54 1.06 1.65 2.101 2.87 2.72l1.02.48-1.209.02zm9.66-32.599c16.57 0 30 13.43 30 30s-13.43 30-30 30-30-13.43-30-30 13.43-30 30-30z"/><path fill="#FFF" d="M25.003 39.207c-1.85-.63-3.5-2.09-3.92-3.47-.13-.45-.09-.471 1.09-.471l1.21-.02-1.02-.48c-1.22-.619-2.33-1.66-2.87-2.72-.4-.76-.91-2.69-.76-2.83.04-.07.48.06.99.23 1.44.53 1.63.4.79-.49-1.57-1.61-2.05-4-1.3-6.27l.36-1.02 1.38 1.38c2.83 2.78 6.16 4.43 9.98 4.92l1.04.12-.06-1.04c-.19-2.69 1.47-5.14 4.09-6.1.96-.34 2.6-.38 3.66-.08.42.13 1.22.55 1.79.93l1.02.7 1.13-.36c.631-.19 1.471-.51 1.851-.72.35-.19.67-.3.67-.23 0 .36-.78 1.58-1.43 2.26-.88.96-.63 1.04 1.159.41 1.061-.36 1.091-.36.881.04-.131.21-.78.95-1.471 1.63-1.17 1.16-1.239 1.29-1.239 2.27 0 1.5-.71 4.64-1.421 6.351-1.319 3.22-4.149 6.55-6.979 8.22-3.98 2.35-9.28 2.95-13.75 1.569-1.48-.47-4.04-1.649-4.04-1.869 0-.061.78-.141 1.72-.16 1.97-.05 3.94-.601 5.61-1.57l1.14-.68-1.301-.45z"/><g><path fill="none" stroke="#999" stroke-miterlimit="10" d="M36.003 20.946c-2.62.96-4.28 3.41-4.09 6.1l.06 1.04-1.04-.12c-3.82-.49-7.15-2.14-9.98-4.92l-1.38-1.38-.36 1.02c-.75 2.27-.27 4.66 1.3 6.27.84.89.65 1.02-.79.49-.51-.17-.95-.3-.99-.23-.15.14.36 2.07.76 2.83.54 1.06 1.65 2.101 2.87 2.72l1.02.48-1.21.02c-1.18 0-1.22.021-1.09.471.42 1.38 2.07 2.84 3.92 3.47l1.3.45-1.14.68a11.87 11.87 0 0 1-5.61 1.57c-.94.02-1.72.1-1.72.16 0 .22 2.56 1.399 4.04 1.869 4.47 1.381 9.77.78 13.75-1.569 2.83-1.67 5.66-5 6.979-8.22.711-1.71 1.421-4.851 1.421-6.351 0-.98.069-1.11 1.239-2.27.69-.68 1.34-1.42 1.471-1.63.21-.4.18-.4-.881-.04-1.789.63-2.039.55-1.159-.41.649-.68 1.43-1.9 1.43-2.26 0-.07-.32.04-.67.23-.38.21-1.22.53-1.851.72l-1.13.36-1.02-.7c-.57-.38-1.37-.8-1.79-.93-1.059-.3-2.699-.26-3.659.08z"/></g></svg>