<svg xmlns="http://www.w3.org/2000/svg" width="64.375" height="63.5" viewBox="0 0 64.375 63.5"><path fill="#999" d="M24.725 25.46h-6.79v20.43h6.79V25.46zm-3.39-2.79c2.37 0 3.84-1.57 3.84-3.53-.04-2-1.47-3.53-3.8-3.53-2.32 0-3.84 1.53-3.84 3.53 0 1.96 1.48 3.53 3.76 3.53h.04zm11.04-20.92c16.57 0 30 13.43 30 30s-13.43 30-30 30-30-13.43-30-30 13.43-30 30-30zm16.84 44.14V34.17c0-6.27-3.35-9.19-7.82-9.19-3.6 0-5.22 1.98-6.12 3.37v-2.89h-6.79c.09 1.92 0 20.43 0 20.43h6.79V34.48c0-.61.05-1.22.22-1.66.5-1.22 1.61-2.48 3.49-2.48 2.46 0 3.44 1.87 3.44 4.62v10.93h6.79z"/></svg>