<svg xmlns="http://www.w3.org/2000/svg" width="65.25" height="66.5" viewBox="0 0 65.25 66.5"><path fill="#F2663E" d="M32.5 63.5c16.568 0 30-13.432 30-30 0-16.568-13.432-30-30-30-16.568 0-30 13.432-30 30 0 16.568 13.432 30 30 30zm6.95-14.3c-2.75 1.45-5.55 2-8.9 2-8.2 0-15.15-6-15.15-15.6 0-10.302 7.15-19.202 18.25-19.202 8.7 0 14.552 6.1 14.552 14.45 0 7.5-4.2 11.9-8.9 11.9-2 0-3.85-1.35-3.7-4.4h-.2c-1.75 2.95-4.05 4.4-7.05 4.4-2.9 0-5.4-2.35-5.4-6.3 0-6.2 4.9-11.85 11.85-11.85 2.15 0 4.05.45 5.352 1.05l-1.7 9.05c-.75 3.8-.15 5.55 1.5 5.6 2.55.05 5.4-3.35 5.4-9.15 0-7.25-4.35-12.45-12.102-12.45-8.15 0-15 6.45-15 16.602 0 8.35 5.45 13.5 12.85 13.5 2.85 0 5.5-.6 7.55-1.75l.8 2.15zM36.7 27.6c-.5-.15-1.35-.35-2.5-.35-4.4 0-7.95 4.15-7.95 9 0 2.2 1.1 3.8 3.3 3.8 2.9 0 5.552-3.7 6.102-6.8l1.05-5.65z"/></svg>