<?xml version="1.0" encoding="utf-8"?>
<!-- Generator: Adobe Illustrator 16.0.0, SVG Export Plug-In . SVG Version: 6.00 Build 0)  -->
<!DOCTYPE svg PUBLIC "-//W3C//DTD SVG 1.1//EN" "http://www.w3.org/Graphics/SVG/1.1/DTD/svg11.dtd">
<svg version="1.1" id="Layer_1" xmlns="http://www.w3.org/2000/svg" xmlns:xlink="http://www.w3.org/1999/xlink" x="0px" y="0px"
	 width="64px" height="64.5px" viewBox="0 0 64 64.5" enable-background="new 0 0 64 64.5" xml:space="preserve">
<g id="XMLID_1_">
	<g>
		<path fill="#999999" d="M22.173,35.266c-1.18,0-1.22,0.021-1.09,0.471c0.42,1.38,2.07,2.84,3.92,3.47l1.3,0.45l-1.14,0.68
			c-1.67,0.97-3.64,1.521-5.61,1.57c-0.94,0.02-1.72,0.1-1.72,0.16c0,0.22,2.56,1.399,4.04,1.869c4.47,1.381,9.77,0.78,13.75-1.569
			c2.83-1.67,5.66-5,6.979-8.22c0.711-1.71,1.421-4.851,1.421-6.351c0-0.98,0.069-1.11,1.239-2.27c0.69-0.68,1.34-1.42,1.471-1.63
			c0.21-0.4,0.18-0.4-0.881-0.04c-1.789,0.63-2.039,0.55-1.159-0.41c0.649-0.68,1.43-1.9,1.43-2.26c0-0.07-0.32,0.04-0.67,0.23
			c-0.38,0.21-1.22,0.53-1.851,0.72l-1.13,0.36l-1.02-0.7c-0.57-0.38-1.37-0.8-1.79-0.93c-1.061-0.3-2.7-0.26-3.66,0.08
			c-2.62,0.96-4.28,3.41-4.09,6.1l0.06,1.04l-1.04-0.12c-3.82-0.49-7.15-2.14-9.98-4.92l-1.38-1.38l-0.36,1.02
			c-0.75,2.27-0.27,4.66,1.3,6.27c0.84,0.89,0.65,1.02-0.79,0.49c-0.51-0.17-0.95-0.3-0.99-0.23c-0.15,0.14,0.36,2.07,0.76,2.83
			c0.54,1.06,1.65,2.101,2.87,2.72l1.02,0.48L22.173,35.266z M31.833,2.667c16.57,0,30,13.43,30,30c0,16.57-13.43,30-30,30
			c-16.57,0-30-13.43-30-30C1.833,16.097,15.263,2.667,31.833,2.667z"/>
		<path fill="#FFFFFF" d="M25.003,39.207c-1.85-0.63-3.5-2.09-3.92-3.47c-0.13-0.45-0.09-0.471,1.09-0.471l1.21-0.02l-1.02-0.48
			c-1.22-0.619-2.33-1.66-2.87-2.72c-0.4-0.76-0.91-2.69-0.76-2.83c0.04-0.07,0.48,0.06,0.99,0.23c1.44,0.53,1.63,0.4,0.79-0.49
			c-1.57-1.61-2.05-4-1.3-6.27l0.36-1.02l1.38,1.38c2.83,2.78,6.16,4.43,9.98,4.92l1.04,0.12l-0.06-1.04
			c-0.19-2.69,1.47-5.14,4.09-6.1c0.96-0.34,2.6-0.38,3.66-0.08c0.42,0.13,1.22,0.55,1.79,0.93l1.02,0.7l1.13-0.36
			c0.631-0.19,1.471-0.51,1.851-0.72c0.35-0.19,0.67-0.3,0.67-0.23c0,0.36-0.78,1.58-1.43,2.26c-0.88,0.96-0.63,1.04,1.159,0.41
			c1.061-0.36,1.091-0.36,0.881,0.04c-0.131,0.21-0.78,0.95-1.471,1.63c-1.17,1.16-1.239,1.29-1.239,2.27
			c0,1.5-0.71,4.64-1.421,6.351c-1.319,3.22-4.149,6.55-6.979,8.22c-3.98,2.35-9.28,2.95-13.75,1.569
			c-1.48-0.47-4.04-1.649-4.04-1.869c0-0.061,0.78-0.141,1.72-0.16c1.97-0.05,3.94-0.601,5.61-1.57l1.14-0.68L25.003,39.207z"/>
	</g>
	<g>
		<path fill="none" stroke="#999999" stroke-miterlimit="10" d="M36.003,20.946c-2.62,0.96-4.28,3.41-4.09,6.1l0.06,1.04l-1.04-0.12
			c-3.82-0.49-7.15-2.14-9.98-4.92l-1.38-1.38l-0.36,1.02c-0.75,2.27-0.27,4.66,1.3,6.27c0.84,0.89,0.65,1.02-0.79,0.49
			c-0.51-0.17-0.95-0.3-0.99-0.23c-0.15,0.14,0.36,2.07,0.76,2.83c0.54,1.06,1.65,2.101,2.87,2.72l1.02,0.48l-1.21,0.02
			c-1.18,0-1.22,0.021-1.09,0.471c0.42,1.38,2.07,2.84,3.92,3.47l1.3,0.45l-1.14,0.68c-1.67,0.97-3.64,1.521-5.61,1.57
			c-0.94,0.02-1.72,0.1-1.72,0.16c0,0.22,2.56,1.399,4.04,1.869c4.47,1.381,9.77,0.78,13.75-1.569c2.83-1.67,5.66-5,6.979-8.22
			c0.711-1.71,1.421-4.851,1.421-6.351c0-0.98,0.069-1.11,1.239-2.27c0.69-0.68,1.34-1.42,1.471-1.63c0.21-0.4,0.18-0.4-0.881-0.04
			c-1.789,0.63-2.039,0.55-1.159-0.41c0.649-0.68,1.43-1.9,1.43-2.26c0-0.07-0.32,0.04-0.67,0.23c-0.38,0.21-1.22,0.53-1.851,0.72
			l-1.13,0.36l-1.02-0.7c-0.57-0.38-1.37-0.8-1.79-0.93C38.603,20.566,36.963,20.606,36.003,20.946z"/>
	</g>
</g>
</svg>
