<?xml version="1.0" encoding="UTF-8" standalone="no"?>
<svg width="355px" height="402px" viewBox="0 0 355 402" version="1.1" xmlns="http://www.w3.org/2000/svg" xmlns:xlink="http://www.w3.org/1999/xlink">
    <!-- Generator: Sketch 3.6.1 (26313) - http://www.bohemiancoding.com/sketch -->
    <title>Group 3</title>
    <desc>Created with Sketch.</desc>
    <defs>
        <rect id="path-1" x="0" y="0" width="231.874119" height="295.919699" rx="2.17376874"></rect>
        <rect id="path-3" x="0" y="0" width="231.874119" height="295.919699" rx="2.17376874"></rect>
        <rect id="path-5" x="6.52931163e-13" y="0" width="231.874119" height="295.919699" rx="2.17376874"></rect>
    </defs>
    <g id="Page-1" stroke="none" stroke-width="1" fill="none" fill-rule="evenodd">
        <g id="UX-Hires-Overview" transform="translate(-669.000000, -2111.000000)">
            <g id="Group-3" transform="translate(669.000000, 2116.000000)">
                <g id="papers" transform="translate(70.297297, 0.000000)">
                    <g id="page-3" transform="translate(2.305064, 25.054002)">
                        <g id="Group" transform="translate(0.000000, 0.006710)">
                            <g id="Path-27" transform="translate(1.208688, 0.000000)">
                                <mask id="mask-2" fill="white">
                                    <use xlink:href="#path-1"></use>
                                </mask>
                                <use id="Mask" stroke="#516B35" stroke-width="4.05405405" stroke-linejoin="round" fill="#F6F6F6" xlink:href="#path-1"></use>
                            </g>
                            <path d="M106.928229,47.925 L212.705676,47.925" id="Line" stroke="#516B35" stroke-width="4.05405405" stroke-linecap="square"></path>
                            <path d="M106.734624,72.225 L212.512071,72.225" id="Line-Copy" stroke="#516B35" stroke-width="4.05405405" stroke-linecap="square"></path>
                            <path d="M22.8812831,99.225 L211.271727,99.225" id="Line-Copy-3" stroke="#516B35" stroke-width="4.05405405" stroke-linecap="square"></path>
                            <path d="M22.0726133,126.225 L210.463057,126.225" id="Line-Copy-2" stroke="#516B35" stroke-width="4.05405405" stroke-linecap="square"></path>
                            <path d="M24.3152323,150.525 L212.705676,150.525" id="Line" stroke="#516B35" stroke-width="4.05405405" stroke-linecap="square"></path>
                            <path d="M24.3152323,180.225 L212.705676,180.225" id="Line" stroke="#516B35" stroke-width="4.05405405" stroke-linecap="square"></path>
                            <path d="M24.3152323,204.525 L212.705676,204.525" id="Line" stroke="#516B35" stroke-width="4.05405405" stroke-linecap="square"></path>
                            <path d="M24.3152323,231.525 L212.705676,231.525" id="Line" stroke="#516B35" stroke-width="4.05405405" stroke-linecap="square"></path>
                            <path d="M24.3152323,258.525 L212.705676,258.525" id="Line" stroke="#516B35" stroke-width="4.05405405" stroke-linecap="square"></path>
                            <rect id="Rectangle-5" stroke="#516B35" stroke-width="4.05405405" stroke-linejoin="round" fill="#9CCC65" x="23.7478395" y="45.370993" width="69.1542151" height="27.8607447" rx="1.30426125"></rect>
                        </g>
                    </g>
                    <g id="page-2" transform="translate(33.286374, 12.527001)">
                        <g id="Group" transform="translate(0.000000, 0.006710)">
                            <g id="Path-27" transform="translate(1.208688, 0.000000)">
                                <mask id="mask-4" fill="white">
                                    <use xlink:href="#path-3"></use>
                                </mask>
                                <use id="Mask" stroke="#516B35" stroke-width="4.05405405" stroke-linejoin="round" fill="#F9F9F9" xlink:href="#path-3"></use>
                            </g>
                            <path d="M106.928229,47.925 L212.705676,47.925" id="Line" stroke="#516B35" stroke-width="4.05405405" stroke-linecap="square"></path>
                            <path d="M106.734624,72.225 L212.512071,72.225" id="Line-Copy" stroke="#516B35" stroke-width="4.05405405" stroke-linecap="square"></path>
                            <path d="M22.8812831,99.225 L211.271727,99.225" id="Line-Copy-3" stroke="#516B35" stroke-width="4.05405405" stroke-linecap="square"></path>
                            <path d="M22.0726133,126.225 L210.463057,126.225" id="Line-Copy-2" stroke="#516B35" stroke-width="4.05405405" stroke-linecap="square"></path>
                            <path d="M24.3152323,150.525 L212.705676,150.525" id="Line" stroke="#516B35" stroke-width="4.05405405" stroke-linecap="square"></path>
                            <path d="M24.3152323,180.225 L212.705676,180.225" id="Line" stroke="#516B35" stroke-width="4.05405405" stroke-linecap="square"></path>
                            <path d="M24.3152323,204.525 L212.705676,204.525" id="Line" stroke="#516B35" stroke-width="4.05405405" stroke-linecap="square"></path>
                            <path d="M24.3152323,231.525 L212.705676,231.525" id="Line" stroke="#516B35" stroke-width="4.05405405" stroke-linecap="square"></path>
                            <path d="M24.3152323,258.525 L212.705676,258.525" id="Line" stroke="#516B35" stroke-width="4.05405405" stroke-linecap="square"></path>
                            <rect id="Rectangle-5" stroke="#516B35" stroke-width="4.05405405" stroke-linejoin="round" fill="#9CCC65" x="23.7478395" y="45.370993" width="69.1542151" height="27.8607447" rx="1.30426125"></rect>
                        </g>
                    </g>
                    <g id="page-1" transform="translate(65.092005, 0.000000)">
                        <g id="Group" transform="translate(0.000000, 0.006710)">
                            <g id="Path-27" transform="translate(1.208688, 0.000000)">
                                <mask id="mask-6" fill="white">
                                    <use xlink:href="#path-5"></use>
                                </mask>
                                <use id="Mask" stroke="#516B35" stroke-width="4.05405405" stroke-linejoin="round" fill="#FFFFFF" xlink:href="#path-5"></use>
                            </g>
                            <path d="M106.928229,47.925 L212.705676,47.925" id="Line" stroke="#516B35" stroke-width="4.05405405" stroke-linecap="square"></path>
                            <path d="M106.734624,72.225 L212.512071,72.225" id="Line-Copy" stroke="#516B35" stroke-width="4.05405405" stroke-linecap="square"></path>
                            <path d="M22.8812831,99.225 L211.271727,99.225" id="Line-Copy-3" stroke="#516B35" stroke-width="4.05405405" stroke-linecap="square"></path>
                            <path d="M22.0726133,126.225 L210.463057,126.225" id="Line-Copy-2" stroke="#516B35" stroke-width="4.05405405" stroke-linecap="square"></path>
                            <path d="M24.3152323,150.525 L212.705676,150.525" id="Line" stroke="#516B35" stroke-width="4.05405405" stroke-linecap="square"></path>
                            <path d="M24.3152323,180.225 L212.705676,180.225" id="Line" stroke="#516B35" stroke-width="4.05405405" stroke-linecap="square"></path>
                            <path d="M24.3152323,204.525 L212.705676,204.525" id="Line" stroke="#516B35" stroke-width="4.05405405" stroke-linecap="square"></path>
                            <path d="M24.3152323,231.525 L212.705676,231.525" id="Line" stroke="#516B35" stroke-width="4.05405405" stroke-linecap="square"></path>
                            <path d="M24.3152323,258.525 L212.705676,258.525" id="Line" stroke="#516B35" stroke-width="4.05405405" stroke-linecap="square"></path>
                            <rect id="Rectangle-5" stroke="#516B35" stroke-width="4.05405405" stroke-linejoin="round" fill="#9CCC65" x="23.7478395" y="45.370993" width="69.1542151" height="27.8607447" rx="1.30426125"></rect>
                        </g>
                    </g>
                </g>
                <g id="briefcase" transform="translate(0.000000, 140.400000)" stroke="#516B35">
                    <path d="M265.436187,43.2 L270.080037,43.2 C272.046112,43.2 273.648649,41.6007653 273.648649,39.6280093 L273.648649,3.57199068 C273.648649,1.58874471 272.050927,0 270.080037,0 L120.460503,0 C118.494429,0 116.891892,1.5992347 116.891892,3.57199068 L116.891892,39.6280093 C116.891892,41.6112553 118.489614,43.2 120.460503,43.2 L125.104548,43.2 C125.036245,42.925555 125,42.6387567 125,42.3438678 L125,11.6561322 C125,9.69213463 126.602549,8.1 128.56202,8.1 L261.978521,8.1 C263.94577,8.1 265.540541,9.70007508 265.540541,11.6561322 L265.540541,42.3438678 C265.540541,42.6390244 265.504347,42.9257824 265.436187,43.2 Z" id="Rectangle-8" stroke-width="4.05405405" fill="#9CCC65"></path>
                    <rect id="Rectangle-7" stroke-width="4.05405405" fill="#FFFFFF" x="25" y="27.7274611" width="336.591263" height="214.041451" rx="5.40540541"></rect>
                    <rect id="Rectangle-7" stroke-width="4.05405405" fill="#F6F6F6" x="25" y="27.7274611" width="336.591263" height="100.599482" rx="5.40540541"></rect>
                    <g id="Group" transform="translate(0.418355, 171.696891)" stroke-width="4.27927928">
                        <ellipse id="Oval-4" fill="#9CCC65" cx="42.5205524" cy="42.4515544" rx="42.5205524" ry="42.4515544"></ellipse>
                        <path d="M26.911742,48.4166346 L39.2540395,59.4054097 L58.5436258,25.7933495" id="Path-23" stroke-linecap="round" stroke-linejoin="round"></path>
                    </g>
                    <rect id="Rectangle-10" stroke-width="4.05405405" fill="#9CCC65" x="162.923809" y="118.723057" width="61.4582774" height="24.2020725" rx="1.42642643"></rect>
                </g>
            </g>
        </g>
    </g>
</svg>