<?xml version="1.0" encoding="UTF-8" standalone="no"?>
<svg width="372px" height="393px" viewBox="0 0 372 393" version="1.1" xmlns="http://www.w3.org/2000/svg" xmlns:xlink="http://www.w3.org/1999/xlink">
    <!-- Generator: Sketch 3.6.1 (26313) - http://www.bohemiancoding.com/sketch -->
    <title>find talent</title>
    <desc>Created with Sketch.</desc>
    <defs>
        <rect id="path-1" x="0" y="0" width="398" height="398"></rect>
        <path d="M6.4659389e-13,21.527289 L6.4659389e-13,388.020308 C6.4659389e-13,389.856198 1.47600867,391.344482 3.32538921,391.344482 L297.358116,391.344482 C299.194677,391.344482 300.683505,389.86851 300.683505,388.020308 L300.683505,3.32417377 C300.683505,1.48828329 299.207496,-3.01980663e-14 297.358116,-3.01980663e-14 L27.6040166,-3.01980663e-14 L51.882644,-3.01980663e-14 L6.4659389e-13,39.7304042 L6.4659389e-13,21.527289 Z" id="path-3"></path>
        <ellipse id="path-5" cx="65.7268351" cy="63.9216796" rx="64.9513889" ry="65.0066667"></ellipse>
        <path d="M26.1203183,140.627601 L33.9474914,144.112483 C33.0186092,146.775143 34.2813539,149.754326 36.9040071,150.922006 L147.609242,200.211152 C150.378987,201.444322 153.622572,200.201866 154.852286,197.439884 L161.987213,181.414576 C163.217691,178.650877 161.964134,175.408221 159.200124,174.177605 L48.4948893,124.888459 C45.7251443,123.655289 42.4815583,124.897745 41.2518445,127.659727 L40.997672,128.230608 L35.6666347,125.857077 C40.8310937,115.446596 43.7344572,103.715688 43.7344572,91.3066411 C43.7344572,48.3133779 8.88264285,13.4604519 -34.1092489,13.4604519 C-77.1011406,13.4604519 -111.952955,48.3133779 -111.952955,91.3066411 C-111.952955,134.299904 -77.1011406,169.15283 -34.1092489,169.15283 C-9.83490678,169.15283 11.8443577,158.041628 26.1203185,140.627602 Z M-33.7632768,157.336891 C1.77668697,157.336891 30.5875202,128.240921 30.5875202,92.349224 C30.5875202,56.4575266 1.77668697,27.3615571 -33.7632768,27.3615571 C-69.3032407,27.3615571 -98.1140738,56.4575266 -98.1140738,92.349224 C-98.1140738,128.240921 -69.3032407,157.336891 -33.7632768,157.336891 Z" id="path-7"></path>
    </defs>
    <g id="Page-1" stroke="none" stroke-width="1" fill="none" fill-rule="evenodd">
        <g id="UX-Hires-Overview" transform="translate(-652.000000, -3119.000000)">
            <g id="find-talent" transform="translate(650.000000, 3117.000000)">
                <mask id="mask-2" fill="white">
                    <use xlink:href="#path-1"></use>
                </mask>
                <use id="Mask" xlink:href="#path-1"></use>
                <g id="Group" mask="url(#mask-2)">
                    <g transform="translate(55.720000, 2.662207)">
                        <g id="Path-27" stroke="none" stroke-width="1" fill="none" fill-rule="evenodd" transform="translate(38.714037, 0.000000)">
                            <mask id="mask-4" fill="white">
                                <use xlink:href="#path-3"></use>
                            </mask>
                            <use id="Mask" stroke="#516B35" stroke-width="3.98" stroke-linejoin="round" fill="#FFFFFF" xlink:href="#path-3"></use>
                        </g>
                        <path d="M175.80619,60.3633333 L312.973432,60.3633333" id="Line" stroke="#516B35" stroke-width="3.98" stroke-linecap="square" fill="none"></path>
                        <path d="M175.555132,94.8566667 L312.722374,94.8566667" id="Line-Copy" stroke="#516B35" stroke-width="3.98" stroke-linecap="square" fill="none"></path>
                        <path d="M175.555132,132.003333 L312.722374,132.003333" id="Line-Copy-3" stroke="#516B35" stroke-width="3.98" stroke-linecap="square" fill="none"></path>
                        <path d="M68.6775218,200.99 L312.973432,200.99" id="Line" stroke="#516B35" stroke-width="3.98" stroke-linecap="square" fill="none"></path>
                        <path d="M65.7693985,166.496667 L310.065309,166.496667" id="Line-Copy-2" stroke="#516B35" stroke-width="3.98" stroke-linecap="square" fill="none"></path>
                        <path d="M68.6775218,272.63 L312.973432,272.63" id="Line" stroke="#516B35" stroke-width="3.98" stroke-linecap="square" fill="none"></path>
                        <path d="M68.6775218,238.136667 L312.973432,238.136667" id="Line" stroke="#516B35" stroke-width="3.98" stroke-linecap="square" fill="none"></path>
                        <path d="M68.6775218,307.123333 L312.973432,307.123333" id="Line" stroke="#516B35" stroke-width="3.98" stroke-linecap="square" fill="none"></path>
                        <path d="M68.6775218,344.27 L312.973432,344.27" id="Line" stroke="#516B35" stroke-width="3.98" stroke-linecap="square" fill="none"></path>
                        <path d="M40.0425692,39.7304042 L39.3783029,0.666685659 L91.5687937,-3.91538674e-14 L40.0425692,39.7304042 Z" id="Triangle-14" stroke="#516B35" stroke-width="3.98" stroke-linejoin="round" fill="#9CCC65" fill-rule="evenodd" transform="translate(65.473548, 19.865202) scale(-1, -1) translate(-65.473548, -19.865202) "></path>
                        <rect id="Rectangle-5" stroke="#516B35" stroke-width="3.98" stroke-linejoin="round" fill="#9CCC65" fill-rule="evenodd" x="67.9417534" y="60.0017093" width="89.6759494" height="90.0025639" rx="1.99"></rect>
                        <g id="glass" stroke="none" stroke-width="1" fill="none" fill-rule="evenodd" transform="translate(0.000000, 90.213333)">
                            <mask id="mask-6" fill="white">
                                <use xlink:href="#path-5"></use>
                            </mask>
                            <use id="Mask" fill="#E4F5F4" opacity="0.59" xlink:href="#path-5"></use>
                            <mask id="mask-8" fill="white">
                                <use xlink:href="#path-7"></use>
                            </mask>
                            <use id="Mask" stroke="#516B35" stroke-width="4.14583333" fill="#9CCC65" transform="translate(25.239624, 107.130439) scale(-1, 1) rotate(-327.000000) translate(-25.239624, -107.130439) " xlink:href="#path-7"></use>
                        </g>
                    </g>
                </g>
            </g>
        </g>
    </g>
</svg>