<?xml version="1.0" encoding="UTF-8" standalone="no"?>
<svg width="110px" height="30px" viewBox="0 0 110 30" version="1.1" xmlns="http://www.w3.org/2000/svg" xmlns:xlink="http://www.w3.org/1999/xlink">
    <!-- Generator: Sketch 3.6.1 (26313) - http://www.bohemiancoding.com/sketch -->
    <title>Page 1</title>
    <desc>Created with Sketch.</desc>
    <defs>
        <path id="path-1" d="M0,0.274285714 L109.631595,0.274285714 L109.631595,30 L0,30"></path>
        <path id="path-3" d="M0,0.274285714 L109.631595,0.274285714 L109.631595,30 L0,30"></path>
    </defs>
    <g id="Page-1" stroke="none" stroke-width="1" fill="none" fill-rule="evenodd">
        <g id="UX-Hires-Overview" transform="translate(-627.000000, -2862.000000)">
            <g id="Page-1" transform="translate(627.000000, 2862.000000)">
                <g id="Group-3">
                    <mask id="mask-2" fill="white">
                        <use xlink:href="#path-1"></use>
                    </mask>
                    <g id="Clip-2"></g>
                    <path d="M1.92969397,12.2171905 C1.12650431,12.1152857 0.837280172,12.673381 0.606375,13.278619 C-0.985780172,17.4562381 0.599737069,22.8762381 4.86034052,24.583381 C5.85697845,25.9762381 6.656375,27.5100476 8.19021121,28.4724286 C11.713056,30.6814762 15.1605129,30.3714762 18.6060733,28.3329048 C22.1924526,28.7052857 24.8414612,27.013381 26.6996078,24.188619 C27.7849095,22.538619 28.6065905,20.5695714 27.5065905,18.4743333 C28.4297371,18.5195714 28.6867198,17.7781429 28.9152543,17.1457619 C30.3865043,13.0819524 29.577625,7.9062381 24.727194,5.62433333 C24.5517629,5.37004762 24.3616336,5.12480952 24.2032716,4.86004762 C22.1891336,1.49290476 19.2570647,-0.00185714286 15.3406853,0.316238095 C13.7063319,0.448619048 12.3924957,1.281 10.9805129,1.92766667 C7.12861638,1.3762381 3.06904741,4.36338095 2.02594397,8.03147619 C1.68124569,9.24528571 0.965771552,10.5219524 1.93443534,11.7981429 C1.97189224,11.9381429 1.96999569,12.0781429 1.92969397,12.2171905" id="Fill-1" fill="#FEFEFE" mask="url(#mask-2)"></path>
                </g>
                <path d="M62.6728793,13.3980952 C63.6804224,14.8995238 64.3522759,15.9504762 65.0748621,16.9642857 C66.0018017,18.2652381 66.5902069,18.2447619 67.5716724,16.9771429 C68.274819,16.0690476 68.6802069,14.9171429 69.8532241,14.0590476 C69.8532241,16.2738095 69.8944741,18.252381 69.8366293,20.2285714 C69.8062845,21.2690476 70.2111983,21.6347619 71.217319,21.6247619 C72.1741293,21.6147619 72.1603793,21.03 72.1589569,20.36 C72.1518448,17.267619 72.1134397,14.1747619 72.1783966,11.0838095 C72.2011552,9.99 71.7597328,9.77952381 70.7962845,9.78619048 C69.9376207,9.79190476 69.533181,10.2471429 69.1330086,10.8766667 C68.2487414,12.2666667 67.3279655,13.6333333 66.3336983,15.1447619 C65.2479224,13.4614286 64.2479655,11.9680952 63.3101207,10.4366667 C62.7582241,9.53571429 61.9242155,9.76238095 61.1997328,9.88666667 C60.4520172,10.0152381 60.7161121,10.762381 60.7127931,11.2633333 C60.691931,14.2761905 60.6990431,17.2890476 60.7061552,20.3019048 C60.7071034,20.8352381 60.5866724,21.4571429 61.3751638,21.5852381 C62.2338276,21.7247619 62.7084397,21.4880952 62.6871034,20.4819048 C62.6411121,18.3061905 62.6728793,16.1295238 62.6728793,13.3980952" id="Fill-4" fill="#FEFEFE"></path>
                <path d="M100.775504,15.5896667 C100.775504,17.1758571 100.797789,18.7625238 100.76697,20.3482381 C100.749427,21.2549048 101.12447,21.6377619 102.031022,21.6263333 C104.16322,21.5991905 106.295892,21.6001429 108.427616,21.6272857 C109.162056,21.6363333 109.629556,21.5115714 109.631453,20.6158571 C109.633349,19.745381 109.216582,19.5563333 108.457487,19.5734762 C106.957789,19.6072857 105.456668,19.560619 103.956496,19.5849048 C102.598091,19.6068095 103.057056,18.5925238 102.988306,17.9044286 C102.913866,17.1610952 102.90628,16.4858571 104.023349,16.5410952 C105.520203,16.6149048 107.02322,16.5472857 108.523866,16.5610952 C109.167272,16.5668095 109.553694,16.4025238 109.557961,15.6391905 C109.562228,14.9287143 109.297659,14.6339524 108.600203,14.640619 C107.10003,14.655381 105.595591,14.5758571 104.100159,14.6649048 C103.041884,14.7282381 102.914815,14.1891905 102.978349,13.3739524 C103.034772,12.6487143 102.673478,11.7163333 104.029513,11.7801429 C105.605547,11.8539524 107.187746,11.7844286 108.767099,11.7996667 C109.354556,11.805381 109.641409,11.5758571 109.614858,10.9687143 C109.590677,10.4215714 109.699728,9.81204762 108.847228,9.81395238 C106.477961,9.81919048 104.109168,9.82061905 101.739901,9.80871429 C101.032013,9.80538095 100.764125,10.1468095 100.771711,10.8310952 C100.78878,12.4168095 100.777401,14.0034762 100.775504,15.5896667" id="Fill-6" fill="#FEFEFE"></path>
                <path d="M76.9662888,15.4430952 C76.9662888,17.1835714 76.9686595,18.9245238 76.9653405,20.665 C76.9639181,21.3992857 77.4162457,21.6088095 78.0397371,21.607381 C78.6257716,21.6054762 79.1440043,21.5111905 79.1990043,20.7492857 C79.2611164,19.8935714 78.8562026,18.8559524 79.397194,18.2235714 C80.0448664,17.4669048 81.191806,18.0978571 82.0893491,17.8464286 C82.4681853,17.7402381 82.8550819,17.6583333 83.2291767,17.5364286 C85.3300819,16.8530952 86.183056,15.4883333 85.9649526,13.1802381 C85.7947371,11.3797619 84.5306853,10.0883333 82.5274526,9.90071429 C81.0429267,9.76119048 79.5375388,9.8502381 78.0425819,9.80595238 C77.2346509,9.78214286 76.9297802,10.125 76.9515905,10.9335714 C76.9914181,12.4359524 76.9629698,13.9397619 76.9662888,15.4430952" id="Fill-8" fill="#FEFEFE"></path>
                <path d="M44.8561983,21.7230952 C45.0136121,21.7230952 45.1719741,21.7311905 45.3289138,21.7221429 C47.423181,21.6007143 48.7782672,20.4964286 48.9963707,18.7359524 C49.2476638,16.7059524 48.5663276,15.7497619 46.2809828,14.9683333 C45.4659397,14.6897619 44.6357241,14.4559524 43.8149914,14.1935714 C43.1658966,13.9854762 42.6675776,13.6211905 42.7225776,12.855 C42.789431,11.9297619 43.5034828,11.7516667 44.2308103,11.6654762 C45.209431,11.5497619 46.12025,11.8311905 46.9096897,12.3821429 C47.5715862,12.8440476 47.8532241,12.5178571 48.2055086,11.9992857 C48.5729655,11.4588095 48.694819,11.015 48.0495172,10.6264286 C46.1799914,9.50166667 44.2208534,9.19452381 42.2180948,10.1811905 C40.9820172,10.7897619 40.403569,11.8835714 40.4571466,13.282619 C40.5078793,14.6107143 41.19775,15.5116667 42.3840431,16.0102381 C43.0321897,16.282619 43.7329655,16.4264286 44.4029224,16.6502381 C44.9965431,16.8483333 45.6238276,17.0007143 46.1591293,17.3083333 C47.2093448,17.9130952 47.1638276,18.8969048 46.1216724,19.5188095 C45.4626207,19.9121429 44.7542586,19.8921429 44.0624914,19.7154762 C43.3005517,19.5207143 42.5604224,19.2321429 41.9283966,18.7364286 C41.159819,18.1335714 40.7961552,18.7821429 40.4087845,19.2469048 C39.8739569,19.8883333 40.410681,20.2259524 40.8592155,20.5192857 C42.0701638,21.3111905 43.3877931,21.7778571 44.8561983,21.7230952" id="Fill-10" fill="#FEFEFE"></path>
                <path d="M89.3844828,15.5769048 C89.3844828,17.1559524 89.3925431,18.7345238 89.3806897,20.3135714 C89.3754741,21.012619 89.5001724,21.6102381 90.354569,21.6164286 C92.5555172,21.6330952 94.7564655,21.6207143 96.9569397,21.6240476 C97.7615517,21.625 97.7601293,21.0707143 97.7715086,20.4892857 C97.7838362,19.8421429 97.6121983,19.4397619 96.8535776,19.4592857 C95.5966379,19.4916667 94.3335345,19.397381 93.0822845,19.4864286 C91.8874569,19.5711905 91.6271552,19.0511905 91.6579741,17.9635714 C91.7243534,15.5969048 91.6537069,13.2269048 91.688319,10.8592857 C91.7006466,10.0159524 91.3369828,9.77738095 90.5612931,9.7902381 C89.8206897,9.80214286 89.3603017,9.97071429 89.3773707,10.8407143 C89.4077155,12.4188095 89.3859052,13.9978571 89.3844828,15.5769048" id="Fill-12" fill="#FEFEFE"></path>
                <path d="M53.3514224,15.5943333 C53.3514224,17.2490952 53.3537931,18.9038571 53.3504741,20.558619 C53.3490517,21.3781429 53.8089655,21.6171905 54.5543103,21.6414762 C55.381681,21.668619 55.6557328,21.2924286 55.6514655,20.5124286 C55.6339224,17.2819524 55.6253879,14.051 55.6543103,10.8205238 C55.6618966,9.94814286 55.2318534,9.78861905 54.494569,9.78861905 C53.7288362,9.78909524 53.3243966,10.0262381 53.3400431,10.8667143 C53.3699138,12.4419524 53.3485776,14.018619 53.3514224,15.5943333" id="Fill-14" fill="#FEFEFE"></path>
                <g id="Group-18">
                    <mask id="mask-4" fill="white">
                        <use xlink:href="#path-3"></use>
                    </mask>
                    <g id="Clip-17"></g>
                    <path d="M22.7836552,6.15247619 C22.8391293,5.342 22.5740862,4.66961905 21.9302069,4.16152381 C19.7060259,1.91152381 17.149,1.022 14.0803793,2.22247619 C13.1520172,2.13438095 12.601069,2.81104762 11.9486552,3.28247619 C10.6063707,4.20057143 9.36792241,5.1967619 9.20339655,6.99342857 C8.41869828,7.20247619 8.68042241,7.87580952 8.58796552,8.392 C7.97111207,8.7872381 8.00382759,9.5167619 7.90046552,10.0753333 C7.43106897,12.6139048 6.53162931,15.0286667 5.91382759,17.5215238 C5.85598276,18.1810476 5.79766379,18.8405714 5.73981897,19.5000952 C5.40602586,21.1929524 5.57861207,22.7753333 6.74736207,24.1391429 C6.7815,24.9210476 6.96451724,25.6286667 7.69326724,26.0667619 C9.97576724,28.3729524 12.5887414,29.2777143 15.722319,27.9777143 C16.4946897,27.9129524 17.1684397,27.6605714 17.6169741,26.9777143 C18.9459828,26.214381 19.8397328,25.0686667 20.4779224,23.6977143 C21.2000345,23.2153333 20.9918879,22.3272381 21.3479655,21.6853333 C22.1288707,18.692 22.9093017,15.6991429 23.6902069,12.7062857 C23.7442586,12.0586667 23.7978362,11.4115238 23.8518879,10.764381 C24.4526207,9.00342857 23.9533534,7.49961905 22.7836552,6.15247619 M10.9804655,1.92771429 C12.3924483,1.28104762 13.7062845,0.448666667 15.3406379,0.316285714 C19.2574914,-0.00228571429 22.1890862,1.49295238 24.2032241,4.86009524 C24.3615862,5.12485714 24.5517155,5.37009524 24.7271466,5.62390476 C24.7750345,6.46104762 25.3800345,7.17247619 25.2676638,8.04533333 C25.271931,9.56819048 25.2766724,11.0915238 25.2809397,12.614381 C25.1130948,13.2572381 24.94525,13.9000952 24.7774052,14.5429524 C24.0562414,16.2567619 23.6304655,18.0553333 23.257319,19.8691429 C22.4086121,20.664381 23.071931,21.7229524 22.783181,22.6158095 C21.9913707,23.8429524 21.2673621,25.1024762 20.9008534,26.5358095 C20.0630517,27.0405714 19.1342155,27.4291429 18.6060259,28.3329524 C15.1609397,30.3715238 11.7130086,30.6815238 8.19016379,28.4724762 C6.65632759,27.5100952 5.85693103,25.9762857 4.86076724,24.5834286 C4.98878448,23.7258095 4.33210345,23.0486667 4.32214655,22.2229524 C4.31313793,20.6867619 4.30460345,19.1505714 4.29559483,17.614381 C4.55352586,17.0077143 4.92003448,16.4310476 4.81382759,15.7239048 C5.52266379,14.0072381 5.9802069,12.2181905 6.34007759,10.4010476 C7.09917241,9.55057143 6.44865517,8.31152381 7.14800862,7.44485714 C7.45287931,6.02961905 8.56283621,5.022 9.03033621,3.68914286 C9.58412931,2.99438095 10.5750776,2.78819048 10.9804655,1.92771429" id="Fill-16" fill="#3D8393" mask="url(#mask-4)"></path>
                </g>
                <path d="M62.6728793,13.3980952 C62.6728793,16.1295238 62.6411121,18.3061905 62.6871034,20.4819048 C62.7084397,21.4880952 62.2338276,21.7247619 61.3751638,21.5852381 C60.5866724,21.4571429 60.7071034,20.8352381 60.7061552,20.3019048 C60.6990431,17.2890476 60.691931,14.2761905 60.7127931,11.2633333 C60.7161121,10.762381 60.4520172,10.0152381 61.1997328,9.88666667 C61.9242155,9.76238095 62.7582241,9.53571429 63.3101207,10.4366667 C64.2479655,11.9680952 65.2479224,13.4614286 66.3336983,15.1447619 C67.3279655,13.6333333 68.2487414,12.2666667 69.1330086,10.8766667 C69.533181,10.2471429 69.9376207,9.79190476 70.7962845,9.78619048 C71.7597328,9.77952381 72.2011552,9.99 72.1783966,11.0838095 C72.1134397,14.1747619 72.1518448,17.267619 72.1589569,20.36 C72.1603793,21.03 72.1741293,21.6147619 71.217319,21.6247619 C70.2111983,21.6347619 69.8062845,21.2690476 69.8366293,20.2285714 C69.8944741,18.252381 69.8532241,16.2738095 69.8532241,14.0590476 C68.6802069,14.9171429 68.274819,16.0690476 67.5716724,16.9771429 C66.5902069,18.2447619 66.0018017,18.2652381 65.0748621,16.9642857 C64.3522759,15.9504762 63.6804224,14.8995238 62.6728793,13.3980952" id="Fill-19" fill="#353534"></path>
                <path d="M100.776358,15.5896667 C100.777306,14.0034762 100.789159,12.4168095 100.771616,10.8310952 C100.76403,10.1468095 101.032392,9.80538095 101.739806,9.80871429 C104.109073,9.82061905 106.477866,9.81919048 108.847134,9.81395238 C109.699634,9.81204762 109.590582,10.4215714 109.614763,10.9687143 C109.641789,11.5758571 109.354461,11.805381 108.767004,11.7996667 C107.187651,11.7844286 105.605453,11.8539524 104.029418,11.7801429 C102.673384,11.7163333 103.034677,12.6487143 102.978254,13.3739524 C102.91472,14.1891905 103.041789,14.7282381 104.100539,14.6649048 C105.595496,14.5758571 107.099935,14.655381 108.600108,14.640619 C109.298039,14.6339524 109.562134,14.9287143 109.558341,15.6391905 C109.553599,16.4025238 109.167177,16.5668095 108.523772,16.5610952 C107.023599,16.5472857 105.520108,16.6149048 104.023254,16.5410952 C102.906185,16.4858571 102.914246,17.1610952 102.988211,17.9044286 C103.056961,18.5925238 102.597996,19.6068095 103.956401,19.5849048 C105.456573,19.560619 106.958168,19.6072857 108.457392,19.5734762 C109.216487,19.5563333 109.633254,19.745381 109.631358,20.6158571 C109.629935,21.5115714 109.161961,21.6363333 108.427522,21.6272857 C106.295797,21.6001429 104.163125,21.5991905 102.031401,21.6263333 C101.124375,21.6377619 100.749332,21.2549048 100.766875,20.3482381 C100.797694,18.7625238 100.775409,17.1758571 100.776358,15.5896667" id="Fill-21" fill="#393938"></path>
                <path d="M79.1987198,13.7659524 C79.2053578,15.7645238 79.2053578,15.7645238 80.8122112,15.7778571 C82.8619095,15.795 83.9709181,15.0364286 83.8865216,13.675 C83.8111336,12.4535714 82.7177716,11.785 80.8103147,11.7935714 C79.1920819,11.8002381 79.1920819,11.8002381 79.1987198,13.7659524 M76.9645819,15.4430952 C76.9626853,13.9397619 76.9916078,12.4359524 76.951306,10.9335714 C76.9299698,10.125 77.2348405,9.78214286 78.0422974,9.80595238 C79.5377284,9.8502381 81.0426422,9.76119048 82.5276422,9.90071429 C84.5304009,10.0883333 85.7944526,11.3797619 85.9646681,13.1802381 C86.1832457,15.4883333 85.3297974,16.8530952 83.2293664,17.5364286 C82.8552716,17.6583333 82.468375,17.7402381 82.0890647,17.8464286 C81.1919957,18.0978571 80.0445819,17.4669048 79.3973836,18.2235714 C78.8563922,18.8559524 79.261306,19.8935714 79.199194,20.7492857 C79.1437198,21.5111905 78.6259612,21.6054762 78.0394526,21.607381 C77.4164353,21.6088095 76.9636336,21.3992857 76.965056,20.665 C76.9688491,18.9245238 76.9664784,17.1835714 76.9645819,15.4430952" id="Fill-23" fill="#383837"></path>
                <path d="M44.856056,21.7237619 C43.3876509,21.7775714 42.0700216,21.3109048 40.8590733,20.519 C40.4105388,20.2261429 39.8738147,19.8885238 40.4086422,19.2470952 C40.7960129,18.7818571 41.1596767,18.1332857 41.9282543,18.736619 C42.5602802,19.2318571 43.3004095,19.5209048 44.0628233,19.7156667 C44.7541164,19.8918571 45.4624784,19.9118571 46.1220043,19.5185238 C47.1636853,18.8970952 47.2092026,17.9132857 46.1589871,17.3085238 C45.6236853,17.0004286 44.9964009,16.8485238 44.4027802,16.6499524 C43.7332974,16.4261429 43.0325216,16.2823333 42.3839009,16.0099524 C41.1976078,15.511381 40.5077371,14.6104286 40.4570043,13.2823333 C40.4039009,11.8837619 40.9823491,10.7894762 42.2179526,10.1809048 C44.2207112,9.19471429 46.1798491,9.50138095 48.0498491,10.626619 C48.6951509,11.0147143 48.5728233,11.459 48.2053664,11.999 C47.8530819,12.5175714 47.571444,12.8437619 46.9095474,12.3823333 C46.1201078,11.831381 45.2097629,11.5494762 44.2306681,11.6656667 C43.5033405,11.7518571 42.7892888,11.9299524 42.7224353,12.8547143 C42.6674353,13.621381 43.1657543,13.9856667 43.8153233,14.1932857 C44.6355819,14.4556667 45.4657974,14.6899524 46.2808405,14.9685238 C48.5661853,15.7494762 49.2475216,16.7056667 48.9962284,18.7361429 C48.778125,20.496619 47.4230388,21.6009048 45.3287716,21.7218571 C45.1718319,21.7309048 45.013944,21.7232857 44.856056,21.7237619" id="Fill-25" fill="#373736"></path>
                <path d="M89.385194,15.5769048 C89.3861422,13.9978571 89.4079526,12.4188095 89.3771336,10.8407143 C89.3605388,9.97071429 89.8209267,9.80214286 90.5615302,9.7902381 C91.3367457,9.77738095 91.7004095,10.0159524 91.6880819,10.8592857 C91.653944,13.2269048 91.7241164,15.5969048 91.6577371,17.9635714 C91.6273922,19.0511905 91.8872198,19.5711905 93.0820474,19.4864286 C94.3332974,19.397381 95.5964009,19.4916667 96.8533405,19.4592857 C97.6119612,19.4397619 97.7840733,19.8421429 97.7712716,20.4892857 C97.7603664,21.0707143 97.7613147,21.625 96.9571767,21.6240476 C94.7562284,21.6207143 92.5552802,21.6330952 90.354806,21.6164286 C89.5004095,21.6102381 89.3752371,21.012619 89.3804526,20.3135714 C89.3927802,18.7345238 89.3842457,17.1559524 89.385194,15.5769048" id="Fill-27" fill="#3E3E3D"></path>
                <path d="M53.3500948,15.5943333 C53.3486724,14.018619 53.3700086,12.4419524 53.3401379,10.8667143 C53.3240172,10.0262381 53.7284569,9.78909524 54.4946638,9.78861905 C55.2319483,9.78861905 55.6619914,9.94814286 55.6544052,10.8205238 C55.6254828,14.051 55.6340172,17.2819524 55.6515603,20.5124286 C55.6553534,21.2924286 55.3817759,21.668619 54.5544052,21.6414762 C53.8085862,21.6171905 53.3491466,21.3781429 53.350569,20.558619 C53.3534138,18.9038571 53.3515172,17.2490952 53.3500948,15.5943333" id="Fill-29" fill="#3F3F3E"></path>
                <path d="M18.6059784,28.3330476 C19.1341681,27.4292381 20.0630043,27.0406667 20.900806,26.5354286 C23.9912371,25.7725714 25.7194698,24.0411429 26.0978319,21.3292381 C26.1073147,20.2549524 27.2310216,19.5730476 27.1039526,18.4501905 C27.2376595,18.4673333 27.3718405,18.4754286 27.5069698,18.4744762 C28.6064957,20.5697143 27.7848147,22.5387619 26.6995129,24.1887619 C24.8413664,27.0135238 22.1923578,28.7049524 18.6059784,28.3330476" id="Fill-31" fill="#E57C65"></path>
                <path d="M27.5067802,18.474381 C27.372125,18.4758095 27.237944,18.4677143 27.1042371,18.4500952 L27.1189353,18.4672381 C27.6352716,17.6377143 27.6172543,16.7177143 27.5688922,15.7924762 C28.6423405,13.9062857 28.2217802,11.9815238 27.4095819,10.2205714 C27.0122543,9.35866667 26.701694,8.03628571 25.2674267,8.04533333 C25.3797974,7.17247619 24.7747974,6.46104762 24.7273836,5.62390476 C29.5773405,7.90580952 30.386694,13.082 28.915444,17.1458095 C28.6864353,17.7777143 28.4294526,18.519619 27.5067802,18.474381" id="Fill-33" fill="#7BABB5"></path>
                <path d="M10.9806552,1.92761905 C10.5752672,2.78809524 9.58431897,2.99428571 9.03052586,3.68904762 C8.48337069,3.6647619 7.98647414,3.77809524 7.45828448,3.98047619 C4.95531034,4.93761905 3.89940517,7.06333333 3.0047069,9.34333333 C2.91177586,10.277619 2.28022414,10.9747619 1.93457759,11.7980952 C0.965439655,10.522381 1.68091379,9.2452381 2.02608621,8.03142857 C3.06918966,4.36380952 7.12828448,1.37619048 10.9806552,1.92761905" id="Fill-35" fill="#E57D66"></path>
                <path d="M4.32200431,22.2227619 C4.33243534,23.0484762 4.98864224,23.725619 4.860625,24.5837143 C0.599547414,22.8760952 -0.98549569,17.4560952 0.606659483,13.2784762 C0.837090517,12.6732381 1.12678879,12.1151429 1.92950431,12.2170476 L1.98403017,12.2718095 L1.99540948,14.1984762 C0.755538793,17.4989524 1.5155819,20.120381 4.32200431,22.2227619" id="Fill-37" fill="#7BAAB5"></path>
                <path d="M1.93457759,11.7980952 C2.28022414,10.9747619 2.91177586,10.277619 3.0047069,9.34333333 C4.56699138,9.10904762 5.58496552,7.67761905 7.14772414,7.4447619 C6.44837069,8.31190476 7.09936207,9.55095238 6.3397931,10.4009524 C6.13401724,10.1804762 6.41423276,9.3647619 5.81112931,9.71904762 C4.76328448,10.3342857 3.57746552,10.8933333 3.20811207,12.247619 C2.80035345,12.2557143 2.39212069,12.2638095 1.98388793,12.2719048 L1.92983621,12.2171429 C1.97013793,12.0780952 1.97203448,11.9380952 1.93457759,11.7980952" id="Fill-39" fill="#7EABB5"></path>
                <path d="M23.6902543,12.7060952 C22.9093491,15.6989524 22.1289181,18.6922857 21.3480129,21.6851429 C18.3149526,22.3151429 15.3435302,23.1699048 12.4052974,24.148 C10.4362026,21.7470476 8.15749569,19.6518095 5.913875,17.5218095 C6.53167672,15.0289524 7.43111638,12.6137143 7.90051293,10.075619 C8.003875,9.51657143 7.97068534,8.78752381 8.58801293,8.39228571 C11.5224526,7.92942857 14.3587457,7.09180952 17.1585302,6.118 C19.193056,8.45657143 21.399694,10.6232381 23.6902543,12.7060952" id="Fill-41" fill="#FEFEFE"></path>
                <path d="M25.2675216,8.04528571 C26.7017888,8.0362381 27.0123491,9.35861905 27.4096767,10.2205238 C28.2214009,11.9814762 28.6424353,13.9062381 27.5689871,15.7924286 C26.6994181,14.8105238 26.492694,13.3476667 25.2807974,12.6143333 C25.2765302,11.0914762 25.2717888,9.56814286 25.2675216,8.04528571" id="Fill-43" fill="#F6F8F9"></path>
                <path d="M4.32200431,22.2227619 C1.5155819,20.120381 0.755538793,17.4989524 1.99540948,14.1984762 C2.83842672,15.2851429 2.97260776,16.8537143 4.29592672,17.6141905 C4.30446121,19.150381 4.31346983,20.6865714 4.32200431,22.2227619" id="Fill-45" fill="#F8F9F9"></path>
                <path d="M15.7223664,27.9775714 C12.5887888,29.2775714 9.97581466,28.3728095 7.69331466,26.066619 C8.13663362,25.2694762 8.71603017,25.8747143 9.2589181,25.8699524 C10.2901681,25.8604286 11.5731853,26.2742381 11.9856853,24.7218571 L12.1710733,24.6737619 L12.3621509,24.6737619 C12.3635733,24.8032857 12.3744784,24.9318571 12.3958147,25.0594762 C12.1819784,26.1685238 13.1212457,26.4532857 13.7475819,26.9542381 C14.3364612,27.4251905 15.2207284,27.3299524 15.7223664,27.9775714" id="Fill-47" fill="#F8F9F9"></path>
                <path d="M23.6902543,12.7060952 C21.399694,10.6232381 19.193056,8.45657143 17.1585302,6.118 L17.1959871,5.12704762 L17.3396509,5.12657143 L17.4833147,5.128 C17.9778405,5.68704762 18.6046509,5.98133333 19.337194,6.06704762 C20.5429267,7.9227619 22.231806,9.30990476 23.8519353,10.7641905 C23.7978836,11.4118095 23.744306,12.0589524 23.6902543,12.7060952" id="Fill-49" fill="#E67F68"></path>
                <path d="M14.0801422,2.22238095 C17.1492371,1.02190476 19.7062629,1.91142857 21.9299698,4.16142857 C21.8365647,4.27714286 21.7009612,4.50857143 21.6559181,4.49190476 C20.2676422,3.98047619 18.9410043,4.45666667 17.6015647,4.72047619 C16.7353147,3.45 15.1341509,3.22571429 14.0801422,2.22238095" id="Fill-51" fill="#F7F9F9"></path>
                <path d="M7.14781897,7.4447619 C5.58506034,7.67761905 4.56708621,9.10904762 3.00480172,9.34333333 C3.89902586,7.06333333 4.95493103,4.93761905 7.45790517,3.98047619 C7.98656897,3.77809524 8.48346552,3.6647619 9.03062069,3.68904762 C8.56312069,5.02190476 7.45268966,6.03 7.14781897,7.4447619" id="Fill-53" fill="#FCFBFB"></path>
                <path d="M12.3621034,24.6739524 L12.1710259,24.6739524 L11.9861121,24.7220476 C11.3787414,24.6368095 10.7272759,24.705381 10.2379655,24.213 C9.13322414,22.2615714 7.37559483,20.9396667 5.73981897,19.5001429 C5.79766379,18.840619 5.85550862,18.1810952 5.91382759,17.5215714 C8.15744828,19.6515714 10.4361552,21.7468095 12.40525,24.1482381 C12.3910259,24.3234762 12.3763276,24.4987143 12.3621034,24.6739524" id="Fill-55" fill="#E67D65"></path>
                <path d="M12.3621034,24.6739524 C12.3763276,24.4987143 12.3910259,24.3234762 12.40525,24.1482381 C15.3434828,23.1696667 18.3149052,22.315381 21.3479655,21.685381 C20.9918879,22.3272857 21.2000345,23.215381 20.4779224,23.6977619 C18.2215,23.4839524 16.2438707,24.4901429 14.1870603,25.1477619 C13.5896466,25.1182381 12.9927069,25.0887143 12.3957672,25.0596667 C12.374431,24.9320476 12.3635259,24.8034762 12.3621034,24.6739524" id="Fill-57" fill="#7AAAB5"></path>
                <path d="M26.0977371,21.3294762 C25.719375,24.041381 23.9911422,25.7723333 20.9007112,26.5356667 C21.2672198,25.1028095 21.9917026,23.8428095 22.7830388,22.6156667 C24.0195905,22.5294762 24.8213578,21.3118571 26.0977371,21.3294762" id="Fill-59" fill="#FCFBFB"></path>
                <path d="M17.1959397,5.12685714 L17.1584828,6.11780952 C14.3586983,7.09209524 11.5228793,7.92971429 8.58796552,8.39209524 C8.68042241,7.87590476 8.41869828,7.20257143 9.20339655,6.99352381 C11.3355948,6.35304762 13.4682672,5.71209524 15.6004655,5.07114286 C16.1324483,5.08971429 16.6639569,5.10828571 17.1959397,5.12685714" id="Fill-61" fill="#7CABB6"></path>
                <path d="M15.6005129,5.07138095 C13.4683147,5.71233333 11.3356422,6.35280952 9.20344397,6.9937619 C9.36796983,5.19661905 10.605944,4.20042857 11.9487026,3.28280952 C13.1226681,3.96804762 14.6645647,3.89566667 15.6005129,5.07138095" id="Fill-63" fill="#F9F9F9"></path>
                <path d="M14.1869181,25.1477143 C16.2442026,24.4900952 18.2218319,23.4839048 20.4777802,23.6977143 C19.8395905,25.0686667 18.9458405,26.214381 17.617306,26.9777143 C16.5187284,26.2824762 14.9654526,26.4472381 14.1869181,25.1477143" id="Fill-65" fill="#F8F9F9"></path>
                <path d="M23.2571767,19.8692857 C23.6303233,18.0554762 24.0560991,16.2564286 24.7772629,14.5430952 C26.1769181,15.4402381 26.021875,17.0645238 26.5514871,18.3688095 C25.6259698,19.0740476 24.9934698,20.1564286 23.8299353,20.5511905 C23.1315302,20.7883333 23.4292888,20.115 23.2571767,19.8692857" id="Fill-67" fill="#F8F9F9"></path>
                <path d="M5.73986638,19.4999524 C7.37564224,20.9399524 9.13327155,22.2618571 10.2380129,24.2128095 C9.07447845,24.1885238 7.91094397,24.1637619 6.74740948,24.139 C5.57865948,22.7751905 5.40607328,21.1932857 5.73986638,19.4999524" id="Fill-69" fill="#FBF9F9"></path>
                <path d="M23.8518879,10.7642857 C22.2317586,9.31 20.5428793,7.92285714 19.3371466,6.06714286 C20.4859828,6.0952381 21.634819,6.12380952 22.7836552,6.15238095 C23.9533534,7.49952381 24.4526207,9.00333333 23.8518879,10.7642857" id="Fill-71" fill="#FCFAFA"></path>
                <path d="M3.20830172,12.2475238 C3.57765517,10.8932381 4.76347414,10.3341905 5.81084483,9.71895238 C6.41442241,9.36466667 6.13373276,10.180381 6.33998276,10.4013333 C5.98011207,12.2184762 5.5230431,14.0075238 4.81373276,15.7237143 C3.59235345,14.8846667 3.50084483,13.5194286 3.20830172,12.2475238" id="Fill-73" fill="#F9F9F9"></path>
                <path d="M23.2571767,19.8692857 C23.4292888,20.115 23.1315302,20.7883333 23.8299353,20.5511905 C24.9934698,20.1564286 25.6259698,19.0740476 26.5514871,18.3688095 C26.7406681,18.4016667 26.9298491,18.4345238 27.1190302,18.467381 L27.1038578,18.4502381 C27.2314009,19.5730952 26.1072198,20.255 26.0977371,21.3292857 C24.8213578,21.3121429 24.0195905,22.5292857 22.7830388,22.6159524 C23.0717888,21.7230952 22.408944,20.6645238 23.2571767,19.8692857" id="Fill-75" fill="#7DABB5"></path>
                <path d="M27.1188879,18.4671905 C26.9297069,18.4343333 26.7405259,18.4014762 26.551819,18.368619 C26.0222069,17.0648095 26.1767759,15.4400476 24.7775948,14.5429048 C24.9454397,13.9000476 25.1132845,13.2571905 25.2811293,12.6143333 C26.4930259,13.3476667 26.69975,14.8105238 27.5688448,15.7924286 C27.6172069,16.7176667 27.6352241,17.6376667 27.1188879,18.4671905" id="Fill-77" fill="#E38069"></path>
                <path d="M22.7836552,6.15247619 C21.634819,6.12390476 20.4859828,6.09533333 19.3371466,6.0667619 C18.6050776,5.98152381 17.9777931,5.6867619 17.4832672,5.12819048 C17.564819,5.00438095 17.6046466,4.86866667 17.6018017,4.72009524 C18.9407672,4.45628571 20.2678793,3.98057143 21.655681,4.492 C21.7011983,4.50866667 21.8368017,4.2772381 21.9302069,4.16152381 C22.5740862,4.66961905 22.8391293,5.342 22.7836552,6.15247619" id="Fill-79" fill="#7EADB7"></path>
                <path d="M3.20830172,12.2475238 C3.50084483,13.5194286 3.59235345,14.8846667 4.81373276,15.7237143 C4.92041379,16.4313333 4.55343103,17.0075238 4.2955,17.6141905 C2.97265517,16.8537143 2.83847414,15.2851429 1.9954569,14.1984762 L1.98407759,12.2718095 C2.39183621,12.2637143 2.80006897,12.255619 3.20830172,12.2475238" id="Fill-81" fill="#E27F68"></path>
                <path d="M17.6016121,4.72028571 C17.6044569,4.86838095 17.5651034,5.00457143 17.4835517,5.12790476 L17.3398879,5.12695238 L17.19575,5.12695238 C16.6642414,5.10838095 16.1322586,5.08980952 15.60075,5.0712381 C14.6648017,3.89552381 13.1229052,3.96790476 11.9489397,3.28266667 C12.6008793,2.8107619 13.1518276,2.13409524 14.0801897,2.22219048 C15.1341983,3.22552381 16.7353621,3.44980952 17.6016121,4.72028571" id="Fill-83" fill="#E4816B"></path>
                <path d="M6.74726724,24.1391429 C7.91080172,24.1639048 9.07433621,24.1881905 10.2378707,24.2129524 C10.727181,24.7053333 11.3786466,24.6367619 11.9860172,24.722 C11.5735172,26.274381 10.2900259,25.8605714 9.25925,25.8700952 C8.71588793,25.8748571 8.13649138,25.269619 7.69317241,26.0667619 C6.96442241,25.6286667 6.78140517,24.9210476 6.74726724,24.1391429" id="Fill-85" fill="#7FADB8"></path>
                <path d="M14.1869181,25.1477143 C14.9654526,26.4472381 16.5187284,26.2824762 17.617306,26.9777143 C17.1682974,27.6605714 16.4945474,27.9129524 15.7221767,27.9777143 C15.2210129,27.3300952 14.3362716,27.4253333 13.7473922,26.954381 C13.121056,26.4534286 12.1817888,26.1686667 12.3960991,25.059619 C12.9930388,25.0891429 13.5899784,25.1181905 14.1869181,25.1477143" id="Fill-87" fill="#E27E68"></path>
                <path d="M79.1987198,13.7659524 C79.1920819,11.8002381 79.1920819,11.8002381 80.8103147,11.7935714 C82.7177716,11.785 83.8111336,12.4535714 83.8865216,13.675 C83.9709181,15.0364286 82.8619095,15.795 80.8122112,15.7778571 C79.2053578,15.7645238 79.2053578,15.7645238 79.1987198,13.7659524" id="Fill-89" fill="#FCFCFC"></path>
            </g>
        </g>
    </g>
</svg>