<?xml version="1.0" encoding="UTF-8" standalone="no"?>
<svg width="124px" height="154px" viewBox="0 0 124 154" version="1.1" xmlns="http://www.w3.org/2000/svg" xmlns:xlink="http://www.w3.org/1999/xlink">
    <!-- Generator: Sketch 3.6.1 (26313) - http://www.bohemiancoding.com/sketch -->
    <title>UX Hires Logo 2016_fb copy 6</title>
    <desc>Created with Sketch.</desc>
    <defs></defs>
    <g id="Page-1" stroke="none" stroke-width="1" fill="none" fill-rule="evenodd">
        <g id="UX-Hires-Overview" transform="translate(-450.000000, -185.000000)">
            <g id="UX-Hires-Logo-2016_fb-copy-6" transform="translate(451.000000, 186.000000)">
                <path d="M27.553456,65.2206076 L27.553456,45.3383544 C27.553456,44.6188671 28.175168,44.0020253 28.900336,44.0020253 C29.624528,44.0020253 30.24624,44.6188671 30.24624,45.3383544 L30.24624,64.9639937 C30.24624,73.44 34.854912,78.3205063 42.518464,78.3205063 C49.871648,78.3205063 54.583776,73.9028734 54.583776,65.2206076 L54.583776,45.3383544 C54.583776,44.6188671 55.204512,44.0020253 55.92968,44.0020253 C56.654848,44.0020253 57.27656,44.6188671 57.27656,45.3383544 L57.27656,64.9126709 C57.27656,75.2392025 51.217552,80.7365506 42.415008,80.7365506 C33.714944,80.7365506 27.553456,75.2905253 27.553456,65.2206076" id="Fill-1" fill="#FFFFFF"></path>
                <path d="M65.315872,78.2701519 L78.261536,61.8294304 L65.937584,46.2631329 C65.678944,45.9029051 65.472032,45.5949684 65.472032,45.2357089 C65.472032,44.6188671 66.092768,44.0020253 66.766208,44.0020253 C67.283488,44.0020253 67.593856,44.2596076 67.9052,44.6701899 L79.918784,60.0321646 L91.777184,44.8241582 C92.13928,44.3622532 92.501376,44.0020253 93.07136,44.0020253 C93.743824,44.0020253 94.26208,44.5675443 94.26208,45.2357089 C94.26208,45.5436456 94.10592,45.8515823 93.899984,46.1091646 L81.524304,61.7781076 L94.313808,78.1161835 C94.625152,78.475443 94.780336,78.7833797 94.780336,79.1436076 C94.780336,79.7604494 94.158624,80.3772911 93.48616,80.3772911 C92.967904,80.3772911 92.65656,80.1197089 92.346192,79.7081582 L79.815328,63.5763418 L67.438672,79.5541899 C67.076576,80.0160949 66.71448,80.3772911 66.144496,80.3772911 C65.472032,80.3772911 64.953776,79.8117722 64.953776,79.1436076 C64.953776,78.8356709 65.109936,78.5267658 65.315872,78.2701519" id="Fill-2" fill="#FFFFFF"></path>
                <path d="M10.527136,141.325519 L12.932976,141.325519 L12.932976,145.619203 L17.368896,145.619203 L17.368896,141.325519 L19.774736,141.325519 L19.774736,152.17593 L17.368896,152.17593 L17.368896,147.820272 L12.932976,147.820272 L12.932976,152.17593 L10.527136,152.17593 L10.527136,141.325519" id="Fill-3" fill="#FFFFFF"></path>
                <path d="M37.182672,141.325519 L39.588512,141.325519 L39.588512,152.17593 L37.182672,152.17593 L37.182672,141.325519 Z" id="Fill-4" fill="#FFFFFF"></path>
                <path d="M61.843264,146.595304 C63.014464,146.595304 63.685952,145.976525 63.685952,145.060462 L63.685952,145.030443 C63.685952,144.006892 62.967616,143.481076 61.79544,143.481076 L59.406192,143.481076 L59.406192,146.595304 L61.843264,146.595304 L61.843264,146.595304 Z M57.000352,141.325519 L61.999424,141.325519 C63.389248,141.325519 64.466752,141.712861 65.186064,142.426538 C65.795088,143.030791 66.124,143.883911 66.124,144.906494 L66.124,144.936513 C66.124,146.688266 65.170448,147.789285 63.779648,148.300576 L66.45096,152.17593 L63.64008,152.17593 L61.295728,148.703411 L59.406192,148.703411 L59.406192,152.17593 L57.000352,152.17593 L57.000352,141.325519 L57.000352,141.325519 Z" id="Fill-5" fill="#FFFFFF"></path>
                <path d="M82.968784,141.325519 L91.217936,141.325519 L91.217936,143.44912 L85.359984,143.44912 L85.359984,145.65019 L90.515216,145.65019 L90.515216,147.773791 L85.359984,147.773791 L85.359984,150.052329 L91.296016,150.052329 L91.296016,152.17593 L82.968784,152.17593 L82.968784,141.325519" id="Fill-6" fill="#FFFFFF"></path>
                <path d="M107.361952,150.594608 L108.783008,148.904829 C109.766816,149.711468 110.798448,150.222759 112.047728,150.222759 C113.032512,150.222759 113.62592,149.835418 113.62592,149.200177 L113.62592,149.16919 C113.62592,148.564937 113.251136,148.254095 111.423088,147.789285 C109.220256,147.231513 107.7992,146.627259 107.7992,144.472671 L107.7992,144.441684 C107.7992,142.472051 109.393008,141.170582 111.626096,141.170582 C113.218928,141.170582 114.578496,141.66638 115.688208,142.550487 L114.438928,144.347753 C113.46976,143.682494 112.517184,143.279658 111.594864,143.279658 C110.67352,143.279658 110.189424,143.697019 110.189424,144.223804 L110.189424,144.254791 C110.189424,144.968468 110.656928,145.200873 112.548416,145.681177 C114.765888,146.255411 116.016144,147.04462 116.016144,148.935816 L116.016144,148.967772 C116.016144,151.121392 114.359872,152.330867 112.00088,152.330867 C110.344608,152.330867 108.673696,151.756633 107.361952,150.594608" id="Fill-7" fill="#FFFFFF"></path>
                <path d="M121.640832,60.5812215 C121.640832,93.7560759 94.534384,120.650184 61.0976,120.650184 C27.65984,120.650184 0.554368,93.7560759 0.554368,60.5812215 C0.554368,27.4053987 27.65984,0.512259494 61.0976,0.512259494 C94.534384,0.512259494 121.640832,27.4053987 121.640832,60.5812215 L121.640832,60.5812215 Z" id="Stroke-8" stroke="#FFFFFF" stroke-width="1.89873418"></path>
                <path d="M113.42096,60.5812215 C113.42096,89.2522595 89.995008,112.494703 61.0976,112.494703 C32.200192,112.494703 8.77424,89.2522595 8.77424,60.5812215 C8.77424,31.9092152 32.200192,8.66677215 61.0976,8.66677215 C89.995008,8.66677215 113.42096,31.9092152 113.42096,60.5812215 L113.42096,60.5812215 Z" id="Stroke-9" stroke="#FFFFFF" stroke-width="1.89873418"></path>
            </g>
        </g>
    </g>
</svg>