<svg width="70" height="70" viewBox="0 0 70 70" xmlns="http://www.w3.org/2000/svg"><title>Artboard</title><g fill="none" fill-rule="evenodd"><ellipse cx="34.931" cy="34.931" rx="34.931" ry="34.931" fill="#F6F6F6"/><path d="M23.948 27.465c0-5.163 4.134-9.348 9.234-9.348s9.233 4.185 9.233 9.348c0 5.162-4.134 9.347-9.233 9.347-5.1 0-9.234-4.185-9.234-9.347" fill="#AAD8C9"/><path d="M48.952 46.845l-3.932 3.98c.6.607 1.38.913 2.145.913.705 0 1.394-.26 1.913-.785 1.08-1.095 1.024-2.944-.126-4.108zm-.12 1.354c.302.736.187 1.58-.363 2.137-.338.34-.8.53-1.305.53-.275 0-.55-.058-.806-.165L48.83 48.2z" fill="#E56F4C"/><path d="M32.188 30.832c0-.964.772-1.746 1.724-1.746s1.724.782 1.724 1.746c0 .963-.772 1.745-1.724 1.745a1.735 1.735 0 0 1-1.724-1.745" fill="#FFF"/><path d="M19.29 31.692c0-6.074 4.864-11 10.864-11 6 0 10.864 4.926 10.864 11 0 3.855-1.96 7.246-4.923 9.21a10.717 10.717 0 0 1-5.94 1.79c-6 0-10.865-4.925-10.865-11zm2.54 0c0-4.654 3.727-8.427 8.324-8.427 4.597 0 8.324 3.773 8.324 8.427s-3.727 8.427-8.324 8.427c-4.597 0-8.324-3.774-8.324-8.428zm17.544 6.257l8.06 8.157-3.15 3.19-8.06-8.16 3.15-3.188z" stroke="#181917" stroke-width=".955" stroke-linecap="round" stroke-linejoin="round"/></g></svg>