<svg width="70" height="70" viewBox="0 0 70 70" xmlns="http://www.w3.org/2000/svg"><title>Artboard</title><g fill="none" fill-rule="evenodd"><ellipse fill="#F6F6F6" cx="34.931" cy="34.931" rx="34.931" ry="34.931"/><path d="M28.033 36.145c0-3.636 2.91-6.583 6.498-6.583 3.59 0 6.5 2.947 6.5 6.583 0 3.635-2.91 6.582-6.5 6.582-3.588 0-6.497-2.947-6.497-6.582" fill="#AAD8C9"/><path d="M32.782 36.145c0-.98.783-1.773 1.75-1.773.966 0 1.75.794 1.75 1.773a1.76 1.76 0 0 1-1.75 1.772 1.76 1.76 0 0 1-1.75-1.772z" stroke="#181917" stroke-width=".896" stroke-linecap="round"/><path d="M23.68 33.027c2.16-3.69 6.135-6.164 10.68-6.164 4.55 0 8.53 2.482 10.69 6.182 3.11 0 3.137 3.353 0 3.353-2.16 3.7-6.14 6.18-10.69 6.18-4.545 0-8.52-2.472-10.68-6.162m-2.1-4.462c2.663-4.546 7.557-7.37 12.77-7.37 4.886 0 9.487 2.478 12.24 6.53 2.137.42 3.248 2.025 3.248 3.613 0 1.584-1.11 3.184-3.25 3.603-2.752 4.05-7.352 6.528-12.238 6.528-5.213 0-10.107-2.824-12.77-7.37" stroke="#181917" stroke-width=".896" stroke-linecap="round" stroke-linejoin="round"/><path d="M34.293 21.76v-5.148m-7.44 1.33l1.73 4.817m-8.273-.993l3.208 3.872m.03 17.926l-3.238 3.908m6.543 3.826l1.693-4.712m5.747.973v5.07m5.734-6.077l1.706 4.747m3.332-7.7l3.21 3.874m0-25.707L45 25.72m-4.988-2.99l1.72-4.79" stroke="#E56F4C" stroke-width=".896" stroke-linecap="round"/></g></svg>