<svg width="70" height="70" viewBox="0 0 70 70" xmlns="http://www.w3.org/2000/svg"><title>Artboard</title><g fill="none" fill-rule="evenodd"><ellipse cx="34.931" cy="34.931" rx="34.931" ry="34.931" fill="#F6F6F6"/><path d="M39.77 20.338H28.1a2.122 2.122 0 0 0-2.117 2.116v3.66h2.726v-2.146c0-.794.65-1.444 1.443-1.444h7.564c.794 0 1.444.65 1.444 1.444v2.146h2.726v-3.66a2.122 2.122 0 0 0-2.116-2.116M52.607 39.518c0 6.155-4.99 11.144-11.144 11.144-6.155 0-11.144-4.99-11.144-11.144s4.988-11.143 11.143-11.143 11.144 4.99 11.144 11.143" fill="#AAD8C9"/><g stroke-width=".886" stroke-linecap="round" stroke-linejoin="round"><path d="M45.743 47.004H22.126a3.51 3.51 0 0 1-3.5-3.5V29.917a3.51 3.51 0 0 1 3.5-3.5h23.617a3.51 3.51 0 0 1 3.5 3.5v13.587a3.51 3.51 0 0 1-3.5 3.5z" stroke="#181917"/><path d="M23.993 30.008v4.378m-2.188-2.19h4.18" stroke="#E2603E"/></g></g></svg>