<svg xmlns="http://www.w3.org/2000/svg" width="96.667" height="97" viewBox="0 -4.5 96.667 97"><g fill="#F26632"><path d="M86.986 43.01c-.393-4.31-2.35-8.225-5.484-10.967-3.328-2.74-7.438-4.112-11.75-3.72-4.31.195-8.227 2.152-10.967 5.482L40.77 54.955c-.59.588-.393 1.37.195 1.96.196.192.587.392.98.392s.782-.195.978-.393l18.017-21.15c2.35-2.743 5.48-4.31 9.01-4.7 3.523-.196 7.05.783 9.597 3.133 2.742 2.35 4.31 5.484 4.7 9.01.193 3.523-.784 7.05-3.135 9.79-2.35 2.743-5.48 4.312-9.008 4.7-3.524.195-7.05-.783-9.793-3.135L55.066 48.1c-.588-.394-1.37-.394-1.957.194s-.394 1.37.195 1.957l7.245 6.272c2.938 2.545 6.658 3.916 10.38 3.916h1.37c4.31-.394 8.226-2.353 10.968-5.482 2.74-3.524 4.112-7.638 3.72-11.945zM53.303 33.218c-.59-.586-1.37-.392-1.96.196l-16.45 19.39c-2.35 2.74-5.483 4.308-9.008 4.698-3.525.195-7.05-.783-9.792-3.133-2.742-2.355-4.31-5.485-4.7-9.013-.392-3.523.783-7.05 3.133-9.792 2.546-2.938 5.68-4.504 9.205-4.896 3.526-.198 7.05.78 9.597 3.132l7.05 6.07c.392.393.783.393 1.175.393s.783-.196.98-.393c.587-.588.39-1.37-.197-1.958l-7.05-6.07c-3.33-2.743-7.442-4.112-11.75-3.722a14.96 14.96 0 0 0-10.967 5.483c-2.742 3.33-4.113 7.442-3.72 11.75.39 4.31 2.35 8.23 5.482 10.97 2.938 2.546 6.66 3.917 10.38 3.917h1.37c4.308-.395 8.225-2.352 10.967-5.484l16.45-19.583c.588-.586.392-1.565-.194-1.957z"/></g></svg>