<svg xmlns="http://www.w3.org/2000/svg" viewBox="0 0 145 79"><g fill="#444441"><path d="M3.9 44.4c0-.3.3-.6.6-.6h.1c.3 0 .4.1.6.3l6.3 9.3 6.3-9.3c.1-.2.3-.3.6-.3h.1c.3 0 .6.3.6.6v15.2c0 .3-.3.6-.6.6s-.6-.3-.6-.6V46L12 54.7c-.1.2-.3.3-.5.3s-.4-.1-.5-.3L5.1 46v13.6c0 .3-.3.6-.6.6s-.6-.3-.6-.6V44.4zM25.9 52c0-4.5 3.3-8.4 8.2-8.4 4.9 0 8.1 3.9 8.1 8.3s-3.3 8.4-8.2 8.4-8.1-3.9-8.1-8.3zM41 52c0-4-2.9-7.3-6.9-7.3s-6.9 3.2-6.9 7.2 2.9 7.3 6.9 7.3S41 56 41 52zM52.1 44.9H47c-.3 0-.6-.3-.6-.6s.3-.6.6-.6h11.6c.3 0 .6.3.6.6s-.3.6-.6.6h-5.2v14.6c0 .3-.3.6-.6.6s-.6-.3-.6-.6V44.9zM65.4 44.3c0-.3.3-.6.6-.6s.6.3.6.6v15.2c0 .3-.3.6-.6.6s-.6-.3-.6-.6V44.3zM79.8 59.7l-6.6-15.1v-.3c0-.3.3-.6.6-.6s.5.2.6.5l6.2 14.5 6.2-14.5c.1-.3.3-.5.6-.5s.6.3.6.6v.2l-6.6 15.1c-.1.3-.3.5-.7.5-.6.1-.8-.1-.9-.4zM91.9 59.2l6.9-15c.2-.3.4-.6.8-.6s.6.2.8.6l6.9 14.9c.1.1.1.3.1.4 0 .3-.3.6-.6.6s-.5-.2-.6-.5l-1.9-4.2h-9.6l-1.9 4.2c-.1.3-.3.4-.6.4s-.6-.2-.6-.5c.2 0 .2-.1.3-.3zm12-4.8L99.6 45l-4.3 9.4h8.6zM116.2 44.9H111c-.3 0-.6-.3-.6-.6s.3-.6.6-.6h11.6c.3 0 .6.3.6.6s-.3.6-.6.6h-5.2v14.6c0 .3-.3.6-.6.6s-.6-.3-.6-.6V44.9zM129.3 59.4v-15c0-.3.3-.6.6-.6h10.5c.3 0 .6.3.6.6s-.3.6-.6.6h-9.9v6.4h8.8c.3 0 .6.3.6.6s-.3.6-.6.6h-8.8v6.5h10c.3 0 .6.3.6.6s-.3.6-.6.6h-10.6c-.3-.3-.6-.6-.6-.9z"/><g><path d="M34.9 76.5h-2.6v-6.7h2.6c2.1 0 3.5 1.4 3.5 3.3.1 1.9-1.4 3.4-3.5 3.4zm2-3.3c0-1.2-.8-2-2-2h-1.1v4h1.1c1.2 0 2-.8 2-2zM48.5 76.5v-6.7h5v1.3H50v1.4h3.1v1.3H50v1.4h3.6v1.3h-5.1zM66.1 76.6c-1 0-2-.4-2.8-1.1l.9-1c.6.5 1.2.8 2 .8.6 0 1-.2 1-.6 0-.4-.2-.6-1.3-.8-1.3-.3-2.2-.7-2.2-2 0-1.2 1-2 2.3-2 1 0 1.8.3 2.5.8l-.8 1.1c-.7-.5-1.3-.8-1.9-.8-.6 0-.9.3-.9.6 0 .4.3.6 1.4.9 1.4.4 2.1.8 2.1 2 .1 1.3-.9 2.1-2.3 2.1zM78.6 76.5v-6.7h1.5v6.7h-1.5zM93.7 76.6c-2.1 0-3.5-1.5-3.5-3.4s1.5-3.4 3.5-3.4c1.2 0 1.9.3 2.6.9l-.9 1.1c-.5-.4-1-.7-1.7-.7-1.1 0-1.9.9-1.9 2.1 0 1.2.8 2.1 2 2.1.5 0 1-.1 1.4-.4v-1h-1.5v-1.3h2.9v2.9c-.7.6-1.7 1.1-2.9 1.1zM111.4 76.5l-3.2-4.2v4.2h-1.4v-6.7h1.4l3.1 4.1v-4.1h1.4v6.7h-1.3z"/></g></g><g fill="#F2663B"><path d="M105.2 14.6c-.3-3.5-1.9-6.7-4.6-9-2.7-2.3-6.1-3.4-9.7-3.1-3.5.3-6.7 1.9-9 4.6L68 23.4c-.3.4-.3.9.1 1.2.2.1.4.2.5.2.2 0 .5-.1.6-.3l14-16.3c2-2.4 4.8-3.8 7.9-4 3.1-.3 6.1.7 8.4 2.7 2.4 2 3.8 4.8 4 7.9.3 3.1-.7 6.1-2.7 8.4-2 2.4-4.8 3.8-7.9 4-3.1.3-6.1-.7-8.4-2.7l-6.2-5.3c-.4-.3-.9-.3-1.2.1-.3.4-.3.9.1 1.2l6.2 5.3c2.4 2 5.4 3.1 8.5 3.1H93c3.5-.3 6.7-1.9 9-4.6 2.4-2.8 3.5-6.2 3.2-9.7zM76.9 6.6c-.4-.3-.9-.3-1.2.1L61.8 23.1c-2 2.4-4.8 3.8-7.9 4-3.1.3-6.1-.7-8.4-2.7-2.4-2-3.8-4.8-4-7.9-.3-3.1.7-6.1 2.7-8.4 2-2.4 4.8-3.8 7.9-4 3.1-.3 6.1.7 8.4 2.7l6 5.1c.2.1.4.2.5.2.2 0 .5-.1.6-.3.3-.4.3-.9-.1-1.2l-6-5.1c-2.7-2.3-6.1-3.4-9.7-3.1-3.5.3-6.7 1.9-9 4.6-2.3 2.7-3.4 6.1-3.1 9.7.3 3.5 1.9 6.7 4.6 9 2.4 2 5.4 3.1 8.5 3.1h1.1c3.5-.3 6.7-1.9 9-4.6L77 7.8c.3-.3.3-.9-.1-1.2z"/></g></svg>