<svg xmlns="http://www.w3.org/2000/svg" viewBox="-26 286.8 558.1 221.2"><path fill="#F1673C" d="M140.9 397.4c-11.3 26.8-40 41-68.3 37.2-27.2-3.6-51.7-22.7-60.3-49-8.3-25.8 1-54.6 23.9-69.6 24.5-16.1 57.6-13 80.8 4.1 23.8 17.8 35.1 49.2 23.9 77.3-.5 1.3 3.4.8 4-.5 11-27.7.4-58.9-22.6-77.1-23-18-55.7-22.1-81.9-8.8C15 323.8.7 351.8 6.5 379.8c6.2 29.6 32.2 51.9 61.5 56.7 31.2 5.2 64.2-9.7 76.8-39.6.6-1.2-3.3-.8-3.9.5z"/><path fill="#504E4F" d="M137 345.4c8.9 23.5 1.4 49.7-16.9 66.5-20 18.4-50.5 23.4-74.9 10.9-22.3-11.4-35-36.1-30.6-60.9 4.7-26.1 26.2-46.6 51.8-52.2 28.6-6.2 59.4 8 70.6 35.7.7 1.8 5.9.2 5.3-1.4-10.5-26-37.4-40.2-64.8-38.5-27.5 1.6-53.6 18.5-64.3 44.2-10.7 25.6-2.3 55.5 20.6 71.3 23.2 16 54.8 14.9 78.5.7 26.4-15.8 41.2-48.1 30-77.8-.7-1.8-5.9-.2-5.3 1.5z"/><path fill="#F1673C" d="M44 376.2v-21.4h6.5v21.1c0 6.9 3.6 10.6 9.4 10.6 5.8 0 9.3-3.5 9.3-10.3v-21.4h6.5v21.1c0 11.1-6.3 16.7-16 16.7-9.6-.1-15.7-5.7-15.7-16.4zM91.7 373l-13-18.3h7.7l9.2 13.3 9.3-13.3h7.5l-12.9 18.1 13.5 19h-7.7l-9.8-14.1-9.8 14.1h-7.5L91.7 373z"/><g fill="#82D3F0"><path d="M12.2 454.7h2.2v13.8h19.1v-13.8h2.2v29.8h-2.2v-14h-19v14h-2.2v-29.8zM46.8 454.7H49v29.8h-2.2v-29.8zM60.2 454.7h12.5c3.7 0 6.6 1.1 8.4 2.9 1.4 1.4 2.3 3.4 2.3 5.5v.1c0 5-3.7 7.8-8.7 8.5l9.8 12.7h-2.8l-9.5-12.3H62.3v12.3h-2.2v-29.7zm12.2 15.4c5 0 8.7-2.5 8.7-6.8v-.1c0-4-3.1-6.5-8.6-6.5H62.4v13.4h10z"/></g><g><path fill="#82D3F0" d="M93.4 454.7h21.2v2h-19v11.7h17.1v2h-17v12h19.2v2H93.4v-29.7z"/></g><g><path fill="#82D3F0" d="M122.1 480.1l1.4-1.7c3.3 3 6.3 4.4 10.7 4.4 4.5 0 7.5-2.5 7.5-5.9v-.1c0-3.1-1.7-5-8.4-6.3-7.1-1.4-10-3.9-10-8.4v-.1c0-4.4 4-7.8 9.6-7.8 4.3 0 7.2 1.2 10.2 3.6l-1.4 1.7c-2.8-2.4-5.6-3.4-8.9-3.4-4.4 0-7.3 2.5-7.3 5.6v.1c0 3.1 1.6 5.1 8.7 6.5 6.9 1.4 9.8 3.9 9.8 8.2v.1c0 4.8-4.1 8.1-9.9 8.1-4.7.2-8.4-1.4-12-4.6z"/></g><path fill="none" d="M174 377.2h54v49.5h-54z"/><text transform="translate(190.897 401.304)" font-family="'ArialMT'" font-size="34">+</text><g fill="#444441"><path d="M250.2 406.3c0-.6.5-1.1 1.1-1.1h.2c.5 0 .8.3 1.1.6l11.6 17 11.6-17c.3-.4.6-.6 1.1-.6h.2c.6 0 1.1.5 1.1 1.1V434c0 .6-.5 1.1-1.1 1.1s-1.1-.5-1.1-1.1v-24.8L265.1 425c-.3.4-.6.6-.9.6-.4 0-.7-.2-.9-.6l-10.9-15.8v24.9c0 .6-.5 1.1-1.1 1.1s-1.1-.5-1.1-1.1v-27.8zM290.5 420.2c0-8.2 6-15.4 15-15.4s14.9 7.2 14.9 15.3v.1c0 8.1-6 15.3-15 15.3-9.1 0-14.9-7.2-14.9-15.3zm27.5 0c0-7.4-5.3-13.4-12.7-13.4s-12.6 5.9-12.6 13.3v.1c0 7.3 5.3 13.3 12.7 13.3s12.6-5.9 12.6-13.3zM338.5 407.4H329c-.6 0-1-.5-1-1 0-.6.5-1 1-1h21.2c.6 0 1 .5 1 1 0 .6-.5 1-1 1h-9.5v26.7c0 .6-.5 1.1-1.1 1.1s-1.1-.5-1.1-1.1v-26.7zM362.8 406.3c0-.6.5-1.1 1.1-1.1s1.1.5 1.1 1.1v27.8c0 .6-.5 1.1-1.1 1.1s-1.1-.5-1.1-1.1v-27.8zM389 434.3l-12-27.6c-.1-.2-.1-.3-.1-.5 0-.5.5-1.1 1.1-1.1s.9.4 1.1.9l11.3 26.6 11.4-26.6c.2-.5.6-.8 1.1-.8.6 0 1.1.5 1.1 1 0 .2 0 .3-.1.4l-12.1 27.7c-.3.6-.6 1-1.3 1h-.1c-.7 0-1.1-.4-1.4-1zM411.2 433.5l12.7-27.5c.3-.6.7-1.1 1.5-1.1h.1c.8 0 1.2.4 1.5 1.1l12.6 27.4c.1.3.2.5.2.7 0 .6-.5 1-1.1 1-.5 0-.9-.4-1.1-.8l-3.5-7.6h-17.5l-3.5 7.7c-.2.5-.5.8-1.1.8s-1-.4-1-.9c.1-.2.1-.5.2-.8zm22-8.8l-7.8-17.2-7.8 17.2h15.6zM455.8 407.4h-9.5c-.6 0-1-.5-1-1 0-.6.5-1 1-1h21.2c.6 0 1 .5 1 1 0 .6-.5 1-1 1H458v26.7c0 .6-.5 1.1-1.1 1.1s-1.1-.5-1.1-1.1v-26.7zM479.8 433.9v-27.5c0-.6.5-1.1 1.1-1.1H500c.6 0 1 .5 1 1 0 .6-.5 1-1 1h-18v11.6h16.1c.6 0 1 .5 1 1s-.5 1-1 1H482v11.9h18.3c.6 0 1 .5 1 1s-.5 1-1 1h-19.4c-.6.2-1.1-.3-1.1-.9z"/><g><path d="M306.9 465.1h-4.8v-12.2h4.8c3.8 0 6.5 2.6 6.5 6.1 0 3.5-2.6 6.1-6.5 6.1zm3.7-6.1c0-2.2-1.5-3.7-3.7-3.7h-2.1v7.4h2.1c2.2 0 3.7-1.5 3.7-3.7zM331.9 465.1v-12.2h9.2v2.4h-6.5v2.5h5.8v2.4h-5.8v2.6h6.6v2.4h-9.3v-.1zM364 465.3c-1.8 0-3.7-.6-5.2-2l1.6-1.9c1.1.9 2.2 1.5 3.6 1.5 1.1 0 1.8-.4 1.8-1.1 0-.7-.4-1-2.5-1.6-2.5-.6-4-1.3-4-3.7 0-2.2 1.8-3.7 4.3-3.7 1.8 0 3.3.6 4.5 1.6l-1.4 2c-1.1-.7-2.1-1.2-3.2-1.2-1 0-1.6.5-1.6 1.1 0 .8.5 1.1 2.6 1.6 2.5.6 3.9 1.5 3.9 3.7 0 2.3-1.8 3.7-4.4 3.7zM386.9 465.1v-12.2h2.7v12.2h-2.7zM414.6 465.3c-3.8 0-6.4-2.7-6.4-6.3 0-3.5 2.7-6.3 6.4-6.3 2.2 0 3.5.6 4.8 1.7l-1.7 2c-.9-.8-1.8-1.2-3.2-1.2-2 0-3.5 1.7-3.5 3.8 0 2.2 1.5 3.9 3.7 3.9 1 0 1.8-.2 2.5-.7v-1.7h-2.7v-2.3h5.3v5.3c-1.2 1-3 1.8-5.2 1.8zM447 465.1l-5.9-7.8v7.8h-2.7v-12.2h2.5l5.7 7.5v-7.5h2.7v12.2H447z"/></g></g><g fill="#F2663B"><path d="M435.6 351.7c-.5-6.5-3.6-12.3-8.5-16.5-4.9-4.2-11.2-6.2-17.7-5.7s-12.3 3.6-16.5 8.5l-25.4 29.9c-.6.7-.5 1.6.2 2.2.3.2.6.4 1 .4s.9-.2 1.2-.5l25.4-29.9c3.7-4.3 8.8-6.9 14.4-7.4s11.1 1.3 15.4 4.9c4.3 3.7 6.9 8.8 7.4 14.4s-1.3 11.1-4.9 15.4c-3.7 4.3-8.8 6.9-14.4 7.4s-11.1-1.3-15.4-4.9l-11.4-9.6c-.7-.6-1.6-.5-2.2.2-.6.7-.5 1.6.2 2.2l11.4 9.6c4.4 3.7 9.9 5.7 15.6 5.7.7 0 1.4 0 2-.1 6.5-.5 12.3-3.6 16.5-8.5 4.2-4.9 6.2-11.2 5.7-17.7zM383.8 337.2c-.7-.6-1.6-.5-2.2.2l-25.4 30c-3.7 4.3-8.8 6.9-14.4 7.4s-11.1-1.3-15.4-4.9c-4.3-3.7-6.9-8.8-7.4-14.4s1.3-11.1 4.9-15.4c3.7-4.3 8.8-6.9 14.4-7.4s11.1 1.3 15.4 4.9l11.1 9.4c.3.2.6.4 1 .4s.9-.2 1.2-.5c.6-.7.5-1.6-.2-2.2l-11.1-9.4c-4.9-4.2-11.2-6.2-17.7-5.7s-12.3 3.6-16.5 8.5c-4.2 4.9-6.2 11.2-5.7 17.7s3.6 12.3 8.5 16.5c4.4 3.7 9.9 5.8 15.6 5.8.7 0 1.4 0 2-.1 6.5-.5 12.3-3.6 16.5-8.5l25.4-30c.7-.7.7-1.7 0-2.3z"/></g></svg>