<svg xmlns="http://www.w3.org/2000/svg" viewBox="0 0 312.5 22.1"><g fill="#444441"><path d="M52.8 3.4c0-.3.3-.6.6-.6h.1c.3 0 .4.1.6.4l6.4 9.4 6.4-9.4c.1-.2.3-.4.6-.4h.1c.3 0 .6.3.6.6v15.3c0 .3-.3.6-.6.6s-.6-.3-.6-.6V5l-6 8.7c-.1.2-.3.3-.5.3s-.4-.1-.5-.3L54 5v13.7c0 .3-.3.6-.6.6s-.6-.3-.6-.6V3.4zM74.2 11.1c0-4.5 3.3-8.5 8.2-8.5s8.2 3.9 8.2 8.4-3.3 8.5-8.2 8.5-8.2-4-8.2-8.4zm15.2 0c0-4.1-2.9-7.4-7-7.4S75.5 7 75.5 11s2.9 7.4 7 7.4 6.9-3.3 6.9-7.3zM99.4 4h-5.2c-.3 0-.6-.3-.6-.6s.3-.6.6-.6h11.7c.3 0 .6.3.6.6s-.3.6-.6.6h-5.2v14.7c0 .3-.3.6-.6.6s-.6-.3-.6-.6V4zM113.9 3.4c0-.3.3-.6.6-.6s.6.3.6.6v15.3c0 .3-.3.6-.6.6s-.6-.3-.6-.6V3.4zM129.5 18.8l-6.7-15.2v-.3c0-.3.3-.6.6-.6s.5.2.6.5l6.2 14.6 6.3-14.7c.1-.3.3-.5.6-.5s.6.3.6.6v.2L131 18.8c-.1.3-.4.5-.7.5-.5 0-.7-.2-.8-.5zM141.8 18.4l7-15.1c.2-.4.4-.6.8-.6s.7.2.8.6l7 15.1c.1.1.1.3.1.4 0 .3-.3.6-.6.6s-.5-.2-.6-.5l-1.9-4.2h-9.6l-1.9 4.2c-.1.3-.3.4-.6.4s-.6-.2-.6-.5c0-.1 0-.3.1-.4zm12.1-4.9L149.6 4l-4.3 9.5h8.6zM166 4h-5.2c-.3 0-.6-.3-.6-.6s.3-.6.6-.6h11.7c.3 0 .6.3.6.6s-.3.6-.6.6h-5.2v14.7c0 .3-.3.6-.6.6s-.6-.3-.6-.6V4zM178.9 18.6V3.5c0-.3.3-.6.6-.6h10.6c.3 0 .6.3.6.6s-.3.6-.6.6h-9.9v6.4h8.9c.3 0 .6.3.6.6s-.3.6-.6.6h-8.9v6.6h10.1c.3 0 .6.3.6.6s-.3.6-.6.6h-10.7c-.4-.3-.7-.6-.7-.9z"/></g><g fill="#444441"><path d="M204.9 3.5c0-.3.3-.6.6-.6h4.8c5.1 0 8.7 3.5 8.7 8.1s-3.5 8.2-8.7 8.2h-4.8c-.3 0-.6-.3-.6-.6V3.5zm5.5 14.6c4.6 0 7.4-3.1 7.4-7S214.9 4 210.4 4h-4.2v14.1h4.2zM226.9 18.6V3.5c0-.3.3-.6.6-.6h10.6c.3 0 .6.3.6.6s-.3.6-.6.6h-9.9v6.4h8.9c.3 0 .6.3.6.6s-.3.6-.6.6h-8.9v6.6h10.1c.3 0 .6.3.6.6s-.3.6-.6.6h-10.7c-.4-.3-.7-.6-.7-.9zM245.6 17.2c-.1-.1-.2-.3-.2-.5 0-.3.3-.6.6-.6.2 0 .3.1.4.1 1.6 1.5 3.3 2.1 5.5 2.1 2.5 0 4.1-1.4 4.1-3.2 0-1.7-.9-2.7-4.6-3.5-3.9-.8-5.5-2.1-5.5-4.6 0-2.4 2.2-4.3 5.3-4.3 2.2 0 3.7.6 5.2 1.7.1.1.3.3.3.5 0 .3-.3.6-.6.6-.1 0-.3 0-.4-.1-1.4-1.1-2.8-1.5-4.5-1.5-2.4 0-4 1.4-4 3.1 0 1.7.9 2.8 4.8 3.6 3.8.8 5.4 2.1 5.4 4.5 0 2.6-2.3 4.5-5.4 4.5-2.6-.2-4.5-.9-6.4-2.4zM264.7 3.4c0-.3.3-.6.6-.6s.6.3.6.6v15.3c0 .3-.3.6-.6.6s-.6-.3-.6-.6V3.4zM273.5 11.1c0-4.5 3.2-8.5 8.1-8.5 2.5 0 4.1.7 5.6 1.8.1.1.2.3.2.5 0 .3-.3.6-.6.6-.1 0-.2 0-.4-.2-1.3-1-2.6-1.7-4.9-1.7-4 0-6.7 3.4-6.7 7.3 0 4.2 2.6 7.4 7 7.4 2.1 0 4-.9 5.2-1.9v-4.7h-5.1c-.3 0-.6-.3-.6-.6s.3-.6.6-.6h5.7c.3 0 .6.3.6.6v5.3c0 .2-.2.5-.4.7-1.5 1.2-3.6 2.1-6 2.1-5.3.3-8.3-3.5-8.3-8.1zM295.8 3.4c0-.3.3-.6.6-.6h.2c.3 0 .4.1.6.4l11 14V3.4c0-.3.3-.6.6-.6s.6.3.6.6v15.4c0 .3-.2.5-.5.5h-.1c-.2 0-.4-.2-.6-.4L296.9 4.6v14.1c0 .3-.3.6-.6.6s-.6-.3-.6-.6V3.4z"/></g><g fill="#F2663B"><path d="M43.1 10.4c-.2-2.2-1.2-4.2-2.8-5.6-1.7-1.4-3.8-2.1-6-1.9-2.2.1-4.2 1.1-5.6 2.8l-9.2 10.8c-.3.3-.2.7.1 1 .1.1.3.2.5.2s.4-.1.5-.2l9.2-10.8c1.2-1.4 2.8-2.2 4.6-2.4 1.8-.1 3.6.4 4.9 1.6 1.4 1.2 2.2 2.8 2.4 4.6.1 1.8-.4 3.6-1.6 5-1.2 1.4-2.8 2.2-4.6 2.4-1.8.1-3.6-.4-5-1.6L26.8 13c-.3-.2-.7-.2-1 .1-.3.3-.2.7.1 1l3.7 3.2c1.5 1.3 3.4 2 5.3 2h.7c2.2-.2 4.2-1.2 5.6-2.8 1.4-1.8 2.1-3.9 1.9-6.1zM25.9 5.4c-.3-.3-.7-.2-1 .1l-8.4 9.9c-1.2 1.4-2.8 2.2-4.6 2.4-1.8.1-3.6-.4-5-1.6-1.4-1.2-2.2-2.8-2.4-4.6s.4-3.6 1.6-5C7.4 5.1 9 4.3 10.8 4.1c1.8-.1 3.6.4 4.9 1.6l3.6 3.1c.2.2.4.2.6.2.2 0 .4-.1.5-.2.3-.3.2-.7-.1-1l-3.6-3.1c-1.7-1.4-3.8-2.1-6-1.9-2.2.1-4.2 1.1-5.6 2.8-1.4 1.7-2.1 3.8-1.9 6 .2 2.2 1.2 4.2 2.8 5.6 1.5 1.3 3.4 2 5.3 2h.7c2.2-.2 4.2-1.2 5.6-2.8l8.4-10c.3-.3.2-.8-.1-1z"/></g></svg>