<svg xmlns="http://www.w3.org/2000/svg" width="95.833" height="95.834" viewBox="0 0 95.833 95.834"><g fill="#444441"><path d="M103.403 381.02c0-.59.588-1.177 1.176-1.177h.194c.587 0 .783.196 1.176.783l12.533 18.41 12.534-18.41c.196-.393.587-.783 1.175-.783h.196c.588 0 1.175.588 1.175 1.176v29.962c0 .588-.588 1.176-1.175 1.176s-1.175-.588-1.175-1.176v-26.83l-11.75 17.038c-.196.392-.588.588-.98.588s-.783-.196-.978-.588l-11.75-17.038v26.83c0 .588-.586 1.176-1.174 1.176s-1.175-.588-1.175-1.176V381.02h-.002zM145.313 396.098c0-8.812 6.462-16.646 16.06-16.646 9.597 0 16.06 7.638 16.06 16.45s-6.465 16.646-16.06 16.646-16.06-7.833-16.06-16.45zm29.768 0c0-8.028-5.68-14.49-13.708-14.49s-13.513 6.46-13.513 14.294c0 7.834 5.678 14.493 13.707 14.493 8.03 0 13.514-6.463 13.514-14.297zM194.665 382.192H184.48c-.587 0-1.174-.586-1.174-1.174s.587-1.176 1.175-1.176h22.914c.587 0 1.175.588 1.175 1.176s-.59 1.174-1.176 1.174H197.21v28.79c0 .587-.587 1.175-1.175 1.175s-1.176-.588-1.176-1.176v-28.788h-.195zM223.062 381.02c0-.59.588-1.177 1.175-1.177.588 0 1.176.588 1.176 1.176v29.962c0 .588-.588 1.176-1.176 1.176s-1.175-.588-1.175-1.176V381.02zM253.613 411.178l-13.12-29.768v-.59c0-.585.586-1.173 1.174-1.173s.98.392 1.176.98l12.142 28.59 12.34-28.786c.194-.587.585-.978 1.173-.978s1.176.587 1.176 1.175v.393l-13.123 30.16c-.194.586-.78.978-1.37.978-.98 0-1.37-.392-1.567-.98zM277.702 410.395l13.71-29.57c.39-.784.78-1.177 1.564-1.177.782 0 1.37.393 1.567 1.176l13.707 29.57c.197.196.197.59.197.784 0 .587-.588 1.175-1.176 1.175s-.978-.392-1.175-.98l-3.72-8.224h-18.802l-3.722 8.224c-.195.588-.586.784-1.174.784s-1.176-.394-1.176-.98c.004-.197.004-.588.202-.783zm23.696-9.597l-8.42-18.604-8.422 18.604h16.842zM325.094 382.192H314.91c-.588 0-1.176-.586-1.176-1.174s.588-1.176 1.176-1.176h22.914c.586 0 1.174.588 1.174 1.176s-.588 1.174-1.174 1.174h-10.186v28.79c0 .587-.588 1.175-1.176 1.175-.586 0-1.174-.588-1.174-1.176v-28.788h-.194zM350.358 410.786v-29.572c0-.587.588-1.175 1.176-1.175h20.758c.588 0 1.176.586 1.176 1.174s-.588 1.176-1.176 1.176h-19.39v12.533h17.43c.59 0 1.177.587 1.177 1.175s-.59 1.177-1.177 1.177h-17.43V410.2h19.78c.59 0 1.175.588 1.175 1.175 0 .588-.588 1.176-1.176 1.176h-20.955c-.78-.59-1.37-1.177-1.37-1.764z"/></g><g fill="#444441"><path d="M401.276 381.214c0-.587.588-1.175 1.176-1.175h9.398c9.988 0 17.04 6.853 17.04 15.86 0 9.01-6.855 16.06-17.04 16.06h-9.398c-.588 0-1.176-.587-1.176-1.174v-29.572zm10.77 28.593c9.01 0 14.493-6.07 14.493-13.71 0-7.637-5.68-13.902-14.493-13.902h-8.225v27.612h8.225zM444.362 410.786v-29.572c0-.587.586-1.175 1.174-1.175h20.76c.588 0 1.174.586 1.174 1.174s-.586 1.176-1.174 1.176h-19.39v12.533h17.43c.59 0 1.177.587 1.177 1.175s-.588 1.177-1.176 1.177h-17.43V410.2h19.78c.587 0 1.175.588 1.175 1.175 0 .588-.588 1.176-1.176 1.176H445.73c-.782-.59-1.368-1.177-1.368-1.764zM480.983 408.044a1.498 1.498 0 0 1-.393-.98c0-.588.588-1.176 1.176-1.176.393 0 .586.196.783.196 3.132 2.938 6.462 4.112 10.77 4.112 4.895 0 8.027-2.74 8.027-6.268 0-3.33-1.762-5.288-9.008-6.854-7.64-1.567-10.772-4.113-10.772-9.01 0-4.7 4.31-8.42 10.38-8.42 4.31 0 7.247 1.175 10.185 3.33.195.194.588.585.588.978 0 .587-.587 1.175-1.175 1.175-.195 0-.588 0-.783-.196-2.74-2.153-5.482-2.937-8.812-2.937-4.7 0-7.834 2.742-7.834 6.07 0 3.33 1.764 5.483 9.4 7.05 7.44 1.567 10.574 4.114 10.574 8.813 0 5.093-4.504 8.812-10.574 8.812-5.092-.385-8.812-1.757-12.533-4.694zM518.39 381.02c0-.59.585-1.177 1.175-1.177.588 0 1.174.588 1.174 1.176v29.962c0 .588-.587 1.176-1.175 1.176-.59 0-1.176-.588-1.176-1.176V381.02zM535.622 396.098c0-8.812 6.268-16.646 15.863-16.646 4.896 0 8.03 1.37 10.967 3.525.197.195.393.586.393.98 0 .586-.588 1.174-1.176 1.174-.196 0-.392 0-.784-.39-2.545-1.96-5.092-3.33-9.596-3.33-7.834 0-13.12 6.657-13.12 14.296 0 8.226 5.09 14.492 13.708 14.492 4.113 0 7.834-1.764 10.184-3.722v-9.203h-9.986c-.588 0-1.176-.59-1.176-1.177 0-.587.588-1.175 1.176-1.175h11.162c.588 0 1.176.588 1.176 1.176v10.38c0 .393-.393.98-.783 1.37a18.92 18.92 0 0 1-11.75 4.113c-10.38.59-16.258-6.854-16.258-15.862zM579.295 381.02c0-.59.586-1.177 1.174-1.177h.392c.588 0 .783.196 1.176.783l21.543 27.417v-27.026c0-.586.587-1.175 1.175-1.175s1.176.587 1.176 1.175v30.16c0 .587-.392.98-.978.98h-.197c-.39 0-.783-.395-1.174-.785l-22.13-28.005v27.613c0 .588-.588 1.176-1.176 1.176s-1.176-.588-1.176-1.176v-29.964h.197v.003z"/></g><g fill="#FFF"><path d="M86.987 46.678c-.393-4.31-2.35-8.226-5.484-10.968-3.328-2.74-7.44-4.112-11.75-3.72-4.31.195-8.227 2.152-10.967 5.482L40.77 58.622c-.59.588-.393 1.37.195 1.96a1.5 1.5 0 0 0 .98.392c.39 0 .782-.196.978-.393L60.94 39.43c2.35-2.742 5.482-4.31 9.01-4.7 3.523-.195 7.05.784 9.596 3.134 2.742 2.35 4.307 5.484 4.7 9.01.194 3.524-.784 7.05-3.134 9.79s-5.482 4.31-9.008 4.7c-3.525.197-7.05-.782-9.793-3.133l-7.245-6.46c-.588-.395-1.37-.395-1.957.193s-.393 1.37.195 1.958l7.246 6.27c2.938 2.546 6.657 3.917 10.378 3.917h1.37c4.31-.393 8.226-2.352 10.968-5.484 2.742-3.524 4.113-7.638 3.72-11.945zM53.303 36.885c-.588-.586-1.37-.392-1.96.196l-16.45 19.39c-2.35 2.74-5.483 4.31-9.008 4.7-3.525.195-7.05-.784-9.792-3.134-2.742-2.35-4.31-5.483-4.7-9.01-.392-3.524.783-7.05 3.133-9.79 2.546-2.94 5.68-4.505 9.205-4.897 3.526-.198 7.05.78 9.597 3.132l7.05 6.07c.392.393.783.393 1.175.393s.783-.196.98-.393c.587-.588.39-1.37-.197-1.958l-7.05-6.07c-3.33-2.743-7.442-4.112-11.75-3.722a14.96 14.96 0 0 0-10.967 5.483c-2.742 3.33-4.113 7.442-3.72 11.75.39 4.31 2.35 8.226 5.482 10.967 2.938 2.546 6.66 3.917 10.38 3.917h1.37c4.308-.393 8.225-2.35 10.967-5.484L53.5 38.843c.586-.587.39-1.566-.197-1.958z"/></g></svg>