<?xml version="1.0" encoding="utf-8"?>
<!-- Generator: Adobe Illustrator 19.1.0, SVG Export Plug-In . SVG Version: 6.00 Build 0)  -->
<svg version="1.1" id="Layer_1" xmlns="http://www.w3.org/2000/svg" xmlns:xlink="http://www.w3.org/1999/xlink" x="0px" y="0px"
	 viewBox="0 0 114 150" style="enable-background:new 0 0 114 150;" xml:space="preserve">
<style type="text/css">
	.st0{fill:#F1673C;}
	.st1{fill:#504E4F;}
	.st2{enable-background:new    ;}
	.st3{fill:#82D3F0;}
</style>
<g>
	<g>
		<g>
			<g>
				<path class="st0" d="M106.9,77.7c-8.9,21-31.4,32.2-53.6,29.2C32,104.1,12.8,89.1,6.1,68.5c-6.5-20.2,0.8-42.8,18.7-54.6
					C44,1.2,70,3.7,88.2,17.1C106.9,31,115.7,55.7,106.9,77.7c-0.4,1,2.7,0.6,3.1-0.4c8.6-21.7,0.3-46.2-17.7-60.5
					C74.3,2.7,48.7-0.5,28.1,9.9C8.2,20-3,41.9,1.5,63.9c4.9,23.2,25.3,40.7,48.2,44.5c24.5,4.1,50.4-7.6,60.2-31.1
					C110.5,76.4,107.4,76.7,106.9,77.7z"/>
			</g>
		</g>
		<g>
			<g>
				<path class="st1" d="M103.9,36.9c7,18.4,1.1,39-13.3,52.2c-15.7,14.4-39.6,18.4-58.8,8.6c-17.5-8.9-27.5-28.3-24-47.8
					c3.7-20.5,20.6-36.6,40.6-40.9C70.9,4.1,95.1,15.2,103.9,36.9c0.5,1.4,4.6,0.2,4.2-1.1C99.8,15.4,78.7,4.3,57.2,5.6
					c-21.6,1.3-42,14.5-50.4,34.7C-1.6,60.4,5,83.8,22.9,96.2c18.2,12.6,43,11.7,61.6,0.5c20.7-12.4,32.3-37.7,23.5-61
					C107.5,34.3,103.4,35.6,103.9,36.9z"/>
			</g>
		</g>
	</g>
	<g>
		<g class="st2">
			<path class="st0" d="M30.9,61.1V44.3H36v16.6c0,5.4,2.8,8.3,7.4,8.3s7.3-2.7,7.3-8.1V44.3h5.1v16.6c0,8.7-4.9,13.1-12.6,13.1
				C35.7,73.9,30.9,69.5,30.9,61.1z"/>
		</g>
		<g class="st2">
			<path class="st0" d="M68.3,58.6L58.1,44.2h6l7.2,10.4l7.3-10.4h5.9L74.5,58.4l10.6,14.9h-6l-7.7-11.1l-7.7,11.1h-5.9L68.3,58.6z"
				/>
		</g>
	</g>
	<g class="st2">
		<path class="st3" d="M6,122.7h1.7v10.8h15v-10.8h1.7V146h-1.7v-11H7.8v11H6.1L6,122.7L6,122.7z"/>
		<path class="st3" d="M33.1,122.7h1.7V146h-1.7V122.7z"/>
		<path class="st3" d="M43.6,122.7h9.8c2.9,0,5.2,0.9,6.6,2.3c1.1,1.1,1.8,2.7,1.8,4.3v0.1c0,3.9-2.9,6.1-6.8,6.7l7.7,10h-2.2
			l-7.5-9.6h-0.2h-7.6v9.6h-1.7L43.6,122.7L43.6,122.7z M53.2,134.7c3.9,0,6.8-2,6.8-5.3v-0.1c0-3.1-2.4-5.1-6.7-5.1h-7.9v10.5H53.2
			z"/>
	</g>
	<g class="st2">
		<path class="st3" d="M69.7,122.7h16.6v1.6H71.4v9.2h13.4v1.6H71.5v9.4h15.1v1.6H69.7V122.7z"/>
	</g>
	<g class="st2">
		<path class="st3" d="M92.2,142.6l1.1-1.3c2.6,2.4,4.9,3.5,8.4,3.5c3.5,0,5.9-2,5.9-4.6V140c0-2.4-1.3-3.9-6.6-4.9
			c-5.6-1.1-7.8-3.1-7.8-6.6v-0.1c0-3.5,3.1-6.1,7.5-6.1c3.4,0,5.6,0.9,8,2.8l-1.1,1.3c-2.2-1.9-4.4-2.7-7-2.7c-3.5,0-5.7,2-5.7,4.4
			v0.1c0,2.4,1.3,4,6.8,5.1c5.4,1.1,7.7,3.1,7.7,6.4v0.1c0,3.8-3.2,6.4-7.8,6.4C97.9,146.4,95,145.1,92.2,142.6z"/>
	</g>
</g>
</svg>
