<svg width="767" height="527" viewBox="0 0 767 527" xmlns="http://www.w3.org/2000/svg"><title>Page 1</title><g stroke-width="1.25" stroke="#A8E0D7" fill="none" fill-rule="evenodd" stroke-linecap="round" stroke-linejoin="round"><path d="M240.108 144.226L144.48 1.035l382.516 143.191z"/><path d="M526.995 144.226L622.624 1.035H335.737l-95.629 143.191M622.624 1.035l143.443 143.191h-95.629z"/><path d="M526.995 144.226L622.624 1.035 240.108 144.226z"/><path d="M240.108 144.226L144.48 1.035h286.887l95.629 143.191M526.995 144.226h143.443L383.552 526.069zM144.48 1.035L1.035 144.226h95.629z"/><path d="M383.552 526.07L240.108 144.225H96.665z"/><path d="M1.036 144.226l382.516 381.843 382.515-381.843z"/><path d="M383.552 526.07L1.036 144.225 144.48 1.035h478.145l143.443 143.191z"/></g></svg>