<svg xmlns="http://www.w3.org/2000/svg" width="100" height="100" viewBox="0 0 100 100"><path fill="#4A4A4A" d="M47.75 42.792c-6.26-2.85-13.454-4.353-20.807-4.353-7.35 0-14.542 1.503-20.803 4.35a.906.906 0 0 0 .75 1.65c6.027-2.74 12.96-4.19 20.052-4.19 7.096 0 14.03 1.45 20.055 4.19a.904.904 0 0 0 1.2-.45.905.905 0 0 0-.448-1.2zm-15.46-.552a.906.906 0 0 0-1.696.64c1.932 5.107 7.007 18.8 7.31 20.79.198 1.316.05 2.272-.44 2.844-.486.565-1.385.852-2.674.852H19.096c-1.29 0-2.188-.287-2.673-.852-.492-.572-.64-1.53-.44-2.843.304-1.99 5.38-15.682 7.31-20.79a.907.907 0 0 0-1.697-.64c-.717 1.9-7.018 18.618-7.404 21.16-.283 1.86.004 3.306.855 4.298.846.984 2.208 1.484 4.05 1.484H34.79c1.84 0 3.203-.498 4.05-1.48.85-.992 1.14-2.437.856-4.3-.386-2.543-6.69-19.263-7.406-21.16zm-5.346-5.78c4 0 7.255-3.255 7.255-7.256s-3.256-7.255-7.257-7.255c-4 0-7.255 3.252-7.255 7.253s3.253 7.255 7.254 7.255zm0-12.698c3 0 5.442 2.44 5.442 5.442s-2.44 5.442-5.442 5.442c-3 0-5.442-2.44-5.442-5.442s2.44-5.442 5.442-5.442zm-4.072 46.47c-.5 0-.907.406-.907.907v8.15a.905.905 0 0 0 1.813 0v-8.15a.905.905 0 0 0-.906-.907zm8.705 0c-.5 0-.907.406-.907.907v8.15a.905.905 0 0 0 1.813 0v-8.15a.905.905 0 0 0-.906-.907zM73.355 36.46c4 0 7.257-3.255 7.257-7.256s-3.256-7.255-7.257-7.255S66.1 25.2 66.1 29.202s3.253 7.255 7.255 7.255zm0-12.698c3.003 0 5.444 2.44 5.444 5.442s-2.443 5.442-5.446 5.442c-3 0-5.442-2.44-5.442-5.442s2.44-5.442 5.442-5.442zm20.805 19.03c-6.26-2.85-13.455-4.353-20.807-4.353-7.35 0-14.542 1.503-20.802 4.35a.907.907 0 0 0 .75 1.65c6.028-2.74 12.96-4.19 20.053-4.19 7.096 0 14.03 1.45 20.057 4.19a.904.904 0 0 0 1.2-.45.907.907 0 0 0-.45-1.2zm-13.618.678c-.483-.02-.938.32-.986.82l-1.864 20.12h-8.27l-1.865-20.12c-.046-.5-.498-.843-.986-.82a.908.908 0 0 0-.82.986l1.94 20.907v13.93a.905.905 0 0 0 1.81 0v-13.07h8.154v13.07a.905.905 0 0 0 1.813 0V65.316c0-.044-.02-.08-.025-.124l1.922-20.737a.907.907 0 0 0-.82-.986z"/></svg>