<svg xmlns="http://www.w3.org/2000/svg" viewBox="0 0 100 100" height="100" width="100"><g fill="#4A4A4A"><path d="M71.5 16.8c0-3-2.4-5.4-5.4-5.4H32.3c-3 0-5.4 2.4-5.4 5.4v68.3c0 3 2.4 5.4 5.4 5.4h33.8c1.5 0 2.8-.6 3.9-1.6 1-1 1.6-2.4 1.6-3.9l-.1-68.2zM32.3 88.5c-1.9 0-3.4-1.5-3.4-3.4V16.8c0-1.9 1.5-3.4 3.4-3.4h33.8c1.9 0 3.4 1.5 3.4 3.4v68.3c0 .9-.4 1.8-1 2.4-.7.7-1.5 1-2.4 1H32.3z"/><path d="M49.4 74.6c-2.8 0-5.1 2.3-5.1 5.1s2.3 5.1 5.1 5.1 5.1-2.3 5.1-5.1c.1-2.8-2.2-5.1-5.1-5.1zm-3.1 5.1c0-1.7 1.4-3.1 3.1-3.1 1.7 0 3.2 1.4 3.2 3.1 0 1.7-1.4 3.1-3.2 3.1-1.7.1-3.1-1.3-3.1-3.1zM33.9 24.9v44.8h30.7V24.9H33.9zm28.7 2v40.8H35.9V26.9h26.7zM41.4 20.1h15.7c.9 0 1.7-.8 1.7-1.7 0-.9-.8-1.7-1.7-1.7H41.4c-.9 0-1.7.8-1.7 1.7 0 1 .7 1.7 1.7 1.7z"/></g></svg>