<svg xmlns="http://www.w3.org/2000/svg" viewBox="0 0 100 100" height="100" width="100"><path fill="#4A4A4A" d="M49.6 85c-.2 0-.3 0-.4-.1-24.8-12.7-34.3-27.3-37.9-37.3-1.2-2.6-1.9-5.4-2-8.3v-.7c0-12.1 9.9-22 22-22 7.4 0 14.3 3.7 18.3 9.9 4.1-6.1 10.9-9.9 18.3-9.9 12.1 0 22 9.9 22 22v.8c-.1 2.9-.8 5.7-2 8.4-3.6 10-13.1 24.6-37.7 37.2-.2-.1-.4 0-.6 0zM31.3 18.5c-11 0-20 9-20 20v.6c.1 2.7.7 5.3 1.8 7.7 3.5 9.7 12.7 23.8 36.5 36.1 23.8-12.3 32.9-26.3 36.4-36 1.1-2.5 1.7-5.1 1.8-7.7v-.7c0-11-9-20-20-20-7.2 0-13.9 3.9-17.5 10.3-.4.6-1.4.6-1.7 0-3.4-6.4-10.1-10.3-17.3-10.3z"/></svg>