<svg xmlns="http://www.w3.org/2000/svg" viewBox="0 0 100 100" height="100" width="100"><g fill="#4A4A4A"><path d="M28.6 65.2c-.2 0-.4 0-.5-.1L8.8 53.4c-.5-.3-.6-.9-.3-1.4l10.6-18c.3-.5.9-.6 1.3-.4 4.2 2.3 10.4 5.7 11.9 6.5.3-.1.6-.3 1-.4 2.4-1.1 6.9-3.1 10.3-3 .6 0 1 .5 1 1s-.5 1-1 1c-2.9-.1-7.3 1.9-9.4 2.8-1.5.7-1.8.8-2.2.6-.1 0-.4-.1-11.6-6.3l-9.6 16.4 18.4 11.1c.5.3.6.9.3 1.4-.3.3-.6.5-.9.5z"/><path d="M72.4 63.1c-.2 0-.5-.1-.7-.3l-9.5-9c-7.8-2-10-6.8-10.8-8.7-.6.1-1.5.2-3 .2-.7.5-2.5 1.9-5 3.2-2.3 1.2-4.6.7-5.6-1-.6-1.1-.7-2.4-.1-3.5 4-7.8 8.7-9.4 11.9-9.4 1.9 0 3.1.6 3.2.6l12 5.3 17-8c.2-.1.5-.1.8 0 .3.1.5.3.6.5l8.3 18.7c.2.5 0 1-.4 1.3L72.9 63c-.2.1-.3.1-.5.1zM51.9 43c.8 0 1.1.7 1.4 1.4.8 1.8 2.5 5.9 9.7 7.6.2 0 .3.1.4.2l9.2 8.7 16.7-9.2-7.5-16.9-16.5 7.8c-.3.1-.6.1-.8 0l-12.4-5.5s-1-.4-2.4-.4c-2.7 0-6.6 1.4-10.1 8.3-.2.5-.2 1.1.1 1.5.5.8 1.7.9 3 .3 2.9-1.5 4.9-3.1 5-3.1.2-.2.4-.2.7-.2h.3c1.7 0 2.6-.2 2.9-.3-.2-.2 0-.2.3-.2z"/><path d="M69.6 67.7c-.5 0-1.1-.1-1.5-.4-.6-.4-8.4-6.4-10-7.6-.4-.3-.5-1-.2-1.4.3-.4 1-.5 1.4-.2 3.7 2.9 9.4 7.2 9.8 7.5.3.2 1.4 0 2.1-.7.6-.7.6-1.5-.2-2.6-.3-.5-.2-1.1.3-1.4.5-.3 1.1-.2 1.4.3 1.3 1.9 1.3 3.8 0 5.2-.7.8-2 1.3-3.1 1.3z"/><path d="M64.8 72.4c-.7 0-1.3-.2-1.8-.5-1.1-.8-8.8-7.4-9.1-7.6-.4-.4-.5-1-.1-1.4.4-.4 1-.5 1.4-.1 2.7 2.3 8.1 6.9 9 7.5.2.1.9.3 1.6-.2 1-.6 1.3-1.9 1.1-3.8-.1-.5.3-1.1.9-1.1.5-.1 1.1.3 1.1.9.5 3.6-1.1 5.2-2.1 5.7-.6.4-1.3.6-2 .6z"/><path d="M60.3 76.3c-.3 0-.5 0-.8-.1-2.4-.8-8.4-6.5-9.1-7.2-.4-.4-.4-1 0-1.4.4-.4 1-.4 1.4 0 2.4 2.4 6.9 6.3 8.3 6.7.3.1 1.1-.1 1.7-.8.6-.6.6-1.4.2-2.4-.2-.5 0-1.1.5-1.3.5-.2 1.1 0 1.3.5.7 1.7.5 3.3-.6 4.5-.6 1-1.8 1.5-2.9 1.5z"/><path d="M55.7 78.6c-2.5 0-6-2.4-7.1-3.2-.4-.3-.6-.9-.2-1.4.3-.4.9-.6 1.4-.2 2.3 1.6 5.3 3.1 6.3 2.8 1.5-.5 1.4-1.3 1.2-1.9-.2-.5.1-1.1.6-1.3.5-.2 1.1.1 1.3.6.7 2-.2 3.6-2.4 4.5-.4.1-.7.1-1.1.1z"/><path d="M46.6 79c-2.4 0-5-1.7-5-4.3v-.8c-.1-3-.2-7.1 3.9-7.3 3.2-.2 3.9 2.2 4.2 3.5.4 1.5.6 4.2 0 6.8-.4 1.3-1.6 2.1-3.1 2.1zm-.9-10.4h-.2c-1.9.1-2.1 1.8-2 5.3v.8c0 1.4 1.8 2.3 3 2.3.4 0 1-.1 1.1-.6.6-2.5.3-4.8 0-5.7-.3-1.6-.7-2.1-1.9-2.1z"/><path d="M42.1 77.2c-.1 0-.1 0 0 0-2.4-.2-4-1-4.9-2.4-1.3-2.1-.6-4.7-.2-5.7.5-1.3 2.3-5.5 5.5-5.2 3.2.3 3.9 3.3 3.9 3.4.1.5-.2 1.1-.8 1.2-.5.1-1.1-.2-1.2-.8 0-.2-.5-1.7-2.1-1.9-1.5-.2-2.9 2.4-3.5 3.9-.2.6-.9 2.6 0 3.9.5.8 1.6 1.3 3.3 1.5.6 0 1 .5.9 1.1 0 .6-.4 1-.9 1z"/><path d="M36.2 74.5c-1 0-2.1-.3-3.1-1.1-.9-.8-1.9-2.3-1.6-5.1.3-2.5 1.7-4.7 3.7-6 1.3-.8 2.7-1.1 3.6-.8 2 .7 2.7 3.4 2.7 3.7.1.5-.2 1.1-.7 1.2-.5.1-1.1-.2-1.2-.7-.2-.6-.7-2-1.4-2.2-.2-.1-1 0-1.9.6-.7.5-2.4 1.8-2.8 4.5-.2 1.5.1 2.7.9 3.3.8.6 1.8.7 2.5.5.5-.2 1.1.2 1.2.7.1.5-.2 1.1-.7 1.2-.3.1-.7.2-1.2.2z"/><path d="M32.4 71h-.2c-.2 0-3.8-.8-4.7-3.5-.5-1.5-.1-3.2 1.4-5.1 1-1.2 2-1.8 3.2-1.7 2.1.2 3.4 2.4 3.5 2.6.3.5.1 1.1-.4 1.4-.5.3-1.1.1-1.4-.4-.2-.4-1.1-1.6-1.9-1.6-.5 0-1 .3-1.5 1-1 1.3-1.3 2.3-1 3.1.5 1.3 2.6 2 3.3 2.2.5.1.9.6.8 1.2-.3.5-.7.8-1.1.8z"/></g></svg>