<svg xmlns="http://www.w3.org/2000/svg" width="100" height="100" viewBox="0 0 100 100"><path fill="#4A4A4A" d="M88.648 6.374c0-.055-.013-.108-.022-.163a.79.79 0 0 0-.048-.202c-.006-.014-.004-.03-.01-.043-.017-.037-.048-.06-.068-.095a.86.86 0 0 0-.124-.17c-.047-.05-.1-.083-.155-.12-.033-.023-.06-.057-.097-.076-.014-.007-.03-.005-.045-.012a.927.927 0 0 0-.21-.055c-.05-.01-.1-.024-.15-.025-.063 0-.123.014-.186.025a.82.82 0 0 0-.182.044c-.015.008-.03.006-.047.013-.055.024-5.57 2.547-7.996 3.334C57.07 16.015 49.032 23.44 46.137 27.66a.965.965 0 0 0-.502-.502.966.966 0 0 0-.99.146c-4.2 3.507-6.103 9.17-6.938 12.867l-.79-2.15a.957.957 0 0 0-1.555-.367c-1.967 1.852-8.37 13.68-10.523 17.71l-1.208-1.29a.955.955 0 0 0-1.32-.076c-.225.193-5.463 4.77-5.425 11.972.036 6.716-.428 12.573-.432 12.63v.004a.95.95 0 0 0 .044.374c.017.054.054.097.08.146a517.843 517.843 0 0 0-9.68 14.39.96.96 0 0 0 .283 1.325.956.956 0 0 0 1.324-.283 500.572 500.572 0 0 1 10.8-15.987c2.854-1.44 7.12-1.248 10.08-1.11 1.166.055 2.085.1 2.75.038.535-.05 1.533-.136 1.724-1.016.155-.702-.34-1.13-.94-1.5.11.015.22.028.32.04 1.857.246 3.136.378 3.954.072.762-.29.826-.9.828-1.08.01-.968-.96-1.357-3.084-2.205a110.87 110.87 0 0 1-.923-.376c.392.007.792.02 1.166.032 3.11.095 6.988.215 9.11-.723.45-.198 1.65-.73 1.627-1.796-.028-1.125-1.31-1.618-2.667-2.14a23.43 23.43 0 0 1-.846-.337 67.547 67.547 0 0 1 2.356-.97c4.754-1.894 13.605-5.418 20.035-12.175 2.893-3.038 3.763-4.677 3.107-5.845-.783-1.398-3.074-.904-5.727-.33-.5.108-1.15.25-1.756.356.63-.207 1.356-.413 1.977-.59 3.285-.928 7.784-2.2 9.674-5.253 2.965-4.785 6.676-10.505 6.71-10.56a.962.962 0 0 0 .02-1.016.98.98 0 0 0-.904-.46c-.82.073-1.676.142-2.472.204 2.08-1.315 4.56-3.01 5.594-4.342.928-1.196 1.808-3.737 3.026-7.257 1.18-3.413 2.65-7.664 4.51-11.444.008-.015.007-.03.013-.045.026-.06.037-.126.05-.193.012-.06.028-.115.028-.172zm-6.41 11.23c-1.072 3.093-1.997 5.763-2.73 6.708-1.17 1.51-5.25 4.002-6.99 5.066-1.273.78-1.35.826-1.494 1.103a.975.975 0 0 0 .047.99c.338.506.408.62 5.05.23a656.298 656.298 0 0 0-5.67 8.956c-1.503 2.422-5.587 3.576-8.57 4.42-2.447.692-4.063 1.15-4.613 2.18-.204.385-.24.81-.105 1.226.52 1.602 2.684 1.13 5.422.54 1.1-.236 2.863-.605 3.562-.533-.142.382-.682 1.363-2.734 3.517-6.14 6.454-14.737 9.877-19.357 11.716-3.223 1.285-4.31 1.718-4.17 2.843.13 1.048 1.31 1.504 2.678 2.03.278.105.657.25.973.393a.122.122 0 0 0-.017.006c-1.726.76-5.51.643-8.28.56-3.428-.107-4.43-.098-4.89.7-.178.305-.154.867.03 1.166.37.597 1.225 1.068 2.55 1.634-1.72-.22-2.713-.278-3.24.396-.26.334-.314.768-.147 1.185.146.37.42.678.75.95l-.81-.038c-2.357-.11-5.47-.256-8.27.356 31.81-44.446 52.592-56.178 52.824-56.304a.958.958 0 0 0-.916-1.682c-.97.53-21.967 12.335-54.605 58.446.135-2.36.304-6.217.282-10.41-.026-4.86 2.797-8.454 4.105-9.86l1.45 1.552a.957.957 0 0 0 1.545-.206c2.965-5.602 7.552-13.896 9.807-17.167l1.446 3.935a.957.957 0 0 0 1.85-.247c.007-.094.807-8.567 5.434-13.794l.075 1.153a.953.953 0 0 0 .912.888c.548-.022.916-.335.988-.82.018-.103 1.97-10.56 33.48-20.747 1.506-.487 4.03-1.56 5.886-2.377-1.408 3.223-2.574 6.55-3.54 9.337z"/></svg>