<svg xmlns="http://www.w3.org/2000/svg" width="100" height="100" viewBox="0 0 100 100"><path fill="#4A4A4A" d="M32.2 32.913l-13.502 13.88L49.944 83.23l31.248-36.437-13.502-13.88H32.2zm33.807 1.897l-3.605 11.768-10.36-11.768h13.965zM61.72 48.673l-.025.064c-3.46.263-7.37.438-11.75.438s-8.29-.175-11.75-.438l-.025-.064 11.774-13.376L61.72 48.673zM47.847 34.81l-10.36 11.767-3.604-11.767h13.964zm-15.685.86l3.95 12.892c-7.175-.656-12.034-1.67-14.32-2.23l10.37-10.66zm-9.51 12.82c2.8.628 7.563 1.502 14.207 2.056l10.207 26.417L22.65 48.49zm16.302 2.21c3.272.225 6.923.37 10.99.37 4.068 0 7.72-.146 10.992-.37L49.944 79.143 38.954 50.7zM52.82 76.963l10.21-26.417c6.645-.554 11.408-1.428 14.21-2.056L52.82 76.963zm25.28-30.63c-2.288.56-7.147 1.574-14.32 2.23l3.95-12.89 10.37 10.66zm16.773-2.998a.947.947 0 0 0-1.16-.67l-6.03 1.61a.948.948 0 1 0 .49 1.832l6.028-1.61a.95.95 0 0 0 .673-1.162zM73.04 28.41a.945.945 0 0 0 1.283-.392l2.805-5.272a.95.95 0 1 0-1.674-.89l-2.806 5.272a.95.95 0 0 0 .392 1.282zM12.207 44.274l-6.028-1.61a.947.947 0 1 0-.49 1.83l6.028 1.61a.95.95 0 1 0 .49-1.83zm13.36-16.256a.947.947 0 1 0 1.674-.89l-2.805-5.272a.95.95 0 1 0-1.674.89l2.806 5.272zm24.377-3.808a.947.947 0 0 0 .948-.948v-5.81a.947.947 0 0 0-1.896 0v5.81c0 .524.424.948.948.948z"/></svg>