<svg xmlns="http://www.w3.org/2000/svg" width="100" height="100" viewBox="0 0 100 100"><path fill="#4A4A4A" d="M38.843 43.692a3.407 3.407 0 1 0 0-6.813 3.407 3.407 0 0 0 0 6.81zm23.247 0a3.407 3.407 0 1 0 0-6.813 3.407 3.407 0 0 0 0 6.81zM50.202 10.465c-21.852 0-39.63 17.78-39.63 39.63 0 21.853 17.778 39.632 39.63 39.632s39.628-17.78 39.628-39.63c0-21.854-17.775-39.632-39.628-39.632zm0 76.593c-20.38 0-36.962-16.582-36.962-36.962 0-20.38 16.582-36.962 36.962-36.962 20.38 0 36.96 16.582 36.96 36.962 0 20.38-16.58 36.962-36.96 36.962zm21.25-31.61c-.737 0-1.334.596-1.334 1.333 0 7.808-9.318 17.345-20.195 17.345-10.874 0-20.192-9.537-20.192-17.343a1.333 1.333 0 0 0-2.67 0c.003 9.066 10.2 20.013 22.864 20.013s22.863-10.95 22.863-20.015c0-.736-.597-1.333-1.334-1.333z"/></svg>