<svg xmlns="http://www.w3.org/2000/svg" viewBox="0 0 100 100" height="100" width="100"><path fill="#4A4A4A" d="M36.9 65.7c-15.4 0-28-12.5-28-28 0-15.4 12.5-28 28-28 15.4 0 28 12.5 28 28-.1 15.4-12.6 28-28 28zm0-54c-14.3 0-26 11.6-26 26 0 14.3 11.6 26 26 26 14.3 0 26-11.6 26-26-.1-14.3-11.7-26-26-26z"/><path fill="#4A4A4A" d="M36.5 56.5c-10.4 0-18.9-8.5-18.9-18.9 0-10.4 8.5-18.9 18.9-18.9 10.4 0 18.9 8.5 18.9 18.9-.1 10.5-8.5 18.9-18.9 18.9zm0-35.7c-9.3 0-16.9 7.6-16.9 16.9 0 9.3 7.6 16.9 16.9 16.9 9.3 0 16.9-7.6 16.9-16.9-.1-9.3-7.6-16.9-16.9-16.9zM57.3 66.1l-6.4-6.6 7.5-7.4 6.4 6.6-7.5 7.4zm-3.5-6.5l3.6 3.7 4.6-4.6-3.6-3.7-4.6 4.6z"/><path fill="#4A4A4A" d="M81.1 91.8c-1.2 0-2.3-.5-3.1-1.3L56.4 69c-.8-.8-1.3-1.9-1.3-3.1s.5-2.3 1.3-3.1l5.2-5.2c.8-.8 1.9-1.3 3.1-1.3 1.2 0 2.3.5 3.1 1.3l21.5 21.5c.8.8 1.3 1.9 1.3 3.1 0 1.2-.5 2.3-1.3 3.1l-5.2 5.2c-.8.8-1.9 1.3-3 1.3zM64.7 58.4c-.6 0-1.2.2-1.7.7l-5.2 5.2c-.4.4-.7 1-.7 1.7s.2 1.2.7 1.7l21.5 21.5c.9.9 2.4.9 3.3 0l5.2-5.2c.4-.4.7-1 .7-1.7 0-.6-.2-1.2-.7-1.7L66.4 59.1c-.5-.5-1.1-.7-1.7-.7z"/></svg>