<svg xmlns="http://www.w3.org/2000/svg" width="612" height="578" viewBox="0 21.5 612 578"><g fill="#4A4A4A"><path d="M503.584 435.027c-5.845-.716-11.126 3.445-11.836 9.27-.073.607-7.975 60.467-64.297 68.062-71.852 9.674-87.844-30.13-98.42-56.47l-.605-1.494c-9.664-24.016-16.7-45.71-21.836-61.55-5.546-17.08-8.894-27.392-12.67-32.918-3-4.39-72.503-108.404 15.533-195.137 30.73-30.28 72.326-39.2 111.268-23.83 37.785 14.908 62.247 48.238 63.83 86.965.247 5.863 5.168 10.41 11.067 10.184 5.862-.24 10.422-5.19 10.19-11.053-1.916-46.543-32.253-88.098-77.278-105.87-46.996-18.55-97.088-7.907-134.004 28.464-38.097 37.54-55.257 84.28-49.627 135.174 5.165 46.683 27.123 80.76 31.48 87.112 2.056 3.005 5.906 14.89 9.994 27.466 5.233 16.14 12.4 38.238 22.338 62.926l.6 1.48c10.313 25.68 28.63 71.316 96.862 71.316 7.43 0 15.46-.545 24.132-1.708 57.95-7.81 79.346-60.037 82.56-86.567.702-5.827-3.447-11.12-9.28-11.824z"/><path d="M459.11 320.84c3.513-.95 7.772.912 9.015 1.646 4.976 3.115 11.536 1.598 14.646-3.378 3.123-4.982 1.61-11.542-3.377-14.65-1.248-.778-12.59-7.535-25.472-4.236-5.6 1.432-13.512 5.36-19.44 15.955-10.895 19.45 1.92 42.46 10.402 57.687 2.106 3.79 4.726 8.495 5.16 10.166 2.778 10.826-.76 22.913-8.415 28.758-8.507 6.5-18.758 3.035-25.87-1.016-31.425-17.932-41.902-49.633-31.156-94.23 11.52-47.78 47.675-57.185 56.194-58.758 3.293 10.318 4.21 18.482 4.223 18.648.588 5.838 5.808 10.098 11.64 9.51 5.846-.593 10.1-5.808 9.51-11.646-.183-1.91-5.065-47.044-35.96-68.99-16.034-11.39-35.686-14.414-58.415-8.98-34.54 8.262-54.957 35.723-59.04 79.432-2.888 30.955 3.508 59.23 3.783 60.423a10.628 10.628 0 0 0 12.737 7.977c5.716-1.31 9.296-7.014 7.986-12.736-.062-.262-5.955-26.517-3.286-54.12 3.28-33.995 17.674-54.283 42.767-60.28 16.7-3.99 30.14-2.167 41.09 5.58 5.82 4.127 10.427 9.574 14.07 15.43-17.064 4.45-55.106 20.203-67.958 73.54-16.487 68.39 13.354 101.74 41.29 117.68 8.673 4.95 17.42 7.42 25.693 7.42 8.58 0 16.658-2.658 23.604-7.97 14.602-11.146 21.07-31.63 16.1-50.96-1.114-4.323-3.782-9.127-7.173-15.204-6.18-11.095-15.514-27.87-10.43-36.958 2.694-4.82 5.24-5.51 6.084-5.737zm-243.16 96.164l-71.812 55.747c-5.54 4.305-6.536 12.278-2.24 17.817a12.668 12.668 0 0 0 10.03 4.914c2.724 0 5.466-.874 7.78-2.673l71.81-55.754c5.54-4.302 6.537-12.276 2.24-17.815-4.295-5.532-12.27-6.536-17.808-2.233zm-15.906-110.21a12.425 12.425 0 0 0-13.384-11.4l-125.705 10.04c-6.848.553-11.952 6.54-11.4 13.38.52 6.506 5.96 11.444 12.374 11.444.33 0 .665-.012 1.002-.042l125.71-10.037c6.836-.553 11.94-6.538 11.4-13.386zM110.276 157.75l91.97 26.535a13.34 13.34 0 0 0 3.752.54c5.87 0 11.273-3.856 12.987-9.774 2.068-7.177-2.068-14.67-9.24-16.736l-91.966-26.542c-7.18-2.068-14.67 2.07-16.74 9.236-2.08 7.177 2.063 14.668 9.235 16.743z"/></g></svg>