<svg xmlns="http://www.w3.org/2000/svg" width="100" height="100" viewBox="0 0 100 100"><g fill="#37C3E8"><path d="M50.79 66.54l-.07.98v-.98c-7.91 0-14.37-6.43-14.41-14.33-.02-3.85 1.46-7.48 4.17-10.21 2.71-2.74 6.32-4.25 10.24-4.27 7.91 0 14.37 6.43 14.4 14.34.04 7.94-6.39 14.43-14.33 14.47zm3.86-10.51a5.52 5.52 0 0 0 1.6-3.92c-.02-3.03-2.5-5.5-5.56-5.5-1.48.01-2.86.59-3.9 1.64s-1.61 2.44-1.6 3.92c.01 3.03 2.49 5.5 5.53 5.5h.03c1.47-.01 2.86-.59 3.9-1.64z"/><path d="M50.69 46.61c3.06 0 5.54 2.47 5.56 5.5 0 1.48-.56 2.87-1.6 3.92s-2.43 1.63-3.9 1.64h-.03c-3.04 0-5.52-2.47-5.53-5.5-.01-1.48.56-2.87 1.6-3.92s2.42-1.63 3.9-1.64zm3.61 5.51a3.592 3.592 0 0 0-3.58-3.56c-.98 0-1.87.38-2.55 1.06-.67.68-1.04 1.58-1.03 2.53.01 1.97 1.61 3.57 3.57 3.57v.97l.02-.97a3.583 3.583 0 0 0 3.57-3.6z"/><path d="M50.79 66.54c7.94-.04 14.37-6.53 14.33-14.47-.03-7.91-6.49-14.34-14.4-14.34-3.92.02-7.53 1.53-10.24 4.27a14.293 14.293 0 0 0-4.17 10.21c.04 7.9 6.5 14.33 14.41 14.33v.98l.07-.98zm16.28-14.48c.05 9.02-7.26 16.39-16.27 16.43h-.08c-8.98 0-16.31-7.3-16.36-16.27a16.23 16.23 0 0 1 4.74-11.59c3.07-3.1 7.17-4.82 11.54-4.85 9.05 0 16.39 7.3 16.43 16.28z"/><path d="M89.67 51.45c-.12.23-12.58 22.78-39.06 22.78-26.48 0-38.72-22.19-38.84-22.42l-.28-.5.32-.49c.05-.08 2.42-3.65 6.98-7.8l-3.14-3.39a.978.978 0 0 1 .05-1.38.98.98 0 0 1 1.38.06l3.17 3.43c3.13-2.64 7.11-5.38 11.93-7.52l-1.65-4.21c-.19-.5.05-1.07.55-1.26a.97.97 0 0 1 1.27.55l1.63 4.17c4.59-1.82 9.89-3.04 15.86-3.15v-4.19c0-.54.43-.97.97-.97s.98.43.98.97v4.19c5.97.14 11.26 1.36 15.85 3.17l1.64-4.19a.97.97 0 0 1 1.81.7l-1.648 4.24c4.85 2.14 8.84 4.87 11.96 7.48l3.15-3.41a.98.98 0 0 1 1.38-.06c.39.37.42.98.05 1.38l-3.11 3.36c4.42 3.98 6.7 7.38 6.76 7.46l.32.49-.282.51zm-2.02-.41c-2.19-2.99-14.84-18.79-36.93-18.79-22.12 0-34.77 16.13-36.94 19.15 1.97 3.24 13.74 20.88 36.83 20.88 23.13 0 35.06-17.95 37.04-21.24z"/></g></svg>