<svg xmlns="http://www.w3.org/2000/svg" width="100" height="100" viewBox="0 0 100 100"><path fill="#4A4A4A" d="M86.087 50.674c-.825-3.397-2.983-4.923-5.03-5.29-4.682-8.13-13.28-12.417-24.947-12.418-7.36 0-13.778 1.686-16.033 2.355-5.77-3.253-10.064-3.754-12.155-3.754-.575 0-.996.038-1.246.07h-.003c-.964 0-1.79.457-2.267 1.256-1.26 2.116.81 6.635 2.116 9.154-1.877 2.637-2.727 6.55-2.93 7.616-.754 1.747-1.745 1.976-2.532 1.976-1.34 0-2.657-.783-2.67-.79a1.932 1.932 0 0 0-2.763.803c-3.576 7.438-.85 16.77-.733 17.163a1.933 1.933 0 0 0 2.058 1.367l1.898-.206c-.115.077-.22.167-.316.268-1.67 1.756-1.647 3.235-1.333 4.166.728 2.152 3.415 2.686 3.947 2.772 13.1 1.687 12.712 8.475 12.69 8.763-.307 3.89.193 4.943.78 5.508.25.244.562.413.902.493 4.734 1.1 8.07 1.66 9.91 1.66.505 0 1.88 0 2.573-.945.724-.825 1.224-2.163 1.55-3.33a42.46 42.46 0 0 0 4.562.256c2.796 0 4.903-.305 6.325-.616.413 1.534.89 2.75.917 2.823a1.93 1.93 0 0 0 1.525 1.206c2.027.29 3.857.436 5.44.436 5.522 0 6.997-1.808 7.375-2.585.104-.213.167-.443.188-.678.11-1.287-.05-6.648-.13-9.04 9.557-6.717 9.184-18.8 8.77-22.776 2.723-2.22 2.302-5.795 1.562-7.678zm-12.3 29.436s.303 8.384.173 9.886c0 0-.73 1.5-5.638 1.5-1.37 0-3.07-.118-5.168-.417 0 0-.922-2.346-1.273-4.54 0 0-2.617 1.106-7.765 1.106a42.1 42.1 0 0 1-6.056-.46s-.613 3.38-1.603 4.287c0 0-.055.192-1.03.192-1.204 0-3.816-.294-9.473-1.61 0 0-.472-.453-.198-3.93 0 0 .983-8.888-14.306-10.856 0 0-4.372-.7-1.52-3.7 0 0 6.32-3.59 3.55-4.044l-6.738.73s-2.67-8.923.623-15.773c0 0 1.738 1.083 3.69 1.083 1.598 0 3.34-.724 4.394-3.356 0 0 .99-5.628 3.384-7.923 0 0-4.722-8.723-2.165-8.723.033 0 .07.002.106.005 0 0 .395-.076 1.142-.076 1.91 0 6.124.483 11.92 3.92 0 0 7.497-2.52 16.266-2.52 8.693 0 18.635 2.477 23.756 12.337 0 0 .066-.006.183-.006.717 0 3.34.264 4.192 4.037 0 0 1.826 4.29-1.79 6.138.004 0 2.765 15.588-8.66 22.71zm-15.31-58.255c4.486 0 8.137-3.65 8.137-8.138 0-4.487-3.65-8.138-8.138-8.138-4.487 0-8.138 3.65-8.138 8.136 0 4.488 3.65 8.138 8.138 8.138zm0-14.344a6.206 6.206 0 0 1 0 12.415 6.207 6.207 0 0 1 0-12.413zm-25.85 42.48c-.943 0-1.71.77-1.71 1.71 0 .945.767 1.713 1.71 1.713s1.71-.768 1.71-1.71c0-.944-.767-1.712-1.71-1.712z"/></svg>