<svg xmlns="http://www.w3.org/2000/svg" width="100" height="100" viewBox="0 0 100 100"><path fill="#4A4A4A" d="M86.78 30.472H69.327c1.303-3.12 5.103-11.812 7.92-18.215l8.608 3.088a.93.93 0 1 0 .627-1.747l-9.42-3.38a.928.928 0 0 0-1.164.5c-5.896 13.385-7.9 18.027-8.552 19.755h-21.15a.927.927 0 0 0-.93.928v6.42c0 .513.416.928.93.928h3.392l.912 8.263c-4-2.13-8.87-3.247-14.214-3.247-6.238 0-12.457 1.536-17.062 4.216-3.508 2.04-5.71 4.71-6.2 7.51-.313 1.802.128 3.58 1.21 4.87.185.22.39.393.59.583-.046.042-.1.074-.136.127-.174.244-4.24 6.037-2.54 9.857.562 1.265 1.852 2.293 3.618 2.74-.276 2.257-.028 4.018.23 5.1-1.537.393-2.683 1.778-2.683 3.437v2.11a3.564 3.564 0 0 0 3.56 3.56h37.725a3.563 3.563 0 0 0 3.558-3.56V82.31H78.59a.927.927 0 0 0 .924-.846L83.22 38.75h3.56a.927.927 0 0 0 .927-.93V31.4a.926.926 0 0 0-.927-.928zM14.853 55.805c.393-2.252 2.276-4.463 5.305-6.225 4.265-2.482 10.293-3.964 16.127-3.964 5.76 0 10.91 1.363 14.893 3.94 3.097 2.006 4.99 4.337 5.323 6.562.177 1.17-.095 2.222-.784 3.045-1.74 2.072-4.546 2.452-9.448 2.452H25.104c-4.903 0-7.708-.38-9.447-2.452-.743-.884-1.028-2.077-.805-3.358zm-1.01 14.366c-1.054-2.37 1.345-6.6 2.358-8.027.026-.035.03-.075.05-.112 2.31 1.308 5.32 1.443 8.855 1.443H46.27c3.816 0 7.014-.178 9.382-1.802.018.15.06.3.154.434 1.013 1.427 3.415 5.652 2.356 8.03-.66 1.487-3.14 2.505-6.432 1.464-.567-.18-1.144-.52-1.753-.878-2.198-1.298-4.925-2.883-10.2.682-.016.01-.034.01-.05.022-.022.018-1.582 1.132-3.534 1.308-2.083-.043-3.808-1.272-3.913-1.348a.914.914 0 0 0-.353-.153c-5.078-3.3-7.738-1.744-9.895-.472-.61.36-1.186.698-1.754.878-3.298 1.042-5.774.022-6.434-1.464zm6.99 3.235c.77-.244 1.465-.652 2.138-1.05 2.096-1.233 4.074-2.398 8.757.988a6.604 6.604 0 0 0 3.947 1.29c.207 0 .403-.025.604-.042.017 0 .033.005.05.005a6.604 6.604 0 0 0 3.947-1.29c4.685-3.386 6.66-2.22 8.756-.988.673.396 1.368.805 2.138 1.05 1.13.356 2.183.508 3.15.507.28 2.264-.044 3.94-.274 4.77h-36.16c-.23-.825-.55-2.49-.278-4.735.988.01 2.068-.137 3.228-.505zm35.465 10.91c0 .938-.763 1.702-1.702 1.702H16.87a1.705 1.705 0 0 1-1.702-1.703v-2.11c0-.94.764-1.704 1.703-1.704h.264c.03.002.054.023.084.023.04 0 .08-.02.118-.024h37.247c.042.004.084.024.127.024l.006-.002c.623.046 1.15.416 1.406.953.013.12.044.23.097.33.03.13.08.256.08.396v2.11zm21.442-3.86H57.674c-.4-.7-1.02-1.256-1.775-1.556.27-1.073.55-2.9.26-5.255 1.804-.437 3.122-1.476 3.694-2.758 1.7-3.82-2.367-9.613-2.54-9.858a.9.9 0 0 0-.51-.344c.108-.114.228-.206.332-.33 1.028-1.223 1.454-2.826 1.2-4.512-.403-2.683-2.49-5.387-5.87-7.647.004-.05.02-.097.014-.15l-1.025-9.3h29.903l-3.62 41.707zm8.113-43.564H47.12v-4.56h38.733v4.56z"/></svg>