<svg xmlns="http://www.w3.org/2000/svg" viewBox="0 0 100 100" height="100" width="100"><path fill="#4A4A4A" d="M25 37c-.4-.8-.8-1.4-1-2.2h33c2.4 0 3.6-1.8 3.6-3.6 0-1-.4-1.9-1-2.7-.5-.6-1.5-1.2-3-1.2H41.2c.3-.7.5-1.4.5-2.2 0-1.7-.7-2.9-1.9-3.4.3-.6.5-1.4.5-2.2 0-1.9-1.2-4-3.3-4h-.5c.2-.5.3-1.1.3-1.8 0-1-.3-2-.9-2.7-.5-.6-1.4-1.3-3-1.3H16.6c-5.2 0-10.8 3.9-10.8 12.4 0 9.7 2.3 11.6 6.8 14.4.8.5 1.7 1 2.6 1.7 4.5 3.1 4.7 4.6 5.3 8.5.1.7.2 1.4.4 2.2.5 2.7 1.8 3.1 2.6 3.1.9 0 1.7-.5 2.5-1.5 1.3-1.7 2.3-4.7 1.5-7.6-.9-3-1.8-4.6-2.5-5.9zm-.8 12.3c-.5.6-.8.7-.9.7-.1 0-.4-.3-.6-1.4-.1-.8-.3-1.5-.3-2.2-.6-4-.9-6.2-6.1-9.8-1-.7-1.9-1.2-2.7-1.7-3.9-2.4-5.8-3.6-5.8-12.7 0-7.2 4.4-10.4 8.8-10.4h16.3c.6 0 1.1.2 1.4.6.3.4.5.9.5 1.5 0 .9-.4 1.8-1.1 1.8-2.7 0-4.5.1-4.5.1-.5 0-1 .5-1 1s.5 1 1 1c0 0 4.4-.1 7.8-.1 1 0 1.4 1.2 1.4 2 0 .5-.1 1-.4 1.4-.2.3-.6.5-1 .5-2.4 0-6.6.1-6.6.1-.5 0-1 .5-1 1s.4 1 1 1h8.2c1.1 0 1.2 1.2 1.2 1.7 0 .6-.2 1.2-.4 1.6-.2.4-.5.5-.8.5h-7.2c-.5 0-1 .4-1 1 0 .5.4 1 1 1h25.2c.7 0 1.2.2 1.6.6.3.3.5.8.5 1.3 0 .8-.4 1.6-1.6 1.6H22.8c-.3 0-.6.1-.8.4-.2.2-.3.5-.2.8.3 1.7.9 2.8 1.6 3.9.7 1.3 1.5 2.8 2.2 5.5.4 2-.4 4.4-1.4 5.7zm63.5 13.3c-.8-.5-1.7-1-2.6-1.7-4.5-3.1-4.7-4.6-5.3-8.5-.1-.7-.2-1.4-.4-2.2-.4-2.7-1.7-3.2-2.5-3.2-.9 0-1.7.5-2.5 1.5-1.3 1.7-2.3 4.7-1.5 7.6.7 3 1.6 4.6 2.4 6 .4.8.8 1.4 1 2.2h-33c-2.4 0-3.6 1.8-3.6 3.6 0 1 .4 1.9 1 2.7.5.6 1.5 1.2 3 1.2H59c-.3.7-.5 1.4-.5 2.2 0 1.7.7 2.9 1.9 3.4-.3.6-.4 1.4-.4 2.2 0 1.9 1.2 4 3.3 4h.5c-.2.5-.3 1.1-.3 1.8 0 1 .3 2 .9 2.7.5.6 1.4 1.3 3 1.3h16.3c5.2 0 10.8-3.9 10.8-12.4-.1-9.8-2.4-11.7-6.8-14.4zm-4 24.7H67.4c-.6 0-1.1-.2-1.4-.6-.3-.4-.5-.9-.5-1.5 0-.9.4-1.8 1.1-1.8h4.5c.5 0 1-.5 1-1s-.5-1-1-1c0 0-4.4.1-7.8.1-1 0-1.4-1.2-1.4-2 0-.5.1-1 .4-1.4.2-.3.6-.5 1-.5 2.4 0 6.6-.1 6.6-.1.5 0 1-.5 1-1s-.4-1-1-1h-8.2c-1.1 0-1.2-1.2-1.2-1.7 0-1 .5-2.2 1.2-2.2h7.2c.5 0 1-.4 1-1 0-.5-.4-1-1-1H43.8c-.7 0-1.2-.2-1.6-.6-.3-.3-.5-.8-.5-1.3 0-.8.4-1.6 1.6-1.6h34.3c.3 0 .6-.1.8-.4.2-.2.3-.5.2-.8-.3-1.7-.9-2.8-1.6-4-.7-1.3-1.5-2.8-2.2-5.5-.5-1.9.2-4.4 1.2-5.6.5-.6.8-.7.9-.7.1 0 .4.3.6 1.4.1.8.2 1.5.3 2.2.6 4 .9 6.2 6.1 9.8 1 .7 1.9 1.2 2.7 1.7 3.9 2.4 5.8 3.6 5.8 12.7 0 7.2-4.4 10.4-8.7 10.4z"/></svg>