<svg xmlns="http://www.w3.org/2000/svg" viewBox="0 0 100 100" height="100" width="100"><path fill="#4A4A4A" d="M51.8 17.2c-17.9 0-32.5 14.6-32.5 32.5 0 3.9.7 7.8 2.1 11.5l-4.9 2c-.3.1-.6.5-.5.9 0 .4.3.7.7.8l7.9 2.1h-.3c2.6 4.1 6.1 7.6 10.2 10.2l.1-.1 2.1 7.7c.1.4.4.6.8.7h.1c.4 0 .7-.2.8-.5l2-4.9c3.7 1.4 7.5 2.1 11.5 2.1 17.9 0 32.5-14.6 32.5-32.5S69.7 17.2 51.8 17.2zm-25 50.3l5.7 1.5 1.5 5.7c-2.8-1.9-5.3-4.4-7.2-7.2zm10.9 14.4L34 68.1c-.1-.3-.3-.5-.6-.6l-13.8-3.7 30.6-12.5-12.5 30.6zm14.7-32.8c-.3-.3-.6-.3-1-.2l-17 7c-.7-2-1-4-1-6.1 0-10.2 8.3-18.4 18.4-18.4s18.4 8.3 18.4 18.4S62 68.1 51.8 68.1c-2.1 0-4.2-.4-6.2-1.1l7-17.1c.2-.2.1-.6-.2-.8zm-.6 31.3c-3.7 0-7.4-.7-10.8-2l4-9.8c2.2.8 4.5 1.2 6.8 1.2 11.1 0 20.2-9.1 20.2-20.2s-9.1-20.2-20.2-20.2-20.2 9.1-20.2 20.2c0 2.3.4 4.6 1.2 6.8l-9.8 4c-1.3-3.4-1.9-7.1-1.9-10.8 0-17 13.8-30.7 30.7-30.7s30.7 13.8 30.7 30.7-13.7 30.8-30.7 30.8z"/></svg>