<svg xmlns="http://www.w3.org/2000/svg" width="100" height="100" viewBox="0 0 100 100"><path fill="#4A4A4A" d="M77.476 48.512c-.296-1.293-1.154-2.312-2.552-3.03-1.043-.54-2.052-.802-3.022-.79.19-.707.21-1.485.054-2.31-.735-3.92-5.295-8.33-7.435-9.327-1.387-.648-4.09-.745-5.575-.745-2.525 0-5.84.278-8.234.997.38-4.213 1.318-14.7 1.567-17.69.235-2.813-1.936-5.068-4.11-5.407-1.938-.32-3.51.883-4 3.023-.476 2.057-1.203 9.446-1.84 16.684-1.723-5.582-4.503-12.994-7.495-14.503-.765-.386-1.56-.43-2.295-.125-4.34 1.792-1.91 9.807.443 17.556.674 2.22 1.306 4.315 1.693 6.02-3.56-4.518-9.316-10.503-13.273-8.037-.487.193-.84.58-.995 1.085-.552 1.8 1.47 5.037 6.564 12.55 3.387 4.995 7.604 11.212 7.714 13.604.014.28.136.527.317.714-.187.63-.316 1.167-.316 1.5 0 3.02 2.72 23.76 2.835 24.642.303 2.343 3.256 3.433 9.29 3.433 3.207 0 6.29-.316 7.464-.437 2.418-.242 5.125-3.545 6.896-8.416 2.186-6.01 5.018-11.42 8.658-16.54.66-.93 1.38-1.886 2.106-2.847 3.237-4.288 6.293-8.34 5.546-11.608zM46.32 13.73c.35-1.516 1.22-1.382 1.504-1.334 1.032.16 2.386 1.393 2.25 3.036-.284 3.406-1.463 16.525-1.687 19.02-1.18 1.046-2.918 3.56-4.778 6.67.662-8.3 2.01-24.355 2.71-27.392zm-12.94 3.6c.064-.025.186-.077.456.06 2.704 1.363 6.29 12.178 7.955 18.803-.382 4.638-.672 8.4-.754 9.463a144.48 144.48 0 0 0-1.915 3.66c-.534-2.7-1.354-6.735-2.255-10.79-.403-1.81-1.068-4.002-1.77-6.32-1.674-5.515-4.2-13.847-1.714-14.875zm-4.585 25.894c-2.588-3.813-6.088-8.976-6.268-10.507 3.234-1.624 10.256 6.897 13.303 11.518a539.98 539.98 0 0 1 1.682 8.382 83.37 83.37 0 0 0-1.283 2.87c-1.284-3.176-4.283-7.613-7.436-12.263zm41.37 15.564a134.29 134.29 0 0 0-2.144 2.895c-3.755 5.288-6.676 10.872-8.93 17.068-1.78 4.893-4.036 6.875-5.206 6.99-.986.103-3.985.41-7.078.41-5.46 0-7.03-.986-7.1-1.51-.973-7.417-2.816-22.05-2.816-24.356 0-2.45 10.406-22.764 13.11-24.33 1.437-.83 5.197-1.434 8.943-1.434 2.576 0 4.11.288 4.642.537 1.55.723 5.623 4.666 6.198 7.73.18.954-.004 1.7-.56 2.282-.587.61-1.05.683-1.347.683-1.154 0-2.627-1.257-3.924-2.367-1.367-1.168-2.658-2.27-4.017-2.423a25.178 25.178 0 0 0-2.763-.145c-1.632 0-2.788.14-2.836.146l-.77.095-.172.756c-.595 2.62-1.886 8.9-1.013 10.638.284.56 2.825 5.48 5.15 5.48l.504-.045c1.462-.163 4.883-.543 7.357-3.678.57-.72 1.096-1.606 1.65-2.546 1.39-2.343 2.826-4.765 4.936-4.765.584 0 1.236.18 1.937.543 1.068.55 1.315 1.153 1.408 1.56.52 2.265-2.495 6.26-5.154 9.784zm-3.293-10.95c-.648.875-1.21 1.825-1.732 2.704-.517.872-1.006 1.697-1.484 2.304-1.9 2.408-4.48 2.695-5.865 2.848l-.2.04c-.613-.174-2.275-2.367-3.227-4.26-.32-.785.25-4.807 1.016-8.38a24.883 24.883 0 0 1 4.312.07c.684.076 1.822 1.047 2.825 1.904 1.316 1.125 2.777 2.373 4.357 2.77z"/></svg>