<svg xmlns="http://www.w3.org/2000/svg" viewBox="0 0 100 100" height="100" width="100"><path fill="#4A4A4A" d="M76 67.5l6.3-6.3c.2-.2.3-.4.3-.7 0-.3-.1-.5-.3-.7-2.9-2.9-6.8-4.5-10.9-4.5-3.8 0-7.4 1.4-10.2 3.9L52 50 92 9.9c.4-.4.4-1 0-1.4-.4-.4-1-.4-1.4 0L50.5 48.6l-40-40.1c-.4-.4-1-.4-1.4 0-.4.4-.4 1 0 1.4l40 40.1-9.2 9.2c-2.8-2.5-6.4-3.9-10.2-3.9-4.1 0-8 1.6-10.9 4.5-.2.2-.3.4-.3.7 0 .3.1.5.3.7l6.3 6.3-15 15c-1.6 1.6-1.6 4.3 0 5.9l2 2c.8.8 1.8 1.2 3 1.2s2.2-.4 3-1.2l15-15 6.3 6.3c.2.2.4.3.7.3.3 0 .5-.1.7-.3 5.8-5.8 6-15.1.6-21.2l9.2-9.2 9.2 9.2c-5.3 6.1-5.1 15.3.6 21.2.2.2.4.3.7.3.3 0 .5-.1.7-.3l6.3-6.3 15 15c.8.8 1.8 1.2 3 1.2 1.1 0 2.2-.4 3-1.2l2-2c1.6-1.6 1.6-4.3 0-5.9L76 67.5zm-36.1-6.9l.3.3c-.1 0-.2-.1-.3-.3-.2 0-.3-.2-.3-.3l.3.3zM16.5 89.1c-.8.8-2.3.8-3.1 0l-2-2c-.9-.9-.9-2.2 0-3.1l15-15 5.1 5.1-15 15zM40 79.6l-5.8-5.8-1.7-1.7-3.9-3.9-1.7-1.7-5.8-5.8c2.4-2.1 5.5-3.2 8.8-3.2 3.6 0 7 1.4 9.6 4 4.7 4.8 5 12.8.5 18.1zm26.9-5.8l-5.8 5.8c-4.5-5.3-4.3-13.3.7-18.3 2.6-2.6 5.9-4 9.6-4 3.3 0 6.3 1.1 8.8 3.2l-5.8 5.8-1.7 1.7-3.9 3.9-1.9 1.9zm22.8 13.3l-2 2c-.8.8-2.3.8-3.1 0l-15-15 5.1-5.1 15 15c.8.9.8 2.2 0 3.1z"/></svg>