<svg width="70" height="70" viewBox="0 0 70 70" xmlns="http://www.w3.org/2000/svg"><title>Artboard</title><g fill="none" fill-rule="evenodd"><ellipse fill="#F6F6F6" cx="34.931" cy="34.931" rx="34.931" ry="34.931"/><path d="M35.524 27.55c3.064 1.84 5.108 5.143 5.108 8.913 0 5.773-4.793 10.453-10.706 10.453" stroke="#181917" stroke-width=".768" stroke-linecap="round"/><path d="M18.544 26.656c0-1.552 1.29-2.81 2.88-2.81 1.59 0 2.877 1.258 2.877 2.81s-1.287 2.81-2.877 2.81c-1.59 0-2.88-1.258-2.88-2.81" fill="#AAD8C9"/><path d="M20.908 25.184c0-1.552 1.288-2.81 2.878-2.81s2.878 1.258 2.878 2.81-1.288 2.81-2.878 2.81-2.878-1.258-2.878-2.81z" stroke="#181917" stroke-width=".768" stroke-linecap="round"/><path d="M44.59 31.27c0-1.554 1.29-2.812 2.88-2.812 1.59 0 2.878 1.258 2.878 2.81 0 1.553-1.29 2.81-2.88 2.81-1.588 0-2.877-1.257-2.877-2.81" fill="#AAD8C9"/><path d="M46.954 29.797c0-1.553 1.29-2.81 2.88-2.81 1.59 0 2.877 1.257 2.877 2.81 0 1.55-1.287 2.81-2.877 2.81-1.59 0-2.88-1.26-2.88-2.81z" stroke="#181917" stroke-width=".768" stroke-linecap="round"/><path d="M24.17 46.916c0-1.553 1.288-2.81 2.878-2.81s2.878 1.257 2.878 2.81c0 1.552-1.29 2.81-2.878 2.81-1.59 0-2.88-1.258-2.88-2.81z" stroke="#E56F4C" stroke-width=".768" stroke-linecap="round"/><path d="M35.65 29.962l-.592-2.69 2.662-.427" stroke="#181917" stroke-width=".768" stroke-linecap="round"/><path d="M27.72 30.76l4.84 4.725m-4.84 0l4.84-4.726m-15.373 5.288l4.84 4.726m-4.84 0l4.84-4.726" stroke="#181917" stroke-width=".768" stroke-linecap="round" stroke-linejoin="round"/><path d="M44.387 40.938l4.84 4.726m-4.84 0l4.84-4.726" stroke="#181917" stroke-width=".768" stroke-linecap="round"/></g></svg>