<svg width="70" height="70" viewBox="0 0 70 70" xmlns="http://www.w3.org/2000/svg"><title>Artboard</title><g fill="none" fill-rule="evenodd"><ellipse cx="34.931" cy="34.931" rx="34.931" ry="34.931" fill="#F6F6F6"/><path d="M34.35 25.328h-1.997c-.48 0-.94.18-1.298.507-.697.637-1.972 1.68-3.117 1.976-1.682.435-2.392-.44-2.163-.844.042-.073 3.304-2.605 5.15-3.894a4.008 4.008 0 0 1 2.29-.728c.65 0 1.38-.002 1.91-.004.494 0 .98.128 1.414.375l4.914 2.798a3.092 3.092 0 0 0 1.59.408l.343-.006a5.41 5.41 0 0 0 1.287-.192c1.308-.345 2.758-.328 4.24.164 2.092.693 3.763 2.37 4.468 4.514.722 2.194.593 4.38-.373 6.06-.36.628-1.075 1.635-2.137 1.914" fill="#FFF"/><path d="M34.35 25.328h-1.997c-.48 0-.94.18-1.298.507-.697.637-1.972 1.68-3.117 1.976-1.682.435-2.392-.44-2.163-.844.042-.073 3.304-2.605 5.15-3.894a4.008 4.008 0 0 1 2.29-.728c.65 0 1.38-.002 1.91-.004.494 0 .98.128 1.414.375l4.914 2.798a3.092 3.092 0 0 0 1.59.408l.343-.006a5.41 5.41 0 0 0 1.287-.192c1.308-.345 2.758-.328 4.24.164 2.092.693 3.763 2.37 4.468 4.514.722 2.194.593 4.38-.373 6.06-.36.628-1.075 1.635-2.137 1.914" stroke="#181917" stroke-width=".874" stroke-linecap="round" stroke-linejoin="round"/><path d="M29.755 24.22s-2.258-.04-3.816 0c-1.56.042-9.93-.416-9.93 8.645 0 2.624 1.3 4.935 3.275 6.285a7.132 7.132 0 0 0 4.04 1.252l5.56.806c.155.168.345-.892.5-.773l8.738 6.693c.7.54 1.697.39 2.217-.333l.005-.005c.52-.724.375-1.757-.324-2.297l-6.794-5.247a.636.636 0 0 1-.063-.94.505.505 0 0 1 .674-.05L42.05 44.6c.698.54 1.696.39 2.217-.333l.004-.005c.52-.723.376-1.756-.323-2.296l-7.77-6a.473.473 0 0 1-.046-.7.46.46 0 0 1 .616-.043c1.626 1.265 8.797 6.81 8.797 6.81.7.54 1.697.39 2.218-.333l.005-.005c.52-.723.374-1.756-.325-2.296l-8.17-6.31a.656.656 0 0 1-.067-.97s.37-.343.756-.033l9.177 7.19c.7.54 1.698.39 2.218-.334l.004-.005c.523-.722.38-1.752-.32-2.292l-10.206-8.053-3.443-2.942-1.502-.22-3.138-.2-2.997-1.01" fill="#AAD8C9"/><path d="M48.746 29.077v2.555m-1.24-1.278h2.368" stroke="#E2603E" stroke-width=".874" stroke-linecap="round" stroke-linejoin="round"/><path d="M22.53 37.27c.332 0 .666.105.95.325l.006.003c.7.54.842 1.57.318 2.292l-.752 1.033c-.31.427-.79.653-1.274.653-.33 0-.665-.106-.95-.325l-.005-.002c-.7-.54-.842-1.57-.318-2.29l.752-1.035c.31-.427.79-.653 1.274-.653m4.176 1.248c.33 0 .665.106.95.325l.004.004c.7.54.843 1.57.32 2.29l-1.533 2.107a1.57 1.57 0 0 1-1.274.653 1.55 1.55 0 0 1-.95-.325l-.005-.004a1.67 1.67 0 0 1-.318-2.29l1.53-2.107a1.58 1.58 0 0 1 1.276-.65m4.63.715c.33 0 .665.105.95.325l.005.004c.7.54.844 1.57.32 2.29l-2.805 3.856a1.57 1.57 0 0 1-1.274.653c-.33 0-.665-.105-.95-.325l-.004-.004c-.7-.54-.843-1.57-.32-2.29l2.806-3.856c.312-.428.79-.653 1.275-.653m2.586 3.688c.332 0 .666.106.95.326l.005.002c.7.54.842 1.57.318 2.29l-1.954 2.687a1.57 1.57 0 0 1-1.274.652 1.55 1.55 0 0 1-.95-.325l-.005-.004c-.7-.54-.842-1.57-.318-2.29l1.954-2.687a1.57 1.57 0 0 1 1.272-.654" fill="#FFF"/><path d="M20.826 41.25c.7.54 1.703.392 2.228-.33l.748-1.028c.525-.72.382-1.755-.32-2.295a1.566 1.566 0 0 0-2.228.328l-.747 1.028c-.525.722-.382 1.755.32 2.296zm3.394 2.32c.7.54 1.704.393 2.23-.33l1.527-2.1c.525-.72.38-1.754-.32-2.295a1.565 1.565 0 0 0-2.227.33l-1.53 2.1a1.68 1.68 0 0 0 .32 2.295zm3.357 2.466c.7.54 1.703.393 2.228-.328l2.802-3.85a1.68 1.68 0 0 0-.32-2.296 1.566 1.566 0 0 0-2.228.33l-2.803 3.848a1.68 1.68 0 0 0 .32 2.296zm3.44 2.52c.7.54 1.702.393 2.227-.33l1.95-2.68c.525-.722.382-1.755-.318-2.296a1.566 1.566 0 0 0-2.23.33l-1.95 2.68a1.68 1.68 0 0 0 .32 2.296z" stroke="#181917" stroke-width=".874" stroke-linecap="round" stroke-linejoin="round"/><path d="M37.61 26.035l-5.257-.707c-.48 0-.94.18-1.298.507-.697.637-1.972 1.68-3.117 1.976-1.682.435-2.392-.44-2.163-.844.042-.073 3.304-2.605 5.15-3.894" fill="#FFF"/><path d="M37.61 26.035l-5.257-.707c-.48 0-.94.18-1.298.507-.697.637-1.972 1.68-3.117 1.976-1.682.435-2.392-.44-2.163-.844.042-.073 3.304-2.605 5.15-3.894" stroke="#181917" stroke-width=".874" stroke-linecap="round" stroke-linejoin="round"/></g></svg>