<svg id="Layer_1" xmlns="http://www.w3.org/2000/svg" viewBox="0 0 114 150"><style>.st0{fill:#f1673c}.st1{fill:#504e4f}.st2{enable-background:new}.st3{fill:#82d3f0}</style><path class="st0" d="M106.9 77.7c-8.9 21-31.4 32.2-53.6 29.2C32 104.1 12.8 89.1 6.1 68.5c-6.5-20.2.8-42.8 18.7-54.6C44 1.2 70 3.7 88.2 17.1c18.7 13.9 27.5 38.6 18.7 60.6-.4 1 2.7.6 3.1-.4 8.6-21.7.3-46.2-17.7-60.5C74.3 2.7 48.7-.5 28.1 9.9 8.2 20-3 41.9 1.5 63.9c4.9 23.2 25.3 40.7 48.2 44.5 24.5 4.1 50.4-7.6 60.2-31.1.6-.9-2.5-.6-3 .4z"/><path class="st1" d="M103.9 36.9c7 18.4 1.1 39-13.3 52.2-15.7 14.4-39.6 18.4-58.8 8.6-17.5-8.9-27.5-28.3-24-47.8C11.5 29.4 28.4 13.3 48.4 9c22.5-4.9 46.7 6.2 55.5 27.9.5 1.4 4.6.2 4.2-1.1C99.8 15.4 78.7 4.3 57.2 5.6c-21.6 1.3-42 14.5-50.4 34.7C-1.6 60.4 5 83.8 22.9 96.2c18.2 12.6 43 11.7 61.6.5 20.7-12.4 32.3-37.7 23.5-61-.5-1.4-4.6-.1-4.1 1.2z"/><path class="st2 st0" d="M30.9 61.1V44.3H36v16.6c0 5.4 2.8 8.3 7.4 8.3s7.3-2.7 7.3-8.1V44.3h5.1v16.6c0 8.7-4.9 13.1-12.6 13.1-7.5-.1-12.3-4.5-12.3-12.9zM68.3 58.6L58.1 44.2h6l7.2 10.4 7.3-10.4h5.9l-10 14.2 10.6 14.9h-6l-7.7-11.1-7.7 11.1h-5.9l10.5-14.7z"/><g class="st2"><path class="st3" d="M6 122.7h1.7v10.8h15v-10.8h1.7V146h-1.7v-11H7.8v11H6.1L6 122.7zM33.1 122.7h1.7V146h-1.7v-23.3zM43.6 122.7h9.8c2.9 0 5.2.9 6.6 2.3 1.1 1.1 1.8 2.7 1.8 4.3v.1c0 3.9-2.9 6.1-6.8 6.7l7.7 10h-2.2l-7.5-9.6h-7.8v9.6h-1.7l.1-23.4zm9.6 12c3.9 0 6.8-2 6.8-5.3v-.1c0-3.1-2.4-5.1-6.7-5.1h-7.9v10.5h7.8z"/></g><g class="st2"><path class="st3" d="M69.7 122.7h16.6v1.6H71.4v9.2h13.4v1.6H71.5v9.4h15.1v1.6H69.7v-23.4z"/></g><g class="st2"><path class="st3" d="M92.2 142.6l1.1-1.3c2.6 2.4 4.9 3.5 8.4 3.5s5.9-2 5.9-4.6v-.2c0-2.4-1.3-3.9-6.6-4.9-5.6-1.1-7.8-3.1-7.8-6.6v-.1c0-3.5 3.1-6.1 7.5-6.1 3.4 0 5.6.9 8 2.8l-1.1 1.3c-2.2-1.9-4.4-2.7-7-2.7-3.5 0-5.7 2-5.7 4.4v.1c0 2.4 1.3 4 6.8 5.1 5.4 1.1 7.7 3.1 7.7 6.4v.1c0 3.8-3.2 6.4-7.8 6.4-3.7.2-6.6-1.1-9.4-3.6z"/></g></svg>